Model Pro_CONVERTED.ufo
<glyph name="percent" format="2">
  <advance width="518"/>
  <unicode hex="0025"/>
  <outline>
    <contour>
      <point x="537" y="624" type="line"/>
      <point x="-30" y="6" type="line"/>
      <point x="-27" y="4" type="line"/>
      <point x="542" y="625" type="line"/>
    </contour>
    <contour>
      <point x="86" y="472" type="curve" smooth="yes"/>
      <point x="82" y="428"/>
      <point x="118" y="393"/>
      <point x="167" y="393" type="curve" smooth="yes"/>
      <point x="216" y="393"/>
      <point x="260" y="428"/>
      <point x="264" y="472" type="curve" smooth="yes"/>
      <point x="269" y="516"/>
      <point x="232" y="551"/>
      <point x="183" y="551" type="curve" smooth="yes"/>
      <point x="134" y="551"/>
      <point x="91" y="516"/>
    </contour>
    <contour>
      <point x="100" y="472" type="curve" smooth="yes"/>
      <point x="104" y="514"/>
      <point x="141" y="547"/>
      <point x="183" y="547" type="curve" smooth="yes"/>
      <point x="225" y="547"/>
      <point x="254" y="514"/>
      <point x="250" y="472" type="curve" smooth="yes"/>
      <point x="246" y="430"/>
      <point x="209" y="397"/>
      <point x="167" y="397" type="curve" smooth="yes"/>
      <point x="125" y="397"/>
      <point x="96" y="430"/>
    </contour>
    <contour>
      <point x="256" y="158" type="curve" smooth="yes"/>
      <point x="252" y="114"/>
      <point x="288" y="79"/>
      <point x="337" y="79" type="curve" smooth="yes"/>
      <point x="386" y="79"/>
      <point x="430" y="114"/>
      <point x="434" y="158" type="curve" smooth="yes"/>
      <point x="439" y="202"/>
      <point x="402" y="237"/>
      <point x="353" y="237" type="curve" smooth="yes"/>
      <point x="304" y="237"/>
      <point x="261" y="202"/>
    </contour>
    <contour>
      <point x="270" y="158" type="curve" smooth="yes"/>
      <point x="274" y="200"/>
      <point x="311" y="233"/>
      <point x="353" y="233" type="curve" smooth="yes"/>
      <point x="395" y="233"/>
      <point x="424" y="200"/>
      <point x="420" y="158" type="curve" smooth="yes"/>
      <point x="416" y="116"/>
      <point x="379" y="83"/>
      <point x="337" y="83" type="curve" smooth="yes"/>
      <point x="295" y="83"/>
      <point x="266" y="116"/>
    </contour>
  </outline>
</glyph>
<glyph name="asterisk" format="2">
  <advance width="387"/>
  <unicode hex="002A"/>
  <outline>
    <contour>
      <point x="316" y="493" type="line"/>
      <point x="319" y="491"/>
      <point x="323" y="490"/>
      <point x="326" y="493" type="curve" smooth="yes"/>
      <point x="329" y="496"/>
      <point x="329" y="501"/>
      <point x="326" y="504" type="curve"/>
      <point x="252" y="570" type="line"/>
      <point x="351" y="565" type="line"/>
      <point x="356" y="566"/>
      <point x="359" y="569"/>
      <point x="359" y="573" type="curve" smooth="yes"/>
      <point x="359" y="578"/>
      <point x="356" y="580"/>
      <point x="352" y="580" type="curve" smooth="yes"/>
      <point x="252" y="575" type="line"/>
      <point x="326" y="642" type="line" smooth="yes"/>
      <point x="329" y="645"/>
      <point x="329" y="650"/>
      <point x="326" y="653" type="curve" smooth="yes"/>
      <point x="323" y="656"/>
      <point x="319" y="655"/>
      <point x="316" y="653" type="curve"/>
      <point x="246" y="575" type="line"/>
      <point x="176" y="653" type="line"/>
      <point x="174" y="655"/>
      <point x="170" y="656"/>
      <point x="166" y="653" type="curve"/>
      <point x="164" y="650"/>
      <point x="164" y="645"/>
      <point x="166" y="642" type="curve"/>
      <point x="240" y="575" type="line"/>
      <point x="141" y="581" type="line"/>
      <point x="137" y="580"/>
      <point x="134" y="577"/>
      <point x="134" y="573" type="curve" smooth="yes"/>
      <point x="134" y="568"/>
      <point x="137" y="566"/>
      <point x="141" y="566" type="curve" smooth="yes"/>
      <point x="240" y="570" type="line"/>
      <point x="166" y="504" type="line"/>
      <point x="164" y="501"/>
      <point x="164" y="496"/>
      <point x="166" y="493" type="curve"/>
      <point x="170" y="490"/>
      <point x="174" y="491"/>
      <point x="176" y="493" type="curve" smooth="yes"/>
      <point x="246" y="570" type="line"/>
    </contour>
  </outline>
</glyph>
<glyph name="two" format="2">
  <advance width="538"/>
  <unicode hex="0032"/>
  <outline>
    <contour>
      <point x="-59" y="2" type="curve"/>
      <point x="-53" y="-2"/>
      <point x="-42" y="-2"/>
      <point x="-33" y="-2" type="curve" smooth="yes"/>
      <point x="-9" y="-2"/>
      <point x="24" y="9"/>
      <point x="64" y="30" type="curve"/>
      <point x="121" y="9"/>
      <point x="174" y="-25"/>
      <point x="267" y="-25" type="curve" smooth="yes"/>
      <point x="316" y="-25"/>
      <point x="367" y="-13"/>
      <point x="404" y="13" type="curve" smooth="yes"/>
      <point x="437" y="36"/>
      <point x="462" y="76"/>
      <point x="459" y="120" type="curve"/>
      <point x="455" y="121" type="line"/>
      <point x="459" y="81"/>
      <point x="431" y="43"/>
      <point x="398" y="20" type="curve" smooth="yes"/>
      <point x="361" y="-6"/>
      <point x="313" y="-21"/>
      <point x="267" y="-21" type="curve" smooth="yes"/>
      <point x="176" y="-21"/>
      <point x="126" y="11"/>
      <point x="69" y="32" type="curve"/>
      <point x="262" y="134"/>
      <point x="589" y="431"/>
      <point x="589" y="563" type="curve" smooth="yes"/>
      <point x="589" y="639"/>
      <point x="525" y="684"/>
      <point x="446" y="684" type="curve" smooth="yes"/>
      <point x="344" y="684"/>
      <point x="224" y="591"/>
      <point x="224" y="486" type="curve" smooth="yes"/>
      <point x="224" y="463"/>
      <point x="236" y="423"/>
      <point x="262" y="421" type="curve"/>
      <point x="264" y="425" type="line"/>
      <point x="238" y="428"/>
      <point x="233" y="458"/>
      <point x="233" y="480" type="curve" smooth="yes"/>
      <point x="233" y="583"/>
      <point x="346" y="680"/>
      <point x="446" y="680" type="curve" smooth="yes"/>
      <point x="517" y="680"/>
      <point x="578" y="647"/>
      <point x="578" y="570" type="curve" smooth="yes"/>
      <point x="578" y="443"/>
      <point x="249" y="137"/>
      <point x="61" y="35" type="curve"/>
      <point x="35" y="44"/>
      <point x="8" y="51"/>
      <point x="-26" y="51" type="curve" smooth="yes"/>
      <point x="-55" y="51"/>
      <point x="-70" y="35"/>
      <point x="-70" y="23" type="curve" smooth="yes"/>
      <point x="-70" y="16"/>
      <point x="-67" y="8"/>
    </contour>
    <contour>
      <point x="-52" y="8" type="curve"/>
      <point x="-55" y="12"/>
      <point x="-56" y="17"/>
      <point x="-56" y="21" type="curve" smooth="yes"/>
      <point x="-56" y="31"/>
      <point x="-43" y="45"/>
      <point x="-16" y="45" type="curve" smooth="yes"/>
      <point x="10" y="45"/>
      <point x="34" y="40"/>
      <point x="56" y="32" type="curve"/>
      <point x="19" y="13"/>
      <point x="-11" y="2"/>
      <point x="-33" y="2" type="curve" smooth="yes"/>
      <point x="-41" y="2"/>
      <point x="-48" y="5"/>
    </contour>
  </outline>
</glyph>
<glyph name="three" format="2">
  <advance width="394"/>
  <unicode hex="0033"/>
  <outline>
    <contour>
      <point x="231" y="297" type="curve"/>
      <point x="238" y="299"/>
      <point x="245" y="301"/>
      <point x="252" y="304" type="curve"/>
      <point x="300" y="274"/>
      <point x="331" y="218"/>
      <point x="331" y="150" type="curve" smooth="yes"/>
      <point x="331" y="-42"/>
      <point x="121" y="-290"/>
      <point x="-141" y="-290" type="curve" smooth="yes"/>
      <point x="-187" y="-290"/>
      <point x="-294" y="-266"/>
      <point x="-288" y="-187" type="curve" smooth="yes"/>
      <point x="-287" y="-179"/>
      <point x="-286" y="-172"/>
      <point x="-277" y="-163" type="curve"/>
      <point x="-281" y="-161" type="line"/>
      <point x="-293" y="-176"/>
      <point x="-294" y="-185"/>
      <point x="-295" y="-202" type="curve" smooth="yes"/>
      <point x="-300" y="-272"/>
      <point x="-186" y="-295"/>
      <point x="-141" y="-295" type="curve" smooth="yes"/>
      <point x="89" y="-295"/>
      <point x="348" y="-83"/>
      <point x="348" y="137" type="curve" smooth="yes"/>
      <point x="348" y="209"/>
      <point x="311" y="272"/>
      <point x="257" y="305" type="curve"/>
      <point x="369" y="349"/>
      <point x="463" y="468"/>
      <point x="470" y="556" type="curve" smooth="yes"/>
      <point x="476" y="642"/>
      <point x="414" y="684"/>
      <point x="336" y="684" type="curve" smooth="yes"/>
      <point x="234" y="684"/>
      <point x="107" y="591"/>
      <point x="99" y="486" type="curve" smooth="yes"/>
      <point x="98" y="463"/>
      <point x="107" y="423"/>
      <point x="133" y="421" type="curve"/>
      <point x="135" y="425" type="line"/>
      <point x="109" y="428"/>
      <point x="106" y="458"/>
      <point x="108" y="480" type="curve" smooth="yes"/>
      <point x="116" y="583"/>
      <point x="236" y="680"/>
      <point x="336" y="680" type="curve" smooth="yes"/>
      <point x="406" y="680"/>
      <point x="459" y="642"/>
      <point x="453" y="560" type="curve" smooth="yes"/>
      <point x="446" y="475"/>
      <point x="362" y="353"/>
      <point x="251" y="309" type="curve"/>
      <point x="226" y="323"/>
      <point x="198" y="331"/>
      <point x="168" y="331" type="curve" smooth="yes"/>
      <point x="138" y="331"/>
      <point x="120" y="320"/>
      <point x="119" y="311" type="curve" smooth="yes"/>
      <point x="118" y="300"/>
      <point x="141" y="290"/>
      <point x="176" y="290" type="curve" smooth="yes"/>
      <point x="194" y="290"/>
      <point x="207" y="292"/>
    </contour>
    <contour>
      <point x="172" y="326" type="curve" smooth="yes"/>
      <point x="199" y="326"/>
      <point x="224" y="319"/>
      <point x="246" y="307" type="curve"/>
      <point x="238" y="304"/>
      <point x="229" y="302"/>
      <point x="221" y="300" type="curve" smooth="yes"/>
      <point x="197" y="295"/>
      <point x="187" y="294"/>
      <point x="176" y="294" type="curve" smooth="yes"/>
      <point x="146" y="294"/>
      <point x="133" y="303"/>
      <point x="133" y="312" type="curve"/>
      <point x="134" y="319"/>
      <point x="150" y="326"/>
    </contour>
  </outline>
</glyph>
<glyph name="five" format="2">
  <advance width="394"/>
  <unicode hex="0035"/>
  <outline>
    <contour>
      <point x="134" y="395" type="line"/>
      <point x="138" y="402"/>
      <point x="155" y="407"/>
      <point x="178" y="409" type="curve" smooth="yes"/>
      <point x="301" y="418"/>
      <point x="360" y="309"/>
      <point x="351" y="193" type="curve" smooth="yes"/>
      <point x="335" y="-16"/>
      <point x="111" y="-287"/>
      <point x="-187" y="-287" type="curve" smooth="yes"/>
      <point x="-239" y="-287"/>
      <point x="-360" y="-260"/>
      <point x="-353" y="-170" type="curve" smooth="yes"/>
      <point x="-352" y="-162"/>
      <point x="-351" y="-154"/>
      <point x="-341" y="-144" type="curve"/>
      <point x="-345" y="-142" type="line"/>
      <point x="-359" y="-159"/>
      <point x="-360" y="-169"/>
      <point x="-361" y="-187" type="curve" smooth="yes"/>
      <point x="-367" y="-267"/>
      <point x="-238" y="-293"/>
      <point x="-187" y="-293" type="curve" smooth="yes"/>
      <point x="119" y="-293"/>
      <point x="351" y="-26"/>
      <point x="366" y="179" type="curve" smooth="yes"/>
      <point x="375" y="304"/>
      <point x="305" y="426"/>
      <point x="173" y="415" type="curve" smooth="yes"/>
      <point x="161" y="414"/>
      <point x="152" y="412"/>
      <point x="145" y="409" type="curve"/>
      <point x="186" y="458"/>
      <point x="221" y="555"/>
      <point x="237" y="630" type="curve"/>
      <point x="244" y="641"/>
      <point x="260" y="651"/>
      <point x="276" y="651" type="curve" smooth="yes"/>
      <point x="308" y="651"/>
      <point x="352" y="625"/>
      <point x="386" y="625" type="curve" smooth="yes"/>
      <point x="410" y="625"/>
      <point x="452" y="633"/>
      <point x="461" y="667" type="curve"/>
      <point x="459" y="669" type="line"/>
      <point x="446" y="638"/>
      <point x="423" y="634"/>
      <point x="399" y="634" type="curve" smooth="yes"/>
      <point x="365" y="634"/>
      <point x="323" y="659"/>
      <point x="291" y="659" type="curve" smooth="yes"/>
      <point x="269" y="659"/>
      <point x="249" y="649"/>
      <point x="238" y="638" type="curve"/>
      <point x="242" y="658"/>
      <point x="245" y="676"/>
      <point x="246" y="691" type="curve"/>
      <point x="242" y="691" type="line"/>
      <point x="241" y="674"/>
      <point x="238" y="654"/>
      <point x="233" y="631" type="curve"/>
      <point x="233" y="630" type="line"/>
      <point x="216" y="554"/>
      <point x="178" y="453"/>
      <point x="134" y="404" type="curve"/>
      <point x="128" y="400"/>
      <point x="125" y="396"/>
      <point x="124" y="392" type="curve"/>
      <point x="124" y="391" type="line"/>
    </contour>
  </outline>
</glyph>
<glyph name="six" format="2">
  <advance width="578"/>
  <unicode hex="0036"/>
  <outline>
    <contour>
      <point x="729" y="832" type="line"/>
      <point x="669" y="849"/>
      <point x="549" y="813"/>
      <point x="447" y="747" type="curve" smooth="yes"/>
      <point x="241" y="616"/>
      <point x="26" y="375"/>
      <point x="26" y="135" type="curve" smooth="yes"/>
      <point x="26" y="51"/>
      <point x="58" y="-36"/>
      <point x="181" y="-36" type="curve" smooth="yes"/>
      <point x="335" y="-36"/>
      <point x="553" y="157"/>
      <point x="553" y="352" type="curve" smooth="yes"/>
      <point x="553" y="445"/>
      <point x="497" y="507"/>
      <point x="419" y="507" type="curve" smooth="yes"/>
      <point x="314" y="507"/>
      <point x="229" y="440"/>
      <point x="169" y="348" type="curve" smooth="yes"/>
      <point x="147" y="313"/>
      <point x="125" y="270"/>
      <point x="115" y="230" type="curve"/>
      <point x="119" y="228" type="line"/>
      <point x="130" y="271"/>
      <point x="154" y="316"/>
      <point x="174" y="348" type="curve" smooth="yes"/>
      <point x="267" y="492"/>
      <point x="382" y="502"/>
      <point x="415" y="502" type="curve" smooth="yes"/>
      <point x="487" y="502"/>
      <point x="540" y="455"/>
      <point x="540" y="369" type="curve" smooth="yes"/>
      <point x="540" y="210"/>
      <point x="372" y="-31"/>
      <point x="181" y="-31" type="curve" smooth="yes"/>
      <point x="70" y="-31"/>
      <point x="40" y="52"/>
      <point x="40" y="133" type="curve" smooth="yes"/>
      <point x="40" y="376"/>
      <point x="261" y="620"/>
      <point x="448" y="743" type="curve" smooth="yes"/>
      <point x="533" y="798"/>
      <point x="651" y="841"/>
      <point x="729" y="824" type="curve"/>
    </contour>
  </outline>
</glyph>
<glyph name="seven" format="2">
  <advance width="302"/>
  <unicode hex="0037"/>
  <outline>
    <contour>
      <point x="430" y="633" type="curve" smooth="yes"/>
      <point x="436" y="636"/>
      <point x="450" y="643"/>
      <point x="451" y="650" type="curve" smooth="yes"/>
      <point x="452" y="658"/>
      <point x="444" y="663"/>
      <point x="434" y="663" type="curve" smooth="yes"/>
      <point x="420" y="663"/>
      <point x="401" y="652"/>
      <point x="378" y="633" type="curve"/>
      <point x="331" y="641"/>
      <point x="291" y="671"/>
      <point x="242" y="671" type="curve" smooth="yes"/>
      <point x="214" y="671"/>
      <point x="188" y="657"/>
      <point x="178" y="644" type="curve"/>
      <point x="182" y="642" type="line"/>
      <point x="190" y="653"/>
      <point x="207" y="663"/>
      <point x="226" y="663" type="curve" smooth="yes"/>
      <point x="273" y="663"/>
      <point x="320" y="632"/>
      <point x="369" y="625" type="curve"/>
      <point x="260" y="528"/>
      <point x="76" y="258"/>
      <point x="-20" y="1" type="curve"/>
      <point x="-2" y="1" type="line"/>
      <point x="96" y="264"/>
      <point x="272" y="536"/>
      <point x="373" y="625" type="curve"/>
      <point x="378" y="624"/>
      <point x="383" y="624"/>
      <point x="388" y="624" type="curve" smooth="yes"/>
      <point x="398" y="624"/>
      <point x="416" y="626"/>
    </contour>
    <contour>
      <point x="427" y="635" type="curve" smooth="yes"/>
      <point x="419" y="632"/>
      <point x="408" y="632"/>
      <point x="400" y="632" type="curve" smooth="yes"/>
      <point x="394" y="632"/>
      <point x="388" y="632"/>
      <point x="383" y="633" type="curve"/>
      <point x="400" y="647"/>
      <point x="415" y="655"/>
      <point x="427" y="655" type="curve" smooth="yes"/>
      <point x="435" y="655"/>
      <point x="440" y="651"/>
      <point x="439" y="645" type="curve"/>
      <point x="438" y="641"/>
      <point x="434" y="638"/>
    </contour>
  </outline>
</glyph>
<glyph name="C" format="2">
  <advance width="751"/>
  <unicode hex="0043"/>
  <outline>
    <contour>
      <point x="911" y="714" type="curve" smooth="yes"/>
      <point x="914" y="621"/>
      <point x="831" y="495"/>
      <point x="690" y="495" type="curve" smooth="yes"/>
      <point x="585" y="495"/>
      <point x="538" y="566"/>
      <point x="536" y="626" type="curve" smooth="yes"/>
      <point x="534" y="689"/>
      <point x="582" y="769"/>
      <point x="671" y="769" type="curve" smooth="yes"/>
      <point x="740" y="769"/>
      <point x="777" y="721"/>
      <point x="778" y="685" type="curve" smooth="yes"/>
      <point x="779" y="665"/>
      <point x="770" y="632"/>
      <point x="741" y="618" type="curve"/>
      <point x="742" y="615" type="line"/>
      <point x="773" y="629"/>
      <point x="782" y="664"/>
      <point x="781" y="685" type="curve" smooth="yes"/>
      <point x="780" y="722"/>
      <point x="742" y="772"/>
      <point x="670" y="772" type="curve" smooth="yes"/>
      <point x="577" y="772"/>
      <point x="522" y="694"/>
      <point x="524" y="630" type="curve" smooth="yes"/>
      <point x="525" y="574"/>
      <point x="572" y="491"/>
      <point x="692" y="491" type="curve" smooth="yes"/>
      <point x="835" y="491"/>
      <point x="927" y="612"/>
      <point x="925" y="704" type="curve" smooth="yes"/>
      <point x="922" y="787"/>
      <point x="854" y="907"/>
      <point x="655" y="907" type="curve" smooth="yes"/>
      <point x="280" y="907"/>
      <point x="-46" y="475"/>
      <point x="-37" y="180" type="curve" smooth="yes"/>
      <point x="-32" y="29"/>
      <point x="55" y="-134"/>
      <point x="253" y="-134" type="curve" smooth="yes"/>
      <point x="477" y="-134"/>
      <point x="651" y="67"/>
      <point x="651" y="231" type="curve" smooth="yes"/>
      <point x="651" y="353"/>
      <point x="555" y="435"/>
      <point x="444" y="435" type="curve" smooth="yes"/>
      <point x="301" y="435"/>
      <point x="159" y="327"/>
      <point x="163" y="181" type="curve" smooth="yes"/>
      <point x="166" y="84"/>
      <point x="232" y="32"/>
      <point x="305" y="32" type="curve" smooth="yes"/>
      <point x="389" y="32"/>
      <point x="473" y="103"/>
      <point x="470" y="174" type="curve" smooth="yes"/>
      <point x="470" y="195"/>
      <point x="462" y="209"/>
      <point x="450" y="222" type="curve"/>
      <point x="448" y="221" type="line"/>
      <point x="456" y="208"/>
      <point x="463" y="194"/>
      <point x="463" y="176" type="curve" smooth="yes"/>
      <point x="465" y="109"/>
      <point x="389" y="36"/>
      <point x="308" y="36" type="curve" smooth="yes"/>
      <point x="250" y="36"/>
      <point x="182" y="73"/>
      <point x="178" y="178" type="curve" smooth="yes"/>
      <point x="174" y="320"/>
      <point x="296" y="431"/>
      <point x="442" y="431" type="curve" smooth="yes"/>
      <point x="561" y="431"/>
      <point x="636" y="342"/>
      <point x="636" y="237" type="curve" smooth="yes"/>
      <point x="636" y="70"/>
      <point x="459" y="-129"/>
      <point x="252" y="-129" type="curve" smooth="yes"/>
      <point x="83" y="-129"/>
      <point x="-16" y="3"/>
      <point x="-21" y="163" type="curve" smooth="yes"/>
      <point x="-30" y="452"/>
      <point x="284" y="903"/>
      <point x="655" y="903" type="curve" smooth="yes"/>
      <point x="817" y="903"/>
      <point x="908" y="816"/>
    </contour>
  </outline>
</glyph>
<glyph name="Q" format="2">
  <advance width="1015"/>
  <unicode hex="0051"/>
  <outline>
    <contour>
      <point x="337" y="497" type="line"/>
      <point x="323" y="517"/>
      <point x="318" y="541"/>
      <point x="321" y="564" type="curve" smooth="yes"/>
      <point x="328" y="645"/>
      <point x="414" y="720"/>
      <point x="509" y="720" type="curve" smooth="yes"/>
      <point x="591" y="720"/>
      <point x="663" y="664"/>
      <point x="652" y="541" type="curve" smooth="yes"/>
      <point x="637" y="373"/>
      <point x="483" y="237"/>
      <point x="309" y="237" type="curve" smooth="yes"/>
      <point x="152" y="237"/>
      <point x="99" y="366"/>
      <point x="104" y="475" type="curve" smooth="yes"/>
      <point x="115" y="678"/>
      <point x="339" y="927"/>
      <point x="608" y="927" type="curve" smooth="yes"/>
      <point x="836" y="927"/>
      <point x="943" y="761"/>
      <point x="933" y="559" type="curve" smooth="yes"/>
      <point x="917" y="238"/>
      <point x="579" y="-87"/>
      <point x="266" y="-93" type="curve"/>
      <point x="241" y="-77" type="line" smooth="yes"/>
      <point x="131" y="-6"/>
      <point x="31" y="66"/>
      <point x="-87" y="66" type="curve" smooth="yes"/>
      <point x="-112" y="66"/>
      <point x="-126" y="50"/>
      <point x="-126" y="32" type="curve" smooth="yes"/>
      <point x="-126" y="-8"/>
      <point x="-21" y="-97"/>
      <point x="260" y="-97" type="curve" smooth="yes"/>
      <point x="263" y="-97" type="line"/>
      <point x="373" y="-164"/>
      <point x="511" y="-240"/>
      <point x="648" y="-240" type="curve" smooth="yes"/>
      <point x="834" y="-240"/>
      <point x="940" y="-119"/>
      <point x="916" y="-33" type="curve"/>
      <point x="912" y="-35" type="line"/>
      <point x="935" y="-119"/>
      <point x="806" y="-224"/>
      <point x="624" y="-224" type="curve" smooth="yes"/>
      <point x="488" y="-224"/>
      <point x="378" y="-163"/>
      <point x="272" y="-97" type="curve"/>
      <point x="581" y="-89"/>
      <point x="934" y="214"/>
      <point x="950" y="539" type="curve" smooth="yes"/>
      <point x="961" y="743"/>
      <point x="849" y="937"/>
      <point x="599" y="937" type="curve" smooth="yes"/>
      <point x="327" y="937"/>
      <point x="105" y="694"/>
      <point x="95" y="490" type="curve" smooth="yes"/>
      <point x="88" y="372"/>
      <point x="150" y="233"/>
      <point x="308" y="233" type="curve" smooth="yes"/>
      <point x="487" y="233"/>
      <point x="652" y="372"/>
      <point x="667" y="540" type="curve" smooth="yes"/>
      <point x="677" y="662"/>
      <point x="602" y="724"/>
      <point x="512" y="724" type="curve" smooth="yes"/>
      <point x="411" y="724"/>
      <point x="318" y="647"/>
      <point x="311" y="564" type="curve"/>
      <point x="307" y="537"/>
      <point x="316" y="515"/>
      <point x="334" y="494" type="curve"/>
    </contour>
    <contour>
      <point x="-83" y="54" type="curve" smooth="yes"/>
      <point x="19" y="54"/>
      <point x="140" y="-19"/>
      <point x="239" y="-81" type="curve" smooth="yes"/>
      <point x="257" y="-93" type="line"/>
      <point x="-19" y="-92"/>
      <point x="-122" y="-6"/>
      <point x="-122" y="32" type="curve" smooth="yes"/>
      <point x="-122" y="48"/>
      <point x="-103" y="54"/>
    </contour>
  </outline>
</glyph>
<glyph name="X" format="2">
  <advance width="926"/>
  <unicode hex="0058"/>
  <outline>
    <contour>
      <point x="509" y="376" type="line"/>
      <point x="647" y="376" type="line"/>
      <point x="543" y="147"/>
      <point x="328" y="-78"/>
      <point x="68" y="-78" type="curve" smooth="yes"/>
      <point x="-25" y="-78"/>
      <point x="-83" y="-20"/>
      <point x="-83" y="36" type="curve" smooth="yes"/>
      <point x="-83" y="59"/>
      <point x="-73" y="82"/>
      <point x="-53" y="100" type="curve"/>
      <point x="-55" y="102" type="line"/>
      <point x="-77" y="82"/>
      <point x="-87" y="59"/>
      <point x="-87" y="36" type="curve" smooth="yes"/>
      <point x="-87" y="-22"/>
      <point x="-27" y="-82"/>
      <point x="68" y="-82" type="curve" smooth="yes"/>
      <point x="315" y="-82"/>
      <point x="517" y="98"/>
      <point x="631" y="298" type="curve"/>
      <point x="624" y="270"/>
      <point x="619" y="242"/>
      <point x="616" y="216" type="curve" smooth="yes"/>
      <point x="589" y="-28"/>
      <point x="690" y="-226"/>
      <point x="891" y="-226" type="curve" smooth="yes"/>
      <point x="950" y="-226"/>
      <point x="1023" y="-182"/>
      <point x="1018" y="-140" type="curve"/>
      <point x="1014" y="-140" type="line"/>
      <point x="1019" y="-180"/>
      <point x="948" y="-222"/>
      <point x="891" y="-222" type="curve" smooth="yes"/>
      <point x="716" y="-222"/>
      <point x="609" y="-50"/>
      <point x="632" y="199" type="curve" smooth="yes"/>
      <point x="637" y="254"/>
      <point x="651" y="314"/>
      <point x="674" y="376" type="curve"/>
      <point x="837" y="376" type="line"/>
      <point x="837" y="380" type="line"/>
      <point x="675" y="380" type="line"/>
      <point x="770" y="636"/>
      <point x="1006" y="913"/>
      <point x="1297" y="913" type="curve" smooth="yes"/>
      <point x="1382" y="913"/>
      <point x="1460" y="874"/>
      <point x="1460" y="794" type="curve" smooth="yes"/>
      <point x="1460" y="756"/>
      <point x="1441" y="705"/>
      <point x="1400" y="694" type="curve"/>
      <point x="1401" y="691" type="line"/>
      <point x="1444" y="702"/>
      <point x="1472" y="752"/>
      <point x="1472" y="790" type="curve" smooth="yes"/>
      <point x="1472" y="881"/>
      <point x="1374" y="917"/>
      <point x="1297" y="917" type="curve" smooth="yes"/>
      <point x="1042" y="917"/>
      <point x="836" y="726"/>
      <point x="719" y="516" type="curve"/>
      <point x="726" y="545"/>
      <point x="731" y="572"/>
      <point x="733" y="599" type="curve" smooth="yes"/>
      <point x="742" y="773"/>
      <point x="665" y="948"/>
      <point x="470" y="949" type="curve" smooth="yes"/>
      <point x="299" y="950"/>
      <point x="130" y="827"/>
      <point x="119" y="648" type="curve" smooth="yes"/>
      <point x="114" y="559"/>
      <point x="160" y="463"/>
      <point x="274" y="460" type="curve" smooth="yes"/>
      <point x="392" y="460"/>
      <point x="513" y="559"/>
      <point x="520" y="677" type="curve" smooth="yes"/>
      <point x="525" y="755"/>
      <point x="470" y="797"/>
      <point x="406" y="797" type="curve" smooth="yes"/>
      <point x="328" y="797"/>
      <point x="249" y="732"/>
      <point x="245" y="667" type="curve" smooth="yes"/>
      <point x="244" y="651"/>
      <point x="251" y="640"/>
      <point x="259" y="626" type="curve"/>
      <point x="263" y="628" type="line"/>
      <point x="256" y="640"/>
      <point x="253" y="651"/>
      <point x="254" y="664" type="curve" smooth="yes"/>
      <point x="258" y="729"/>
      <point x="328" y="792"/>
      <point x="405" y="792" type="curve" smooth="yes"/>
      <point x="461" y="792"/>
      <point x="508" y="758"/>
      <point x="503" y="682" type="curve" smooth="yes"/>
      <point x="496" y="564"/>
      <point x="388" y="468"/>
      <point x="282" y="463" type="curve" smooth="yes"/>
      <point x="167" y="463"/>
      <point x="127" y="552"/>
      <point x="132" y="635" type="curve" smooth="yes"/>
      <point x="141" y="773"/>
      <point x="250" y="946"/>
      <point x="470" y="944" type="curve" smooth="yes"/>
      <point x="636" y="943"/>
      <point x="726" y="791"/>
      <point x="713" y="616" type="curve" smooth="yes"/>
      <point x="707" y="543"/>
      <point x="685" y="461"/>
      <point x="649" y="380" type="curve"/>
      <point x="509" y="380" type="line"/>
    </contour>
  </outline>
</glyph>
<glyph name="q" format="2">
  <advance width="446"/>
  <unicode hex="0071"/>
  <outline>
    <contour>
      <point x="261" y="558" type="curve" smooth="yes"/>
      <point x="310" y="558"/>
      <point x="324" y="524"/>
      <point x="318" y="485" type="curve" smooth="yes"/>
      <point x="313" y="449"/>
      <point x="293" y="408"/>
      <point x="266" y="382" type="curve"/>
      <point x="267" y="379" type="line"/>
      <point x="297" y="407"/>
      <point x="321" y="449"/>
      <point x="326" y="485" type="curve" smooth="yes"/>
      <point x="332" y="527"/>
      <point x="312" y="563"/>
      <point x="261" y="563" type="curve" smooth="yes"/>
      <point x="183" y="563"/>
      <point x="65" y="438"/>
      <point x="-1" y="280" type="curve" smooth="yes"/>
      <point x="-21" y="227"/>
      <point x="-36" y="181"/>
      <point x="-43" y="131" type="curve" smooth="yes"/>
      <point x="-54" y="46"/>
      <point x="-28" y="-12"/>
      <point x="18" y="-12" type="curve" smooth="yes"/>
      <point x="61" y="-12"/>
      <point x="131" y="42"/>
      <point x="181" y="117" type="curve"/>
      <point x="50" y="-161" type="line"/>
      <point x="28" y="-168"/>
      <point x="5" y="-172"/>
      <point x="-16" y="-172" type="curve"/>
      <point x="-14" y="-176" type="line"/>
      <point x="6" y="-176"/>
      <point x="27" y="-173"/>
      <point x="47" y="-167" type="curve"/>
      <point x="-60" y="-396" type="line"/>
      <point x="-42" y="-396" type="line"/>
      <point x="68" y="-160" type="line"/>
      <point x="214" y="-106"/>
      <point x="358" y="79"/>
      <point x="449" y="280" type="curve"/>
      <point x="446" y="282" type="line"/>
      <point x="359" y="93"/>
      <point x="215" y="-95"/>
      <point x="71" y="-153" type="curve"/>
      <point x="404" y="556" type="line"/>
      <point x="387" y="556" type="line"/>
      <point x="207" y="173" type="line" smooth="yes"/>
      <point x="149" y="64"/>
      <point x="69" y="-6"/>
      <point x="20" y="-6" type="curve" smooth="yes"/>
      <point x="-23" y="-6"/>
      <point x="-37" y="45"/>
      <point x="-27" y="123" type="curve" smooth="yes"/>
      <point x="-20" y="174"/>
      <point x="-8" y="220"/>
      <point x="14" y="275" type="curve" smooth="yes"/>
      <point x="82" y="430"/>
      <point x="192" y="558"/>
    </contour>
  </outline>
</glyph>
<glyph name="v" format="2">
  <advance width="541"/>
  <unicode hex="0076"/>
  <outline>
    <contour>
      <point x="228" y="565" type="curve" smooth="yes"/>
      <point x="158" y="565"/>
      <point x="62" y="416"/>
      <point x="0" y="282" type="curve"/>
      <point x="3" y="280" type="line"/>
      <point x="63" y="408"/>
      <point x="160" y="560"/>
      <point x="228" y="560" type="curve" smooth="yes"/>
      <point x="250" y="560"/>
      <point x="278" y="548"/>
      <point x="271" y="493" type="curve" smooth="yes"/>
      <point x="263" y="423"/>
      <point x="215" y="371"/>
      <point x="175" y="306" type="curve" smooth="yes"/>
      <point x="130" y="235"/>
      <point x="95" y="167"/>
      <point x="86" y="92" type="curve" smooth="yes"/>
      <point x="81" y="43"/>
      <point x="102" y="0"/>
      <point x="138" y="0" type="curve" smooth="yes"/>
      <point x="205" y="0"/>
      <point x="285" y="75"/>
      <point x="353" y="178" type="curve"/>
      <point x="363" y="173"/>
      <point x="375" y="171"/>
      <point x="389" y="171" type="curve" smooth="yes"/>
      <point x="429" y="171"/>
      <point x="502" y="214"/>
      <point x="544" y="280" type="curve"/>
      <point x="541" y="282" type="line"/>
      <point x="501" y="219"/>
      <point x="429" y="175"/>
      <point x="392" y="175" type="curve" smooth="yes"/>
      <point x="377" y="175"/>
      <point x="366" y="177"/>
      <point x="356" y="182" type="curve"/>
      <point x="398" y="245"/>
      <point x="435" y="319"/>
      <point x="463" y="392" type="curve" smooth="yes"/>
      <point x="491" y="461"/>
      <point x="495" y="548"/>
      <point x="455" y="548" type="curve" smooth="yes"/>
      <point x="403" y="548"/>
      <point x="320" y="414"/>
      <point x="308" y="305" type="curve" smooth="yes"/>
      <point x="303" y="258"/>
      <point x="309" y="209"/>
      <point x="340" y="185" type="curve"/>
      <point x="271" y="72"/>
      <point x="202" y="5"/>
      <point x="139" y="5" type="curve" smooth="yes"/>
      <point x="110" y="5"/>
      <point x="88" y="39"/>
      <point x="94" y="86" type="curve" smooth="yes"/>
      <point x="103" y="164"/>
      <point x="147" y="227"/>
      <point x="193" y="299" type="curve" smooth="yes"/>
      <point x="232" y="358"/>
      <point x="271" y="434"/>
      <point x="278" y="490" type="curve" smooth="yes"/>
      <point x="285" y="545"/>
      <point x="252" y="565"/>
    </contour>
    <contour>
      <point x="439" y="377" type="curve" smooth="yes"/>
      <point x="407" y="306"/>
      <point x="375" y="243"/>
      <point x="343" y="190" type="curve"/>
      <point x="315" y="213"/>
      <point x="310" y="258"/>
      <point x="314" y="301" type="curve" smooth="yes"/>
      <point x="326" y="412"/>
      <point x="408" y="543"/>
      <point x="455" y="543" type="curve" smooth="yes"/>
      <point x="492" y="543"/>
      <point x="474" y="459"/>
    </contour>
  </outline>
</glyph>
<glyph name="z" format="2">
  <advance width="431"/>
  <unicode hex="007A"/>
  <outline>
    <contour>
      <point x="3" y="280" type="line"/>
      <point x="28" y="338"/>
      <point x="111" y="492"/>
      <point x="140" y="572" type="curve"/>
      <point x="144" y="528"/>
      <point x="207" y="501"/>
      <point x="302" y="501" type="curve" smooth="yes"/>
      <point x="313" y="501"/>
      <point x="330" y="503"/>
      <point x="349" y="506" type="curve"/>
      <point x="172" y="326" type="line"/>
      <point x="47" y="326" type="line"/>
      <point x="47" y="322" type="line"/>
      <point x="168" y="322" type="line"/>
      <point x="-65" y="85" type="line"/>
      <point x="-97" y="59"/>
      <point x="-128" y="25"/>
      <point x="-151" y="-2" type="curve" smooth="yes"/>
      <point x="-161" y="-13" type="line"/>
      <point x="-155" y="-13" type="line"/>
      <point x="-54" y="89" type="line"/>
      <point x="-28" y="108"/>
      <point x="-2" y="121"/>
      <point x="21" y="121" type="curve" smooth="yes"/>
      <point x="44" y="121"/>
      <point x="57" y="92"/>
      <point x="77" y="64" type="curve" smooth="yes"/>
      <point x="99" y="32"/>
      <point x="128" y="0"/>
      <point x="170" y="0" type="curve" smooth="yes"/>
      <point x="264" y="0"/>
      <point x="373" y="146"/>
      <point x="434" y="280" type="curve"/>
      <point x="431" y="282" type="line"/>
      <point x="372" y="155"/>
      <point x="265" y="11"/>
      <point x="177" y="11" type="curve" smooth="yes"/>
      <point x="99" y="11"/>
      <point x="98" y="127"/>
      <point x="28" y="127" type="curve" smooth="yes"/>
      <point x="5" y="127"/>
      <point x="-19" y="116"/>
      <point x="-43" y="101" type="curve"/>
      <point x="173" y="322" type="line"/>
      <point x="302" y="322" type="line"/>
      <point x="302" y="326" type="line"/>
      <point x="177" y="326" type="line"/>
      <point x="355" y="508" type="line"/>
      <point x="412" y="520"/>
      <point x="483" y="547"/>
      <point x="483" y="587" type="curve" smooth="yes"/>
      <point x="483" y="599"/>
      <point x="476" y="608"/>
      <point x="466" y="608" type="curve" smooth="yes"/>
      <point x="458" y="608"/>
      <point x="445" y="604"/>
      <point x="430" y="589" type="curve" smooth="yes"/>
      <point x="366" y="524" type="line"/>
      <point x="338" y="516"/>
      <point x="311" y="512"/>
      <point x="295" y="512" type="curve" smooth="yes"/>
      <point x="201" y="512"/>
      <point x="136" y="533"/>
      <point x="145" y="585" type="curve"/>
      <point x="158" y="627"/>
      <point x="122" y="621"/>
      <point x="138" y="579" type="curve"/>
      <point x="111" y="501"/>
      <point x="26" y="341"/>
      <point x="0" y="282" type="curve"/>
    </contour>
    <contour>
      <point x="432" y="586" type="line" smooth="yes"/>
      <point x="454" y="609"/>
      <point x="474" y="608"/>
      <point x="473" y="597" type="curve"/>
      <point x="473" y="565"/>
      <point x="422" y="540"/>
      <point x="373" y="526" type="curve"/>
    </contour>
  </outline>
</glyph>
<glyph name="sterling" format="2">
  <advance width="642"/>
  <unicode hex="00A3"/>
  <outline>
    <contour>
      <point x="133" y="273" type="line"/>
      <point x="287" y="273" type="line"/>
      <point x="239" y="181"/>
      <point x="162" y="81"/>
      <point x="56" y="49" type="curve"/>
      <point x="34" y="55"/>
      <point x="8" y="61"/>
      <point x="-23" y="61" type="curve" smooth="yes"/>
      <point x="-70" y="61"/>
      <point x="-64" y="35"/>
      <point x="-15" y="35" type="curve" smooth="yes"/>
      <point x="10" y="35"/>
      <point x="33" y="37"/>
      <point x="54" y="42" type="curve"/>
      <point x="104" y="24"/>
      <point x="156" y="-7"/>
      <point x="201" y="-35" type="curve" smooth="yes"/>
      <point x="277" y="-83"/>
      <point x="377" y="-142"/>
      <point x="475" y="-142" type="curve" smooth="yes"/>
      <point x="600" y="-142"/>
      <point x="671" y="-61"/>
      <point x="655" y="-3" type="curve"/>
      <point x="652" y="-4" type="line"/>
      <point x="667" y="-61"/>
      <point x="581" y="-131"/>
      <point x="459" y="-131" type="curve" smooth="yes"/>
      <point x="359" y="-131"/>
      <point x="280" y="-80"/>
      <point x="203" y="-31" type="curve" smooth="yes"/>
      <point x="156" y="-2"/>
      <point x="119" y="27"/>
      <point x="69" y="45" type="curve"/>
      <point x="183" y="75"/>
      <point x="250" y="167"/>
      <point x="306" y="273" type="curve"/>
      <point x="461" y="273" type="line"/>
      <point x="461" y="278" type="line"/>
      <point x="309" y="278" type="line"/>
      <point x="371" y="398"/>
      <point x="485" y="673"/>
      <point x="637" y="673" type="curve" smooth="yes"/>
      <point x="690" y="673"/>
      <point x="719" y="632"/>
      <point x="719" y="601" type="curve" smooth="yes"/>
      <point x="719" y="565"/>
      <point x="693" y="514"/>
      <point x="643" y="514" type="curve" smooth="yes"/>
      <point x="634" y="514"/>
      <point x="626" y="515"/>
      <point x="619" y="520" type="curve"/>
      <point x="618" y="516" type="line"/>
      <point x="628" y="512"/>
      <point x="637" y="510"/>
      <point x="647" y="510" type="curve" smooth="yes"/>
      <point x="695" y="510"/>
      <point x="731" y="562"/>
      <point x="731" y="599" type="curve" smooth="yes"/>
      <point x="731" y="633"/>
      <point x="698" y="676"/>
      <point x="644" y="676" type="curve" smooth="yes"/>
      <point x="474" y="676"/>
      <point x="351" y="397"/>
      <point x="290" y="278" type="curve"/>
      <point x="133" y="278" type="line"/>
    </contour>
    <contour>
      <point x="-15" y="38" type="curve" smooth="yes"/>
      <point x="-42" y="38"/>
      <point x="-38" y="55"/>
      <point x="-15" y="55" type="curve" smooth="yes"/>
      <point x="4" y="55"/>
      <point x="23" y="51"/>
      <point x="43" y="45" type="curve"/>
      <point x="25" y="40"/>
      <point x="5" y="38"/>
    </contour>
  </outline>
</glyph>
<glyph name="twosuperior" format="2">
  <advance width="538"/>
  <unicode hex="00B2"/>
  <outline>
    <contour>
      <point x="60" y="292" type="curve"/>
      <point x="65" y="291"/>
      <point x="69" y="290"/>
      <point x="79" y="290" type="curve" smooth="yes"/>
      <point x="93" y="290"/>
      <point x="114" y="297"/>
      <point x="138" y="309" type="curve"/>
      <point x="169" y="297"/>
      <point x="199" y="279"/>
      <point x="251" y="279" type="curve" smooth="yes"/>
      <point x="279" y="279"/>
      <point x="308" y="285"/>
      <point x="329" y="300" type="curve" smooth="yes"/>
      <point x="348" y="313"/>
      <point x="362" y="336"/>
      <point x="361" y="361" type="curve"/>
      <point x="358" y="362" type="line"/>
      <point x="361" y="342"/>
      <point x="343" y="323"/>
      <point x="322" y="310" type="curve"/>
      <point x="301" y="295"/>
      <point x="273" y="287"/>
      <point x="247" y="287" type="curve" smooth="yes"/>
      <point x="200" y="287"/>
      <point x="172" y="301"/>
      <point x="143" y="312" type="curve"/>
      <point x="255" y="372"/>
      <point x="439" y="537"/>
      <point x="439" y="611" type="curve" smooth="yes"/>
      <point x="439" y="656"/>
      <point x="400" y="684"/>
      <point x="353" y="684" type="curve" smooth="yes"/>
      <point x="293" y="684"/>
      <point x="222" y="631"/>
      <point x="222" y="571" type="curve" smooth="yes"/>
      <point x="222" y="558"/>
      <point x="231" y="535"/>
      <point x="248" y="534" type="curve"/>
      <point x="249" y="536" type="line"/>
      <point x="234" y="538"/>
      <point x="231" y="555"/>
      <point x="231" y="567" type="curve" smooth="yes"/>
      <point x="231" y="625"/>
      <point x="296" y="680"/>
      <point x="353" y="680" type="curve" smooth="yes"/>
      <point x="394" y="680"/>
      <point x="429" y="662"/>
      <point x="429" y="619" type="curve" smooth="yes"/>
      <point x="429" y="547"/>
      <point x="244" y="374"/>
      <point x="136" y="314" type="curve"/>
      <point x="120" y="320"/>
      <point x="103" y="324"/>
      <point x="83" y="324" type="curve" smooth="yes"/>
      <point x="63" y="324"/>
      <point x="50" y="314"/>
      <point x="50" y="306" type="curve" smooth="yes"/>
      <point x="50" y="301"/>
      <point x="54" y="295"/>
    </contour>
    <contour>
      <point x="68" y="297" type="curve"/>
      <point x="66" y="300"/>
      <point x="66" y="303"/>
      <point x="66" y="305" type="curve" smooth="yes"/>
      <point x="66" y="311"/>
      <point x="74" y="319"/>
      <point x="89" y="319" type="curve" smooth="yes"/>
      <point x="104" y="319"/>
      <point x="118" y="316"/>
      <point x="131" y="312" type="curve"/>
      <point x="109" y="300"/>
      <point x="91" y="294"/>
      <point x="79" y="294" type="curve" smooth="yes"/>
      <point x="75" y="294"/>
      <point x="71" y="296"/>
    </contour>
  </outline>
</glyph>
<glyph name="ordmasculine" format="2">
  <advance width="420"/>
  <unicode hex="00BA"/>
  <outline>
    <contour>
      <point x="76" y="373" type="curve" smooth="yes"/>
      <point x="76" y="327"/>
      <point x="94" y="296"/>
      <point x="126" y="295" type="curve" smooth="yes"/>
      <point x="192" y="295"/>
      <point x="327" y="450"/>
      <point x="327" y="601" type="curve" smooth="yes"/>
      <point x="327" y="650"/>
      <point x="309" y="684"/>
      <point x="277" y="684" type="curve" smooth="yes"/>
      <point x="207" y="684"/>
      <point x="76" y="525"/>
    </contour>
    <contour>
      <point x="278" y="680" type="curve" smooth="yes"/>
      <point x="302" y="680"/>
      <point x="313" y="655"/>
      <point x="313" y="617" type="curve" smooth="yes"/>
      <point x="313" y="470"/>
      <point x="188" y="299"/>
      <point x="126" y="299" type="curve"/>
      <point x="101" y="301"/>
      <point x="88" y="325"/>
      <point x="88" y="363" type="curve" smooth="yes"/>
      <point x="88" y="508"/>
      <point x="216" y="680"/>
    </contour>
  </outline>
</glyph>
<glyph name="germandbls" format="2">
  <advance width="403"/>
  <unicode hex="00DF"/>
  <outline>
    <contour>
      <point x="183" y="643" type="line" smooth="yes"/>
      <point x="256" y="796"/>
      <point x="362" y="931"/>
      <point x="455" y="931" type="curve" smooth="yes"/>
      <point x="507" y="931"/>
      <point x="531" y="906"/>
      <point x="531" y="871" type="curve" smooth="yes"/>
      <point x="531" y="812"/>
      <point x="466" y="787"/>
      <point x="392" y="733" type="curve" smooth="yes"/>
      <point x="330" y="688"/>
      <point x="246" y="614"/>
      <point x="246" y="518" type="curve" smooth="yes"/>
      <point x="246" y="425"/>
      <point x="304" y="351"/>
      <point x="304" y="264" type="curve" smooth="yes"/>
      <point x="304" y="143"/>
      <point x="210" y="-8"/>
      <point x="79" y="-8" type="curve" smooth="yes"/>
      <point x="31" y="-8"/>
      <point x="3" y="19"/>
      <point x="3" y="70" type="curve" smooth="yes"/>
      <point x="3" y="135"/>
      <point x="61" y="266"/>
      <point x="149" y="266" type="curve" smooth="yes"/>
      <point x="176" y="266"/>
      <point x="196" y="247"/>
      <point x="196" y="212" type="curve" smooth="yes"/>
      <point x="196" y="192"/>
      <point x="190" y="167"/>
      <point x="176" y="146" type="curve"/>
      <point x="181" y="144" type="line"/>
      <point x="199" y="167"/>
      <point x="211" y="193"/>
      <point x="211" y="214" type="curve" smooth="yes"/>
      <point x="211" y="251"/>
      <point x="183" y="270"/>
      <point x="148" y="270" type="curve" smooth="yes"/>
      <point x="50" y="270"/>
      <point x="-12" y="134"/>
      <point x="-12" y="77" type="curve" smooth="yes"/>
      <point x="-12" y="20"/>
      <point x="27" y="-13"/>
      <point x="83" y="-13" type="curve" smooth="yes"/>
      <point x="234" y="-13"/>
      <point x="323" y="146"/>
      <point x="323" y="261" type="curve" smooth="yes"/>
      <point x="323" y="357"/>
      <point x="254" y="428"/>
      <point x="254" y="518" type="curve" smooth="yes"/>
      <point x="254" y="614"/>
      <point x="336" y="674"/>
      <point x="404" y="722" type="curve" smooth="yes"/>
      <point x="477" y="773"/>
      <point x="548" y="804"/>
      <point x="548" y="866" type="curve" smooth="yes"/>
      <point x="548" y="900"/>
      <point x="520" y="937"/>
      <point x="461" y="937" type="curve" smooth="yes"/>
      <point x="355" y="937"/>
      <point x="235" y="793"/>
      <point x="166" y="643" type="curve" smooth="yes"/>
      <point x="-128" y="7" type="line"/>
      <point x="-111" y="7" type="line"/>
    </contour>
  </outline>
</glyph>
<glyph name="egrave" format="2">
  <advance width="345"/>
  <unicode hex="00E8"/>
  <outline>
    <contour>
      <point x="345" y="282" type="line"/>
      <point x="280" y="145"/>
      <point x="170" y="-6"/>
      <point x="56" y="-6" type="curve" smooth="yes"/>
      <point x="-1" y="-6"/>
      <point x="-34" y="57"/>
      <point x="-16" y="167" type="curve" smooth="yes"/>
      <point x="-5" y="230"/>
      <point x="19" y="292"/>
      <point x="49" y="348" type="curve"/>
      <point x="51" y="325"/>
      <point x="77" y="292"/>
      <point x="124" y="292" type="curve" smooth="yes"/>
      <point x="206" y="292"/>
      <point x="311" y="403"/>
      <point x="320" y="491" type="curve" smooth="yes"/>
      <point x="325" y="525"/>
      <point x="306" y="563"/>
      <point x="267" y="563" type="curve" smooth="yes"/>
      <point x="176" y="563"/>
      <point x="3" y="382"/>
      <point x="-30" y="175" type="curve" smooth="yes"/>
      <point x="-50" y="60"/>
      <point x="-12" y="-12"/>
      <point x="56" y="-12" type="curve" smooth="yes"/>
      <point x="171" y="-12"/>
      <point x="281" y="140"/>
      <point x="348" y="280" type="curve"/>
    </contour>
    <contour>
      <point x="310" y="498" type="curve" smooth="yes"/>
      <point x="299" y="404"/>
      <point x="197" y="297"/>
      <point x="119" y="297" type="curve" smooth="yes"/>
      <point x="78" y="297"/>
      <point x="53" y="330"/>
      <point x="53" y="351" type="curve"/>
      <point x="50" y="351" type="line"/>
      <point x="114" y="469"/>
      <point x="207" y="558"/>
      <point x="266" y="558" type="curve" smooth="yes"/>
      <point x="300" y="558"/>
      <point x="313" y="530"/>
    </contour>
    <contour>
      <point x="369" y="696" type="line"/>
      <point x="250" y="781" type="line" smooth="yes"/>
      <point x="246" y="784"/>
      <point x="238" y="788"/>
      <point x="230" y="788" type="curve" smooth="yes"/>
      <point x="222" y="788"/>
      <point x="218" y="784"/>
      <point x="218" y="777" type="curve" smooth="yes"/>
      <point x="218" y="768"/>
      <point x="225" y="763"/>
      <point x="234" y="759" type="curve" smooth="yes"/>
      <point x="367" y="694" type="line"/>
    </contour>
  </outline>
</glyph>
<glyph name="eacute" format="2">
  <advance width="346"/>
  <unicode hex="00E9"/>
  <outline>
    <contour>
      <point x="346" y="282" type="line"/>
      <point x="281" y="145"/>
      <point x="171" y="-6"/>
      <point x="57" y="-6" type="curve" smooth="yes"/>
      <point x="0" y="-6"/>
      <point x="-33" y="57"/>
      <point x="-15" y="167" type="curve" smooth="yes"/>
      <point x="-4" y="230"/>
      <point x="20" y="292"/>
      <point x="50" y="348" type="curve"/>
      <point x="52" y="325"/>
      <point x="78" y="292"/>
      <point x="125" y="292" type="curve" smooth="yes"/>
      <point x="207" y="292"/>
      <point x="312" y="403"/>
      <point x="321" y="491" type="curve" smooth="yes"/>
      <point x="326" y="525"/>
      <point x="307" y="563"/>
      <point x="268" y="563" type="curve" smooth="yes"/>
      <point x="177" y="563"/>
      <point x="4" y="382"/>
      <point x="-29" y="175" type="curve" smooth="yes"/>
      <point x="-49" y="60"/>
      <point x="-11" y="-12"/>
      <point x="57" y="-12" type="curve" smooth="yes"/>
      <point x="172" y="-12"/>
      <point x="282" y="140"/>
      <point x="349" y="280" type="curve"/>
    </contour>
    <contour>
      <point x="311" y="498" type="curve" smooth="yes"/>
      <point x="300" y="404"/>
      <point x="198" y="297"/>
      <point x="120" y="297" type="curve" smooth="yes"/>
      <point x="79" y="297"/>
      <point x="54" y="330"/>
      <point x="54" y="351" type="curve"/>
      <point x="51" y="351" type="line"/>
      <point x="115" y="469"/>
      <point x="208" y="558"/>
      <point x="267" y="558" type="curve" smooth="yes"/>
      <point x="301" y="558"/>
      <point x="314" y="530"/>
    </contour>
    <contour>
      <point x="242" y="694" type="line"/>
      <point x="375" y="759" type="line" smooth="yes"/>
      <point x="384" y="763"/>
      <point x="391" y="768"/>
      <point x="391" y="777" type="curve" smooth="yes"/>
      <point x="391" y="784"/>
      <point x="387" y="788"/>
      <point x="379" y="788" type="curve" smooth="yes"/>
      <point x="371" y="788"/>
      <point x="363" y="784"/>
      <point x="359" y="781" type="curve" smooth="yes"/>
      <point x="240" y="696" type="line"/>
    </contour>
  </outline>
</glyph>
<glyph name="oslash" format="2">
  <advance width="396"/>
  <unicode hex="00F8"/>
  <outline>
    <contour>
      <point x="-37" y="-77" type="line"/>
      <point x="1" y="-2" type="line"/>
      <point x="9" y="-8"/>
      <point x="19" y="-11"/>
      <point x="31" y="-12" type="curve"/>
      <point x="86" y="-12"/>
      <point x="156" y="48"/>
      <point x="215" y="138" type="curve"/>
      <point x="220" y="137"/>
      <point x="226" y="137"/>
      <point x="232" y="137" type="curve" smooth="yes"/>
      <point x="286" y="137"/>
      <point x="359" y="197"/>
      <point x="399" y="280" type="curve"/>
      <point x="396" y="282" type="line"/>
      <point x="357" y="201"/>
      <point x="284" y="141"/>
      <point x="233" y="141" type="curve" smooth="yes"/>
      <point x="228" y="141"/>
      <point x="223" y="141"/>
      <point x="218" y="142" type="curve"/>
      <point x="243" y="180"/>
      <point x="266" y="223"/>
      <point x="285" y="269" type="curve" smooth="yes"/>
      <point x="308" y="327"/>
      <point x="319" y="378"/>
      <point x="322" y="435" type="curve" smooth="yes"/>
      <point x="325" y="491"/>
      <point x="312" y="536"/>
      <point x="285" y="554" type="curve"/>
      <point x="296" y="576"/>
      <point x="307" y="598"/>
      <point x="318" y="618" type="curve"/>
      <point x="313" y="618" type="line"/>
      <point x="281" y="556" type="line"/>
      <point x="273" y="560"/>
      <point x="264" y="563"/>
      <point x="254" y="563" type="curve" smooth="yes"/>
      <point x="175" y="563"/>
      <point x="66" y="439"/>
      <point x="0" y="282" type="curve" smooth="yes"/>
      <point x="-23" y="224"/>
      <point x="-34" y="173"/>
      <point x="-37" y="116" type="curve" smooth="yes"/>
      <point x="-40" y="61"/>
      <point x="-27" y="19"/>
      <point x="-2" y="0" type="curve"/>
      <point x="-41" y="-77" type="line"/>
    </contour>
    <contour>
      <point x="177" y="155" type="line"/>
      <point x="184" y="149"/>
      <point x="192" y="144"/>
      <point x="201" y="141" type="curve"/>
      <point x="145" y="53"/>
      <point x="79" y="-7"/>
      <point x="31" y="-7" type="curve"/>
      <point x="20" y="-6"/>
      <point x="12" y="-2"/>
      <point x="4" y="4" type="curve"/>
      <point x="282" y="549" type="line"/>
      <point x="303" y="532"/>
      <point x="311" y="493"/>
      <point x="308" y="444" type="curve" smooth="yes"/>
      <point x="305" y="388"/>
      <point x="293" y="334"/>
      <point x="269" y="276" type="curve" smooth="yes"/>
      <point x="251" y="230"/>
      <point x="229" y="186"/>
      <point x="205" y="148" type="curve"/>
      <point x="194" y="154"/>
      <point x="185" y="163"/>
      <point x="177" y="173" type="curve"/>
    </contour>
    <contour>
      <point x="256" y="558" type="curve" smooth="yes"/>
      <point x="264" y="558"/>
      <point x="272" y="556"/>
      <point x="279" y="551" type="curve"/>
      <point x="1" y="6" type="line"/>
      <point x="-17" y="25"/>
      <point x="-26" y="61"/>
      <point x="-23" y="107" type="curve" smooth="yes"/>
      <point x="-20" y="163"/>
      <point x="-8" y="217"/>
      <point x="16" y="275" type="curve" smooth="yes"/>
      <point x="77" y="430"/>
      <point x="186" y="558"/>
    </contour>
  </outline>
</glyph>
<glyph name="ucircumflex" format="2">
  <advance width="374"/>
  <unicode hex="00FB"/>
  <outline>
    <contour>
      <point x="310" y="550" type="line"/>
      <point x="187" y="282" type="line"/>
      <point x="177" y="261" type="line" smooth="yes"/>
      <point x="117" y="138"/>
      <point x="28" y="4"/>
      <point x="-34" y="4" type="curve" smooth="yes"/>
      <point x="-73" y="4"/>
      <point x="-83" y="72"/>
      <point x="-46" y="152" type="curve" smooth="yes"/>
      <point x="144" y="550" type="line"/>
      <point x="123" y="550" type="line"/>
      <point x="0" y="282" type="line"/>
      <point x="-55" y="161" type="line" smooth="yes"/>
      <point x="-95" y="72"/>
      <point x="-77" y="0"/>
      <point x="-35" y="0" type="curve" smooth="yes"/>
      <point x="18" y="0"/>
      <point x="86" y="85"/>
      <point x="142" y="186" type="curve"/>
      <point x="131" y="161" type="line" smooth="yes"/>
      <point x="91" y="72"/>
      <point x="110" y="0"/>
      <point x="152" y="0" type="curve" smooth="yes"/>
      <point x="221" y="0"/>
      <point x="316" y="146"/>
      <point x="377" y="280" type="curve"/>
      <point x="374" y="282" type="line"/>
      <point x="315" y="154"/>
      <point x="219" y="4"/>
      <point x="152" y="4" type="curve" smooth="yes"/>
      <point x="113" y="4"/>
      <point x="103" y="72"/>
      <point x="140" y="152" type="curve" smooth="yes"/>
      <point x="331" y="550" type="line"/>
    </contour>
    <contour>
      <point x="174" y="676" type="line"/>
      <point x="174" y="676"/>
      <point x="306" y="775"/>
      <point x="321" y="786" type="curve"/>
      <point x="321" y="786"/>
      <point x="375" y="680"/>
      <point x="375" y="680" type="curve"/>
      <point x="378" y="682" type="line"/>
      <point x="378" y="682"/>
      <point x="336" y="814"/>
      <point x="336" y="814" type="curve"/>
      <point x="336" y="814"/>
      <point x="172" y="679"/>
      <point x="172" y="679" type="curve"/>
    </contour>
  </outline>
</glyph>
<glyph name="cacute" format="2">
  <advance width="346"/>
  <unicode hex="0107"/>
  <outline>
    <contour>
      <point x="181" y="437" type="line"/>
      <point x="140" y="386"/>
      <point x="159" y="335"/>
      <point x="194" y="335" type="curve" smooth="yes"/>
      <point x="265" y="335"/>
      <point x="318" y="434"/>
      <point x="326" y="485" type="curve" smooth="yes"/>
      <point x="331" y="522"/>
      <point x="310" y="563"/>
      <point x="268" y="563" type="curve" smooth="yes"/>
      <point x="177" y="563"/>
      <point x="4" y="382"/>
      <point x="-29" y="175" type="curve" smooth="yes"/>
      <point x="-49" y="60"/>
      <point x="-11" y="-12"/>
      <point x="57" y="-12" type="curve" smooth="yes"/>
      <point x="172" y="-12"/>
      <point x="282" y="140"/>
      <point x="349" y="280" type="curve"/>
      <point x="346" y="282" type="line"/>
      <point x="281" y="145"/>
      <point x="171" y="-6"/>
      <point x="57" y="-6" type="curve" smooth="yes"/>
      <point x="0" y="-6"/>
      <point x="-33" y="57"/>
      <point x="-15" y="167" type="curve" smooth="yes"/>
      <point x="19" y="364"/>
      <point x="180" y="558"/>
      <point x="267" y="558" type="curve" smooth="yes"/>
      <point x="304" y="558"/>
      <point x="318" y="527"/>
      <point x="314" y="493" type="curve"/>
      <point x="302" y="437"/>
      <point x="262" y="339"/>
      <point x="194" y="339" type="curve" smooth="yes"/>
      <point x="169" y="339"/>
      <point x="155" y="390"/>
      <point x="185" y="435" type="curve"/>
    </contour>
    <contour>
      <point x="278" y="694" type="line"/>
      <point x="411" y="759" type="line" smooth="yes"/>
      <point x="420" y="763"/>
      <point x="427" y="768"/>
      <point x="427" y="777" type="curve" smooth="yes"/>
      <point x="427" y="784"/>
      <point x="423" y="788"/>
      <point x="415" y="788" type="curve" smooth="yes"/>
      <point x="407" y="788"/>
      <point x="399" y="784"/>
      <point x="395" y="781" type="curve" smooth="yes"/>
      <point x="276" y="696" type="line"/>
    </contour>
  </outline>
</glyph>
<glyph name="Ecaron" format="2">
  <advance width="766"/>
  <unicode hex="011A"/>
  <outline>
    <contour>
      <point x="238" y="-124" type="curve" smooth="yes"/>
      <point x="480" y="-124"/>
      <point x="671" y="82"/>
      <point x="679" y="255" type="curve" smooth="yes"/>
      <point x="684" y="355"/>
      <point x="618" y="462"/>
      <point x="482" y="462" type="curve" smooth="yes"/>
      <point x="329" y="462"/>
      <point x="202" y="355"/>
      <point x="188" y="213" type="curve" smooth="yes"/>
      <point x="180" y="110"/>
      <point x="244" y="56"/>
      <point x="320" y="56" type="curve" smooth="yes"/>
      <point x="406" y="56"/>
      <point x="485" y="122"/>
      <point x="491" y="192" type="curve"/>
      <point x="495" y="215"/>
      <point x="486" y="233"/>
      <point x="471" y="251" type="curve"/>
      <point x="469" y="250" type="line"/>
      <point x="480" y="232"/>
      <point x="485" y="213"/>
      <point x="483" y="192" type="curve" smooth="yes"/>
      <point x="477" y="124"/>
      <point x="403" y="60"/>
      <point x="323" y="60" type="curve" smooth="yes"/>
      <point x="254" y="60"/>
      <point x="192" y="107"/>
      <point x="202" y="213" type="curve" smooth="yes"/>
      <point x="214" y="354"/>
      <point x="333" y="458"/>
      <point x="480" y="458" type="curve" smooth="yes"/>
      <point x="613" y="458"/>
      <point x="670" y="361"/>
      <point x="667" y="267" type="curve" smooth="yes"/>
      <point x="658" y="95"/>
      <point x="467" y="-116"/>
      <point x="238" y="-116" type="curve" smooth="yes"/>
      <point x="74" y="-116"/>
      <point x="-7" y="0"/>
      <point x="0" y="141" type="curve" smooth="yes"/>
      <point x="11" y="360"/>
      <point x="227" y="583"/>
      <point x="441" y="614" type="curve"/>
      <point x="485" y="558"/>
      <point x="560" y="532"/>
      <point x="601" y="532" type="curve" smooth="yes"/>
      <point x="648" y="532"/>
      <point x="657" y="551"/>
      <point x="657" y="561" type="curve" smooth="yes"/>
      <point x="657" y="577"/>
      <point x="621" y="621"/>
      <point x="491" y="621" type="curve" smooth="yes"/>
      <point x="478" y="621"/>
      <point x="464" y="620"/>
      <point x="451" y="619" type="curve"/>
      <point x="435" y="643"/>
      <point x="424" y="674"/>
      <point x="424" y="711" type="curve" smooth="yes"/>
      <point x="424" y="844"/>
      <point x="546" y="941"/>
      <point x="676" y="941" type="curve" smooth="yes"/>
      <point x="767" y="941"/>
      <point x="829" y="877"/>
      <point x="829" y="810" type="curve" smooth="yes"/>
      <point x="829" y="772"/>
      <point x="812" y="715"/>
      <point x="768" y="703" type="curve"/>
      <point x="770" y="699" type="line"/>
      <point x="816" y="711"/>
      <point x="841" y="766"/>
      <point x="841" y="805" type="curve" smooth="yes"/>
      <point x="841" y="874"/>
      <point x="769" y="945"/>
      <point x="676" y="945" type="curve" smooth="yes"/>
      <point x="538" y="945"/>
      <point x="408" y="846"/>
      <point x="408" y="711" type="curve" smooth="yes"/>
      <point x="408" y="674"/>
      <point x="420" y="642"/>
      <point x="439" y="617" type="curve"/>
      <point x="222" y="588"/>
      <point x="-7" y="379"/>
      <point x="-17" y="159" type="curve" smooth="yes"/>
      <point x="-25" y="16"/>
      <point x="60" y="-124"/>
    </contour>
    <contour>
      <point x="591" y="538" type="curve" smooth="yes"/>
      <point x="556" y="538"/>
      <point x="492" y="562"/>
      <point x="454" y="615" type="curve"/>
      <point x="466" y="617"/>
      <point x="479" y="618"/>
      <point x="492" y="618" type="curve" smooth="yes"/>
      <point x="608" y="618"/>
      <point x="640" y="578"/>
      <point x="640" y="563" type="curve" smooth="yes"/>
      <point x="640" y="549"/>
      <point x="620" y="538"/>
    </contour>
    <contour>
      <point x="905" y="1246" type="line"/>
      <point x="905" y="1246"/>
      <point x="767" y="1147"/>
      <point x="752" y="1136" type="curve"/>
      <point x="752" y="1136"/>
      <point x="704" y="1242"/>
      <point x="704" y="1242" type="curve"/>
      <point x="701" y="1240" type="line"/>
      <point x="701" y="1240"/>
      <point x="743" y="1108"/>
      <point x="743" y="1108" type="curve"/>
      <point x="743" y="1108"/>
      <point x="907" y="1243"/>
      <point x="907" y="1243" type="curve"/>
    </contour>
  </outline>
</glyph>
<glyph name="Ohungarumlaut" format="2">
  <advance width="879"/>
  <unicode hex="0150"/>
  <outline>
    <contour>
      <point x="600" y="592" type="line"/>
      <point x="612" y="572"/>
      <point x="616" y="551"/>
      <point x="616" y="529" type="curve" smooth="yes"/>
      <point x="616" y="416"/>
      <point x="509" y="306"/>
      <point x="393" y="306" type="curve" smooth="yes"/>
      <point x="308" y="306"/>
      <point x="237" y="363"/>
      <point x="237" y="487" type="curve" smooth="yes"/>
      <point x="237" y="700"/>
      <point x="434" y="877"/>
      <point x="647" y="877" type="curve" smooth="yes"/>
      <point x="809" y="877"/>
      <point x="877" y="753"/>
      <point x="877" y="615" type="curve" smooth="yes"/>
      <point x="877" y="325"/>
      <point x="595" y="-87"/>
      <point x="262" y="-87" type="curve" smooth="yes"/>
      <point x="78" y="-87"/>
      <point x="-11" y="58"/>
      <point x="-11" y="238" type="curve" smooth="yes"/>
      <point x="-11" y="576"/>
      <point x="329" y="942"/>
      <point x="628" y="942" type="curve"/>
      <point x="626" y="946" type="line"/>
      <point x="329" y="946"/>
      <point x="-24" y="604"/>
      <point x="-24" y="253" type="curve" smooth="yes"/>
      <point x="-24" y="67"/>
      <point x="70" y="-96"/>
      <point x="271" y="-96" type="curve" smooth="yes"/>
      <point x="604" y="-96"/>
      <point x="887" y="309"/>
      <point x="887" y="595" type="curve" smooth="yes"/>
      <point x="887" y="747"/>
      <point x="812" y="883"/>
      <point x="647" y="883" type="curve" smooth="yes"/>
      <point x="431" y="883"/>
      <point x="223" y="708"/>
      <point x="223" y="496" type="curve" smooth="yes"/>
      <point x="223" y="369"/>
      <point x="296" y="301"/>
      <point x="387" y="301" type="curve" smooth="yes"/>
      <point x="513" y="301"/>
      <point x="629" y="413"/>
      <point x="629" y="528" type="curve" smooth="yes"/>
      <point x="629" y="553"/>
      <point x="619" y="575"/>
      <point x="605" y="596" type="curve"/>
    </contour>
    <contour>
      <point x="673" y="1126" type="line"/>
      <point x="806" y="1191" type="line" smooth="yes"/>
      <point x="815" y="1195"/>
      <point x="822" y="1200"/>
      <point x="822" y="1209" type="curve" smooth="yes"/>
      <point x="822" y="1216"/>
      <point x="818" y="1220"/>
      <point x="810" y="1220" type="curve" smooth="yes"/>
      <point x="802" y="1220"/>
      <point x="794" y="1216"/>
      <point x="790" y="1213" type="curve" smooth="yes"/>
      <point x="671" y="1128" type="line"/>
    </contour>
    <contour>
      <point x="782" y="1126" type="line"/>
      <point x="915" y="1191" type="line" smooth="yes"/>
      <point x="924" y="1195"/>
      <point x="931" y="1200"/>
      <point x="931" y="1209" type="curve" smooth="yes"/>
      <point x="931" y="1216"/>
      <point x="927" y="1220"/>
      <point x="919" y="1220" type="curve" smooth="yes"/>
      <point x="911" y="1220"/>
      <point x="903" y="1216"/>
      <point x="899" y="1213" type="curve" smooth="yes"/>
      <point x="780" y="1128" type="line"/>
    </contour>
  </outline>
</glyph>
<glyph name="Racute" format="2">
  <advance width="822"/>
  <unicode hex="0154"/>
  <outline>
    <contour>
      <point x="545" y="367" type="line"/>
      <point x="662" y="323"/>
      <point x="565" y="-107"/>
      <point x="687" y="-231" type="curve" smooth="yes"/>
      <point x="713" y="-257"/>
      <point x="764" y="-284"/>
      <point x="818" y="-235" type="curve"/>
      <point x="816" y="-233" type="line"/>
      <point x="783" y="-267"/>
      <point x="722" y="-266"/>
      <point x="689" y="-227" type="curve" smooth="yes"/>
      <point x="636" y="-164"/>
      <point x="637" y="-38"/>
      <point x="633" y="88" type="curve" smooth="yes"/>
      <point x="629" y="201"/>
      <point x="626" y="312"/>
      <point x="564" y="360" type="curve"/>
      <point x="568" y="368" type="line"/>
      <point x="727" y="381"/>
      <point x="857" y="530"/>
      <point x="857" y="684" type="curve" smooth="yes"/>
      <point x="857" y="772"/>
      <point x="815" y="853"/>
      <point x="742" y="911" type="curve"/>
      <point x="751" y="922"/>
      <point x="761" y="934"/>
      <point x="771" y="944" type="curve" smooth="yes"/>
      <point x="811" y="986"/>
      <point x="859" y="1022"/>
      <point x="910" y="1022" type="curve"/>
      <point x="910" y="1028" type="line"/>
      <point x="858" y="1028"/>
      <point x="799" y="983"/>
      <point x="739" y="913" type="curve"/>
      <point x="673" y="963"/>
      <point x="583" y="995"/>
      <point x="477" y="995" type="curve" smooth="yes"/>
      <point x="184" y="995"/>
      <point x="-48" y="758"/>
      <point x="-48" y="553" type="curve" smooth="yes"/>
      <point x="-48" y="448"/>
      <point x="13" y="322"/>
      <point x="152" y="318" type="curve" smooth="yes"/>
      <point x="291" y="318"/>
      <point x="424" y="432"/>
      <point x="441" y="573" type="curve" smooth="yes"/>
      <point x="455" y="688"/>
      <point x="380" y="746"/>
      <point x="295" y="746" type="curve" smooth="yes"/>
      <point x="201" y="746"/>
      <point x="111" y="674"/>
      <point x="102" y="596" type="curve"/>
      <point x="97" y="571"/>
      <point x="105" y="550"/>
      <point x="120" y="530" type="curve"/>
      <point x="125" y="532" type="line"/>
      <point x="111" y="551"/>
      <point x="107" y="574"/>
      <point x="112" y="596" type="curve"/>
      <point x="120" y="672"/>
      <point x="204" y="742"/>
      <point x="294" y="742" type="curve" smooth="yes"/>
      <point x="371" y="742"/>
      <point x="441" y="690"/>
      <point x="428" y="574" type="curve" smooth="yes"/>
      <point x="411" y="433"/>
      <point x="288" y="322"/>
      <point x="153" y="322" type="curve" smooth="yes"/>
      <point x="15" y="327"/>
      <point x="-39" y="443"/>
      <point x="-39" y="541" type="curve" smooth="yes"/>
      <point x="-39" y="744"/>
      <point x="191" y="990"/>
      <point x="483" y="990" type="curve" smooth="yes"/>
      <point x="589" y="990"/>
      <point x="674" y="957"/>
      <point x="734" y="907" type="curve"/>
      <point x="606" y="757"/>
      <point x="470" y="499"/>
      <point x="377" y="322" type="curve" smooth="yes"/>
      <point x="310" y="195"/>
      <point x="160" y="-23"/>
      <point x="-13" y="-13" type="curve" smooth="yes"/>
      <point x="-65" y="-10"/>
      <point x="-147" y="40"/>
      <point x="-109" y="133" type="curve"/>
      <point x="-110" y="134" type="line"/>
      <point x="-154" y="31"/>
      <point x="-72" y="-16"/>
      <point x="-13" y="-19" type="curve" smooth="yes"/>
      <point x="194" y="-30"/>
      <point x="316" y="166"/>
      <point x="402" y="330" type="curve" smooth="yes"/>
      <point x="492" y="504"/>
      <point x="619" y="760"/>
      <point x="736" y="904" type="curve"/>
      <point x="802" y="847"/>
      <point x="838" y="769"/>
      <point x="838" y="688" type="curve" smooth="yes"/>
      <point x="838" y="532"/>
      <point x="706" y="372"/>
      <point x="545" y="372" type="curve"/>
      <point x="544" y="367" type="line"/>
    </contour>
    <contour>
      <point x="811" y="1126" type="line"/>
      <point x="944" y="1191" type="line" smooth="yes"/>
      <point x="953" y="1195"/>
      <point x="960" y="1200"/>
      <point x="960" y="1209" type="curve" smooth="yes"/>
      <point x="960" y="1216"/>
      <point x="956" y="1220"/>
      <point x="948" y="1220" type="curve" smooth="yes"/>
      <point x="940" y="1220"/>
      <point x="932" y="1216"/>
      <point x="928" y="1213" type="curve" smooth="yes"/>
      <point x="809" y="1128" type="line"/>
    </contour>
  </outline>
</glyph>
<glyph name="scommaaccent" format="2">
  <advance width="296"/>
  <unicode hex="0219"/>
  <outline>
    <contour>
      <point x="-115" y="-138" type="curve" smooth="yes"/>
      <point x="-130" y="-138"/>
      <point x="-144" y="-151"/>
      <point x="-144" y="-165" type="curve" smooth="yes"/>
      <point x="-144" y="-173"/>
      <point x="-140" y="-181"/>
      <point x="-129" y="-181" type="curve" smooth="yes"/>
      <point x="-127" y="-181"/>
      <point x="-123" y="-181"/>
      <point x="-121" y="-180" type="curve"/>
      <point x="-120" y="-183"/>
      <point x="-118" y="-187"/>
      <point x="-122" y="-194" type="curve"/>
      <point x="-136" y="-214"/>
      <point x="-151" y="-232"/>
      <point x="-171" y="-246" type="curve"/>
      <point x="-169" y="-250" type="line"/>
      <point x="-140" y="-230"/>
      <point x="-99" y="-189"/>
      <point x="-99" y="-159" type="curve" smooth="yes"/>
      <point x="-99" y="-146"/>
      <point x="-107" y="-138"/>
    </contour>
    <contour>
      <point x="3" y="280" type="line"/>
      <point x="71" y="414"/>
      <point x="128" y="529"/>
      <point x="162" y="620" type="curve"/>
      <point x="193" y="536"/>
      <point x="233" y="436"/>
      <point x="207" y="305" type="curve" smooth="yes"/>
      <point x="169" y="112"/>
      <point x="37" y="-8"/>
      <point x="-61" y="-8" type="curve" smooth="yes"/>
      <point x="-105" y="-8"/>
      <point x="-128" y="30"/>
      <point x="-125" y="78" type="curve" smooth="yes"/>
      <point x="-122" y="148"/>
      <point x="-58" y="274"/>
      <point x="29" y="266" type="curve" smooth="yes"/>
      <point x="53" y="264"/>
      <point x="70" y="239"/>
      <point x="68" y="207" type="curve" smooth="yes"/>
      <point x="67" y="188"/>
      <point x="61" y="166"/>
      <point x="48" y="146" type="curve"/>
      <point x="53" y="144" type="line"/>
      <point x="71" y="167"/>
      <point x="82" y="191"/>
      <point x="83" y="212" type="curve" smooth="yes"/>
      <point x="84" y="245"/>
      <point x="61" y="268"/>
      <point x="30" y="270" type="curve" smooth="yes"/>
      <point x="-68" y="279"/>
      <point x="-137" y="146"/>
      <point x="-140" y="84" type="curve" smooth="yes"/>
      <point x="-143" y="33"/>
      <point x="-112" y="-12"/>
      <point x="-61" y="-12" type="curve" smooth="yes"/>
      <point x="47" y="-12"/>
      <point x="187" y="105"/>
      <point x="225" y="305" type="curve" smooth="yes"/>
      <point x="250" y="438"/>
      <point x="200" y="542"/>
      <point x="166" y="631" type="curve"/>
      <point x="183" y="679"/>
      <point x="194" y="721"/>
      <point x="196" y="754" type="curve" smooth="yes"/>
      <point x="199" y="806"/>
      <point x="182" y="831"/>
      <point x="166" y="831" type="curve" smooth="yes"/>
      <point x="151" y="831"/>
      <point x="130" y="816"/>
      <point x="128" y="768" type="curve" smooth="yes"/>
      <point x="125" y="724"/>
      <point x="141" y="678"/>
      <point x="160" y="626" type="curve"/>
      <point x="126" y="535"/>
      <point x="69" y="419"/>
      <point x="0" y="282" type="curve"/>
    </contour>
    <contour>
      <point x="136" y="757" type="curve" smooth="yes"/>
      <point x="139" y="803"/>
      <point x="156" y="825"/>
      <point x="169" y="825" type="curve" smooth="yes"/>
      <point x="183" y="825"/>
      <point x="195" y="804"/>
      <point x="192" y="754" type="curve" smooth="yes"/>
      <point x="190" y="722"/>
      <point x="180" y="682"/>
      <point x="164" y="636" type="curve"/>
      <point x="147" y="680"/>
      <point x="134" y="719"/>
    </contour>
  </outline>
</glyph>
<glyph name="circumflex" format="2">
  <advance width="548"/>
  <unicode hex="02C6"/>
  <outline>
    <contour>
      <point x="283" y="676" type="line"/>
      <point x="283" y="676"/>
      <point x="415" y="775"/>
      <point x="430" y="786" type="curve"/>
      <point x="430" y="786"/>
      <point x="484" y="680"/>
      <point x="484" y="680" type="curve"/>
      <point x="487" y="682" type="line"/>
      <point x="487" y="682"/>
      <point x="445" y="814"/>
      <point x="445" y="814" type="curve"/>
      <point x="445" y="814"/>
      <point x="281" y="679"/>
      <point x="281" y="679" type="curve"/>
    </contour>
  </outline>
</glyph>
<glyph name="ring" format="2">
  <advance width="414"/>
  <unicode hex="02DA"/>
  <outline>
    <contour>
      <point x="321" y="719" type="curve" smooth="yes"/>
      <point x="321" y="698"/>
      <point x="342" y="683"/>
      <point x="373" y="683" type="curve" smooth="yes"/>
      <point x="413" y="683"/>
      <point x="455" y="712"/>
      <point x="455" y="749" type="curve" smooth="yes"/>
      <point x="455" y="770"/>
      <point x="436" y="786"/>
      <point x="404" y="786" type="curve" smooth="yes"/>
      <point x="365" y="786"/>
      <point x="321" y="756"/>
    </contour>
    <contour>
      <point x="404" y="782" type="curve" smooth="yes"/>
      <point x="425" y="782"/>
      <point x="438" y="768"/>
      <point x="438" y="749" type="curve" smooth="yes"/>
      <point x="438" y="716"/>
      <point x="403" y="687"/>
      <point x="373" y="687" type="curve" smooth="yes"/>
      <point x="352" y="687"/>
      <point x="338" y="700"/>
      <point x="338" y="718" type="curve" smooth="yes"/>
      <point x="338" y="752"/>
      <point x="374" y="782"/>
    </contour>
  </outline>
</glyph>
<glyph name="dagger" format="2">
  <advance width="523"/>
  <unicode hex="2020"/>
  <outline>
    <contour>
      <point x="258" y="-60" type="line"/>
      <point x="258" y="-60"/>
      <point x="258" y="203"/>
      <point x="264" y="203" type="curve"/>
      <point x="262" y="203" type="line"/>
      <point x="246" y="206"/>
      <point x="236" y="220"/>
      <point x="236" y="232" type="curve" smooth="yes"/>
      <point x="236" y="248"/>
      <point x="250" y="262"/>
      <point x="266" y="262" type="curve" smooth="yes"/>
      <point x="283" y="262"/>
      <point x="296" y="248"/>
      <point x="296" y="232" type="curve" smooth="yes"/>
      <point x="296" y="218"/>
      <point x="284" y="206"/>
      <point x="269" y="203" type="curve"/>
      <point x="267" y="203" type="line"/>
      <point x="273" y="203"/>
      <point x="273" y="-32"/>
      <point x="273" y="-52" type="curve" smooth="yes"/>
      <point x="273" y="-60" type="line"/>
      <point x="278" y="-60" type="line"/>
      <point x="278" y="2"/>
      <point x="359" y="87"/>
      <point x="359" y="253" type="curve" smooth="yes"/>
      <point x="359" y="377"/>
      <point x="311" y="489"/>
      <point x="305" y="618" type="curve"/>
      <point x="300" y="618" type="line"/>
      <point x="305" y="494"/>
      <point x="354" y="381"/>
      <point x="354" y="253" type="curve" smooth="yes"/>
      <point x="354" y="112"/>
      <point x="295" y="33"/>
      <point x="278" y="-27" type="curve"/>
      <point x="278" y="28"/>
      <point x="277" y="171"/>
      <point x="273" y="199" type="curve"/>
      <point x="289" y="204"/>
      <point x="302" y="217"/>
      <point x="302" y="232" type="curve" smooth="yes"/>
      <point x="302" y="251"/>
      <point x="285" y="268"/>
      <point x="266" y="268" type="curve" smooth="yes"/>
      <point x="247" y="268"/>
      <point x="231" y="251"/>
      <point x="231" y="232" type="curve" smooth="yes"/>
      <point x="231" y="217"/>
      <point x="242" y="204"/>
      <point x="257" y="199" type="curve"/>
      <point x="253" y="171"/>
      <point x="253" y="28"/>
      <point x="253" y="-27" type="curve"/>
      <point x="235" y="33"/>
      <point x="177" y="112"/>
      <point x="177" y="253" type="curve" smooth="yes"/>
      <point x="177" y="381"/>
      <point x="226" y="494"/>
      <point x="231" y="618" type="curve"/>
      <point x="226" y="618" type="line"/>
      <point x="220" y="489"/>
      <point x="172" y="377"/>
      <point x="172" y="253" type="curve" smooth="yes"/>
      <point x="172" y="91"/>
      <point x="249" y="6"/>
      <point x="253" y="-55" type="curve"/>
      <point x="253" y="-60" type="line"/>
    </contour>
    <contour>
      <point x="345" y="-129" type="line"/>
      <point x="287" y="-127"/>
      <point x="278" y="-89"/>
      <point x="278" y="-83" type="curve"/>
      <point x="252" y="-83" type="line"/>
      <point x="252" y="-98"/>
      <point x="292" y="-131"/>
      <point x="345" y="-131" type="curve"/>
    </contour>
    <contour>
      <point x="265" y="654" type="curve" smooth="yes"/>
      <point x="291" y="654"/>
      <point x="321" y="648"/>
      <point x="332" y="637" type="curve"/>
      <point x="334" y="639" type="line"/>
      <point x="321" y="653"/>
      <point x="291" y="660"/>
      <point x="265" y="660" type="curve" smooth="yes"/>
      <point x="239" y="660"/>
      <point x="209" y="653"/>
      <point x="195" y="639" type="curve"/>
      <point x="198" y="637" type="line"/>
      <point x="209" y="648"/>
      <point x="239" y="654"/>
    </contour>
    <contour>
      <point x="265" y="632" type="curve" smooth="yes"/>
      <point x="291" y="632"/>
      <point x="321" y="625"/>
      <point x="332" y="614" type="curve"/>
      <point x="334" y="617" type="line"/>
      <point x="321" y="631"/>
      <point x="291" y="637"/>
      <point x="265" y="637" type="curve" smooth="yes"/>
      <point x="239" y="637"/>
      <point x="209" y="631"/>
      <point x="195" y="617" type="curve"/>
      <point x="198" y="614" type="line"/>
      <point x="209" y="625"/>
      <point x="239" y="632"/>
    </contour>
    <contour>
      <point x="265" y="677" type="curve" smooth="yes"/>
      <point x="291" y="677"/>
      <point x="321" y="670"/>
      <point x="332" y="659" type="curve"/>
      <point x="334" y="662" type="line"/>
      <point x="321" y="675"/>
      <point x="291" y="682"/>
      <point x="265" y="682" type="curve" smooth="yes"/>
      <point x="239" y="682"/>
      <point x="209" y="675"/>
      <point x="195" y="662" type="curve"/>
      <point x="198" y="659" type="line"/>
      <point x="209" y="670"/>
      <point x="239" y="677"/>
    </contour>
  </outline>
</glyph>
<glyph name="guilsinglleft" format="2">
  <advance width="486"/>
  <unicode hex="2039"/>
  <outline>
    <contour>
      <point x="320" y="119" type="line"/>
      <point x="149" y="274" type="line"/>
      <point x="320" y="429" type="line"/>
      <point x="318" y="433" type="line"/>
      <point x="127" y="274" type="line"/>
      <point x="318" y="115" type="line"/>
    </contour>
  </outline>
</glyph>
<glyph name="A.001" format="2">
  <advance width="852"/>
  <outline>
    <contour>
      <point x="908" y="715" type="line" smooth="yes"/>
      <point x="937" y="779"/>
      <point x="992" y="893"/>
      <point x="1026" y="915" type="curve" smooth="yes"/>
      <point x="1039" y="923"/>
      <point x="1048" y="934"/>
      <point x="1048" y="942" type="curve" smooth="yes"/>
      <point x="1048" y="959"/>
      <point x="1039" y="982"/>
      <point x="1009" y="982" type="curve" smooth="yes"/>
      <point x="815" y="982"/>
      <point x="621" y="598"/>
      <point x="400" y="313" type="curve" smooth="yes"/>
      <point x="388" y="298" type="line"/>
      <point x="300" y="298" type="line"/>
      <point x="300" y="293" type="line"/>
      <point x="384" y="293" type="line"/>
      <point x="217" y="77"/>
      <point x="15" y="-90"/>
      <point x="-218" y="-77" type="curve" smooth="yes"/>
      <point x="-269" y="-74"/>
      <point x="-342" y="-24"/>
      <point x="-288" y="69" type="curve"/>
      <point x="-289" y="70" type="line"/>
      <point x="-351" y="-33"/>
      <point x="-277" y="-80"/>
      <point x="-219" y="-83" type="curve" smooth="yes"/>
      <point x="-86" y="-90"/>
      <point x="36" y="-52"/>
      <point x="143" y="25" type="curve" smooth="yes"/>
      <point x="238" y="92"/>
      <point x="319" y="191"/>
      <point x="397" y="293" type="curve"/>
      <point x="681" y="293" type="line" smooth="yes"/>
      <point x="686" y="293"/>
      <point x="693" y="292"/>
      <point x="687" y="279" type="curve" smooth="yes"/>
      <point x="601" y="93" type="line" smooth="yes"/>
      <point x="560" y="4"/>
      <point x="553" y="-62"/>
      <point x="553" y="-107" type="curve" smooth="yes"/>
      <point x="553" y="-219"/>
      <point x="618" y="-280"/>
      <point x="687" y="-280" type="curve" smooth="yes"/>
      <point x="717" y="-280"/>
      <point x="760" y="-267"/>
      <point x="774" y="-229" type="curve"/>
      <point x="770" y="-228" type="line"/>
      <point x="758" y="-263"/>
      <point x="710" y="-273"/>
      <point x="681" y="-273" type="curve" smooth="yes"/>
      <point x="620" y="-273"/>
      <point x="562" y="-220"/>
      <point x="562" y="-113" type="curve" smooth="yes"/>
      <point x="562" y="-66"/>
      <point x="580" y="5"/>
      <point x="611" y="70" type="curve" smooth="yes"/>
    </contour>
    <contour>
      <point x="409" y="309" type="line" smooth="yes"/>
      <point x="564" y="515"/>
      <point x="693" y="750"/>
      <point x="828" y="879" type="curve" smooth="yes"/>
      <point x="882" y="926"/>
      <point x="934" y="969"/>
      <point x="995" y="969" type="curve" smooth="yes"/>
      <point x="1023" y="969"/>
      <point x="1044" y="957"/>
      <point x="1044" y="942" type="curve" smooth="yes"/>
      <point x="1044" y="935"/>
      <point x="1037" y="926"/>
      <point x="1024" y="919" type="curve" smooth="yes"/>
      <point x="989" y="899"/>
      <point x="919" y="779"/>
      <point x="889" y="715" type="curve" smooth="yes"/>
      <point x="701" y="308" type="line" smooth="yes"/>
      <point x="698" y="302"/>
      <point x="691" y="298"/>
      <point x="684" y="298" type="curve" smooth="yes"/>
      <point x="400" y="298" type="line"/>
    </contour>
    <contour>
      <point x="758" y="925" type="line"/>
      <point x="730" y="856"/>
      <point x="679" y="831"/>
      <point x="602" y="831" type="curve" smooth="yes"/>
      <point x="501" y="831"/>
      <point x="388" y="876"/>
      <point x="305" y="876" type="curve" smooth="yes"/>
      <point x="143" y="876"/>
      <point x="1" y="727"/>
      <point x="1" y="580" type="curve" smooth="yes"/>
      <point x="1" y="481"/>
      <point x="59" y="373"/>
      <point x="185" y="370" type="curve" smooth="yes"/>
      <point x="313" y="370"/>
      <point x="438" y="482"/>
      <point x="438" y="615" type="curve" smooth="yes"/>
      <point x="438" y="699"/>
      <point x="377" y="743"/>
      <point x="309" y="743" type="curve" smooth="yes"/>
      <point x="222" y="743"/>
      <point x="139" y="671"/>
      <point x="139" y="599" type="curve" smooth="yes"/>
      <point x="139" y="582"/>
      <point x="147" y="569"/>
      <point x="157" y="554" type="curve"/>
      <point x="161" y="556" type="line"/>
      <point x="153" y="569"/>
      <point x="149" y="582"/>
      <point x="149" y="596" type="curve" smooth="yes"/>
      <point x="149" y="668"/>
      <point x="222" y="738"/>
      <point x="308" y="738" type="curve" smooth="yes"/>
      <point x="369" y="738"/>
      <point x="424" y="700"/>
      <point x="424" y="616" type="curve" smooth="yes"/>
      <point x="424" y="485"/>
      <point x="311" y="379"/>
      <point x="194" y="374" type="curve" smooth="yes"/>
      <point x="64" y="374"/>
      <point x="12" y="474"/>
      <point x="12" y="568" type="curve" smooth="yes"/>
      <point x="12" y="696"/>
      <point x="141" y="869"/>
      <point x="313" y="869" type="curve" smooth="yes"/>
      <point x="391" y="869"/>
      <point x="495" y="826"/>
      <point x="590" y="826" type="curve" smooth="yes"/>
      <point x="673" y="826"/>
      <point x="731" y="849"/>
      <point x="765" y="919" type="curve"/>
    </contour>
  </outline>
</glyph>
<glyph name="A.002" format="2">
  <advance width="852"/>
  <outline>
    <contour>
      <point x="579" y="0" type="line"/>
      <point x="908" y="715" type="line" smooth="yes"/>
      <point x="937" y="779"/>
      <point x="992" y="893"/>
      <point x="1026" y="915" type="curve" smooth="yes"/>
      <point x="1039" y="923"/>
      <point x="1048" y="934"/>
      <point x="1048" y="942" type="curve" smooth="yes"/>
      <point x="1048" y="959"/>
      <point x="1039" y="982"/>
      <point x="1009" y="982" type="curve" smooth="yes"/>
      <point x="823" y="982"/>
      <point x="637" y="630"/>
      <point x="428" y="350" type="curve"/>
      <point x="323" y="350" type="line"/>
      <point x="323" y="345" type="line"/>
      <point x="424" y="345" type="line"/>
      <point x="400" y="313" type="line" smooth="yes"/>
      <point x="243" y="105"/>
      <point x="50" y="-81"/>
      <point x="-166" y="-81" type="curve" smooth="yes"/>
      <point x="-261" y="-81"/>
      <point x="-319" y="-8"/>
      <point x="-272" y="92" type="curve"/>
      <point x="-273" y="93" type="line"/>
      <point x="-336" y="-27"/>
      <point x="-258" y="-87"/>
      <point x="-164" y="-87" type="curve" smooth="yes"/>
      <point x="-53" y="-87"/>
      <point x="51" y="-41"/>
      <point x="143" y="25" type="curve" smooth="yes"/>
      <point x="243" y="96"/>
      <point x="328" y="201"/>
      <point x="409" y="309" type="curve" smooth="yes"/>
      <point x="435" y="345" type="line"/>
      <point x="718" y="345" type="line"/>
      <point x="559" y="0" type="line"/>
    </contour>
    <contour>
      <point x="828" y="879" type="curve" smooth="yes"/>
      <point x="882" y="926"/>
      <point x="934" y="969"/>
      <point x="995" y="969" type="curve" smooth="yes"/>
      <point x="1023" y="969"/>
      <point x="1044" y="957"/>
      <point x="1044" y="942" type="curve" smooth="yes"/>
      <point x="1044" y="935"/>
      <point x="1037" y="926"/>
      <point x="1024" y="919" type="curve" smooth="yes"/>
      <point x="989" y="899"/>
      <point x="919" y="779"/>
      <point x="889" y="715" type="curve" smooth="yes"/>
      <point x="720" y="350" type="line"/>
      <point x="439" y="350" type="line"/>
      <point x="581" y="545"/>
      <point x="702" y="758"/>
    </contour>
    <contour>
      <point x="758" y="925" type="line"/>
      <point x="730" y="856"/>
      <point x="679" y="831"/>
      <point x="602" y="831" type="curve" smooth="yes"/>
      <point x="501" y="831"/>
      <point x="388" y="876"/>
      <point x="305" y="876" type="curve" smooth="yes"/>
      <point x="143" y="876"/>
      <point x="1" y="727"/>
      <point x="1" y="580" type="curve" smooth="yes"/>
      <point x="1" y="481"/>
      <point x="59" y="373"/>
      <point x="185" y="370" type="curve" smooth="yes"/>
      <point x="313" y="370"/>
      <point x="438" y="482"/>
      <point x="438" y="615" type="curve" smooth="yes"/>
      <point x="438" y="699"/>
      <point x="377" y="743"/>
      <point x="309" y="743" type="curve" smooth="yes"/>
      <point x="222" y="743"/>
      <point x="139" y="671"/>
      <point x="139" y="599" type="curve" smooth="yes"/>
      <point x="139" y="582"/>
      <point x="147" y="569"/>
      <point x="157" y="554" type="curve"/>
      <point x="161" y="556" type="line"/>
      <point x="153" y="569"/>
      <point x="149" y="582"/>
      <point x="149" y="596" type="curve" smooth="yes"/>
      <point x="149" y="668"/>
      <point x="222" y="738"/>
      <point x="308" y="738" type="curve" smooth="yes"/>
      <point x="369" y="738"/>
      <point x="424" y="700"/>
      <point x="424" y="616" type="curve" smooth="yes"/>
      <point x="424" y="485"/>
      <point x="311" y="379"/>
      <point x="194" y="374" type="curve" smooth="yes"/>
      <point x="64" y="374"/>
      <point x="12" y="474"/>
      <point x="12" y="568" type="curve" smooth="yes"/>
      <point x="12" y="696"/>
      <point x="141" y="869"/>
      <point x="313" y="869" type="curve" smooth="yes"/>
      <point x="391" y="869"/>
      <point x="495" y="826"/>
      <point x="590" y="826" type="curve" smooth="yes"/>
      <point x="673" y="826"/>
      <point x="731" y="849"/>
      <point x="765" y="919" type="curve"/>
    </contour>
  </outline>
</glyph>
<glyph name="A.big" format="2">
  <advance width="1015"/>
  <outline>
    <contour>
      <point x="850" y="277" type="curve" smooth="yes"/>
      <point x="1136" y="898" type="line" smooth="yes"/>
      <point x="1170" y="973"/>
      <point x="1236" y="1110"/>
      <point x="1279" y="1135" type="curve" smooth="yes"/>
      <point x="1295" y="1144"/>
      <point x="1305" y="1157"/>
      <point x="1305" y="1167" type="curve" smooth="yes"/>
      <point x="1305" y="1187"/>
      <point x="1295" y="1214"/>
      <point x="1259" y="1214" type="curve" smooth="yes"/>
      <point x="1032" y="1214"/>
      <point x="802" y="760"/>
      <point x="542" y="422" type="curve" smooth="yes"/>
      <point x="528" y="404" type="line"/>
      <point x="424" y="404" type="line"/>
      <point x="424" y="398" type="line"/>
      <point x="523" y="398" type="line"/>
      <point x="331" y="152"/>
      <point x="124" y="-52"/>
      <point x="-142" y="-52" type="curve" smooth="yes"/>
      <point x="-185" y="-52"/>
      <point x="-299" y="-26"/>
      <point x="-299" y="60" type="curve" smooth="yes"/>
      <point x="-299" y="81"/>
      <point x="-294" y="106"/>
      <point x="-274" y="126" type="curve"/>
      <point x="-276" y="127" type="line"/>
      <point x="-299" y="102"/>
      <point x="-306" y="74"/>
      <point x="-306" y="50" type="curve" smooth="yes"/>
      <point x="-306" y="-36"/>
      <point x="-187" y="-59"/>
      <point x="-136" y="-59" type="curve" smooth="yes"/>
      <point x="8" y="-59"/>
      <point x="121" y="-6"/>
      <point x="239" y="78" type="curve" smooth="yes"/>
      <point x="351" y="157"/>
      <point x="442" y="277"/>
      <point x="535" y="398" type="curve"/>
      <point x="869" y="398" type="line" smooth="yes"/>
      <point x="873" y="398"/>
      <point x="879" y="397"/>
      <point x="879" y="391" type="curve" smooth="yes"/>
      <point x="879" y="389"/>
      <point x="878" y="386"/>
      <point x="876" y="382" type="curve" smooth="yes"/>
      <point x="827" y="277" type="line" smooth="yes"/>
      <point x="771" y="160"/>
      <point x="740" y="49"/>
      <point x="740" y="-39" type="curve" smooth="yes"/>
      <point x="740" y="-230"/>
      <point x="842" y="-388"/>
      <point x="987" y="-501" type="curve"/>
      <point x="882" y="-547"/>
      <point x="775" y="-578"/>
      <point x="671" y="-578" type="curve" smooth="yes"/>
      <point x="458" y="-578"/>
      <point x="246" y="-491"/>
      <point x="246" y="-274" type="curve" smooth="yes"/>
      <point x="246" y="-163"/>
      <point x="347" y="-91"/>
      <point x="438" y="-91" type="curve" smooth="yes"/>
      <point x="455" y="-91"/>
      <point x="474" y="-94"/>
      <point x="494" y="-100" type="curve"/>
      <point x="496" y="-96" type="line"/>
      <point x="476" y="-90"/>
      <point x="457" y="-87"/>
      <point x="438" y="-87" type="curve" smooth="yes"/>
      <point x="335" y="-87"/>
      <point x="239" y="-169"/>
      <point x="239" y="-278" type="curve" smooth="yes"/>
      <point x="239" y="-497"/>
      <point x="438" y="-589"/>
      <point x="653" y="-589" type="curve" smooth="yes"/>
      <point x="765" y="-589"/>
      <point x="879" y="-555"/>
      <point x="992" y="-505" type="curve"/>
      <point x="1144" y="-622"/>
      <point x="1342" y="-689"/>
      <point x="1518" y="-689" type="curve" smooth="yes"/>
      <point x="1768" y="-689"/>
      <point x="2242" y="-546"/>
      <point x="2242" y="-284" type="curve" smooth="yes"/>
      <point x="2242" y="-179"/>
      <point x="2130" y="-81"/>
      <point x="1963" y="-81" type="curve" smooth="yes"/>
      <point x="1746" y="-81"/>
      <point x="1524" y="-202"/>
      <point x="1311" y="-328" type="curve" smooth="yes"/>
      <point x="1208" y="-389"/>
      <point x="1101" y="-451"/>
      <point x="993" y="-499" type="curve"/>
      <point x="853" y="-389"/>
      <point x="754" y="-235"/>
      <point x="754" y="-49" type="curve" smooth="yes"/>
      <point x="754" y="43"/>
      <point x="798" y="177"/>
    </contour>
    <contour>
      <point x="1313" y="-333" type="curve" smooth="yes"/>
      <point x="1525" y="-207"/>
      <point x="1744" y="-89"/>
      <point x="1952" y="-89" type="curve" smooth="yes"/>
      <point x="2118" y="-89"/>
      <point x="2223" y="-181"/>
      <point x="2223" y="-288" type="curve" smooth="yes"/>
      <point x="2223" y="-547"/>
      <point x="1760" y="-684"/>
      <point x="1518" y="-684" type="curve" smooth="yes"/>
      <point x="1344" y="-684"/>
      <point x="1148" y="-618"/>
      <point x="998" y="-503" type="curve"/>
      <point x="1105" y="-455"/>
      <point x="1211" y="-393"/>
    </contour>
    <contour>
      <point x="549" y="417" type="line"/>
      <point x="732" y="661"/>
      <point x="887" y="939"/>
      <point x="1050" y="1088" type="curve" smooth="yes"/>
      <point x="1113" y="1145"/>
      <point x="1170" y="1199"/>
      <point x="1243" y="1199" type="curve" smooth="yes"/>
      <point x="1276" y="1199"/>
      <point x="1301" y="1185"/>
      <point x="1301" y="1167" type="curve" smooth="yes"/>
      <point x="1301" y="1159"/>
      <point x="1292" y="1148"/>
      <point x="1277" y="1140" type="curve" smooth="yes"/>
      <point x="1236" y="1116"/>
      <point x="1150" y="974"/>
      <point x="1115" y="898" type="curve" smooth="yes"/>
      <point x="893" y="416" type="line"/>
      <point x="889" y="409"/>
      <point x="881" y="404"/>
      <point x="872" y="404" type="curve" smooth="yes"/>
      <point x="538" y="404" type="line"/>
    </contour>
    <contour>
      <point x="923" y="1111" type="line"/>
      <point x="895" y="1042"/>
      <point x="844" y="1017"/>
      <point x="767" y="1017" type="curve" smooth="yes"/>
      <point x="666" y="1017"/>
      <point x="553" y="1062"/>
      <point x="470" y="1062" type="curve" smooth="yes"/>
      <point x="308" y="1062"/>
      <point x="166" y="913"/>
      <point x="166" y="766" type="curve" smooth="yes"/>
      <point x="166" y="667"/>
      <point x="224" y="559"/>
      <point x="350" y="556" type="curve" smooth="yes"/>
      <point x="478" y="556"/>
      <point x="603" y="668"/>
      <point x="603" y="801" type="curve" smooth="yes"/>
      <point x="603" y="885"/>
      <point x="542" y="929"/>
      <point x="474" y="929" type="curve" smooth="yes"/>
      <point x="387" y="929"/>
      <point x="304" y="857"/>
      <point x="304" y="785" type="curve" smooth="yes"/>
      <point x="304" y="768"/>
      <point x="312" y="755"/>
      <point x="322" y="740" type="curve"/>
      <point x="326" y="742" type="line"/>
      <point x="318" y="755"/>
      <point x="314" y="768"/>
      <point x="314" y="782" type="curve" smooth="yes"/>
      <point x="314" y="854"/>
      <point x="387" y="924"/>
      <point x="473" y="924" type="curve" smooth="yes"/>
      <point x="534" y="924"/>
      <point x="589" y="886"/>
      <point x="589" y="802" type="curve" smooth="yes"/>
      <point x="589" y="671"/>
      <point x="476" y="565"/>
      <point x="359" y="560" type="curve" smooth="yes"/>
      <point x="229" y="560"/>
      <point x="177" y="660"/>
      <point x="177" y="754" type="curve" smooth="yes"/>
      <point x="177" y="882"/>
      <point x="306" y="1055"/>
      <point x="478" y="1055" type="curve" smooth="yes"/>
      <point x="556" y="1055"/>
      <point x="660" y="1012"/>
      <point x="755" y="1012" type="curve" smooth="yes"/>
      <point x="838" y="1012"/>
      <point x="896" y="1035"/>
      <point x="930" y="1105" type="curve"/>
    </contour>
  </outline>
</glyph>
<glyph name="B.001" format="2">
  <advance width="884"/>
  <outline>
    <contour>
      <point x="642" y="936" type="curve" smooth="yes"/>
      <point x="372" y="936"/>
      <point x="145" y="695"/>
      <point x="128" y="492" type="curve" smooth="yes"/>
      <point x="118" y="382"/>
      <point x="168" y="254"/>
      <point x="304" y="238" type="curve"/>
      <point x="235" y="145"/>
      <point x="143" y="63"/>
      <point x="30" y="34" type="curve"/>
      <point x="2" y="46"/>
      <point x="-28" y="54"/>
      <point x="-65" y="55" type="curve" smooth="yes"/>
      <point x="-115" y="55"/>
      <point x="-109" y="18"/>
      <point x="-58" y="18" type="curve" smooth="yes"/>
      <point x="-25" y="18"/>
      <point x="6" y="21"/>
      <point x="34" y="26" type="curve"/>
      <point x="57" y="16"/>
      <point x="78" y="2"/>
      <point x="103" y="-10" type="curve" smooth="yes"/>
      <point x="169" y="-43"/>
      <point x="218" y="-76"/>
      <point x="329" y="-81" type="curve" smooth="yes"/>
      <point x="490" y="-88"/>
      <point x="764" y="30"/>
      <point x="784" y="274" type="curve" smooth="yes"/>
      <point x="795" y="396"/>
      <point x="703" y="442"/>
      <point x="667" y="455" type="curve"/>
      <point x="777" y="463"/>
      <point x="875" y="554"/>
      <point x="902" y="656" type="curve" smooth="yes"/>
      <point x="942" y="811"/>
      <point x="820" y="936"/>
    </contour>
    <contour>
      <point x="664" y="450" type="curve"/>
      <point x="664" y="451" type="line"/>
      <point x="697" y="441"/>
      <point x="777" y="402"/>
      <point x="768" y="284" type="curve" smooth="yes"/>
      <point x="749" y="48"/>
      <point x="484" y="-82"/>
      <point x="329" y="-77" type="curve" smooth="yes"/>
      <point x="191" y="-72"/>
      <point x="125" y="-8"/>
      <point x="44" y="28" type="curve"/>
      <point x="170" y="56"/>
      <point x="257" y="135"/>
      <point x="326" y="237" type="curve"/>
      <point x="332" y="237" type="line" smooth="yes"/>
      <point x="462" y="240"/>
      <point x="586" y="347"/>
      <point x="602" y="478" type="curve" smooth="yes"/>
      <point x="610" y="551"/>
      <point x="581" y="600"/>
      <point x="537" y="625" type="curve"/>
      <point x="579" y="699"/>
      <point x="621" y="768"/>
      <point x="660" y="817" type="curve" smooth="yes"/>
      <point x="695" y="861"/>
      <point x="758" y="914"/>
      <point x="796" y="891" type="curve" smooth="yes"/>
      <point x="875" y="841"/>
      <point x="905" y="750"/>
      <point x="886" y="665" type="curve" smooth="yes"/>
      <point x="859" y="560"/>
      <point x="766" y="460"/>
      <point x="652" y="460" type="curve"/>
      <point x="651" y="457" type="line"/>
      <point x="647" y="457" type="line"/>
      <point x="647" y="457"/>
      <point x="650" y="455"/>
      <point x="651" y="454" type="curve" smooth="yes"/>
      <point x="652" y="453"/>
      <point x="664" y="450"/>
    </contour>
    <contour>
      <point x="303" y="440" type="line"/>
      <point x="289" y="458"/>
      <point x="287" y="479"/>
      <point x="290" y="500" type="curve" smooth="yes"/>
      <point x="299" y="572"/>
      <point x="378" y="638"/>
      <point x="463" y="638" type="curve" smooth="yes"/>
      <point x="484" y="638"/>
      <point x="504" y="634"/>
      <point x="522" y="626" type="curve"/>
      <point x="467" y="532"/>
      <point x="417" y="431"/>
      <point x="377" y="356" type="curve" smooth="yes"/>
      <point x="357" y="318"/>
      <point x="334" y="279"/>
      <point x="307" y="242" type="curve"/>
      <point x="172" y="256"/>
      <point x="128" y="375"/>
      <point x="137" y="477" type="curve" smooth="yes"/>
      <point x="154" y="679"/>
      <point x="383" y="929"/>
      <point x="650" y="929" type="curve" smooth="yes"/>
      <point x="701" y="928"/>
      <point x="745" y="918"/>
      <point x="780" y="900" type="curve"/>
      <point x="744" y="902"/>
      <point x="696" y="868"/>
      <point x="655" y="821" type="curve" smooth="yes"/>
      <point x="611" y="771"/>
      <point x="567" y="703"/>
      <point x="525" y="631" type="curve"/>
      <point x="506" y="639"/>
      <point x="485" y="643"/>
      <point x="464" y="643" type="curve" smooth="yes"/>
      <point x="375" y="643"/>
      <point x="289" y="574"/>
      <point x="281" y="500" type="curve"/>
      <point x="277" y="476"/>
      <point x="284" y="457"/>
      <point x="299" y="438" type="curve"/>
    </contour>
    <contour>
      <point x="590" y="479" type="curve" smooth="yes"/>
      <point x="573" y="347"/>
      <point x="457" y="242"/>
      <point x="329" y="241" type="curve"/>
      <point x="354" y="279"/>
      <point x="378" y="320"/>
      <point x="400" y="363" type="curve" smooth="yes"/>
      <point x="435" y="433"/>
      <point x="484" y="529"/>
      <point x="534" y="619" type="curve"/>
      <point x="573" y="596"/>
      <point x="598" y="551"/>
    </contour>
    <contour>
      <point x="-58" y="23" type="curve" smooth="yes"/>
      <point x="-95" y="23"/>
      <point x="-90" y="50"/>
      <point x="-58" y="50" type="curve" smooth="yes"/>
      <point x="-28" y="49"/>
      <point x="-3" y="42"/>
      <point x="21" y="32" type="curve"/>
      <point x="-4" y="26"/>
      <point x="-30" y="23"/>
    </contour>
  </outline>
</glyph>
<glyph name="B.big" format="2">
  <advance width="1248"/>
  <outline>
    <contour>
      <point x="-69" y="31" type="curve" smooth="yes"/>
      <point x="-115" y="31"/>
      <point x="-134" y="14"/>
      <point x="-134" y="-2" type="curve" smooth="yes"/>
      <point x="-134" y="-28"/>
      <point x="-71" y="-64"/>
      <point x="35" y="-64" type="curve" smooth="yes"/>
      <point x="86" y="-64"/>
      <point x="134" y="-59"/>
      <point x="180" y="-49" type="curve"/>
      <point x="288" y="-100"/>
      <point x="409" y="-159"/>
      <point x="571" y="-159" type="curve" smooth="yes"/>
      <point x="843" y="-159"/>
      <point x="1170" y="44"/>
      <point x="1170" y="346" type="curve" smooth="yes"/>
      <point x="1170" y="475"/>
      <point x="1078" y="561"/>
      <point x="1002" y="582" type="curve"/>
      <point x="1003" y="585" type="line"/>
      <point x="1144" y="610"/>
      <point x="1266" y="753"/>
      <point x="1266" y="907" type="curve" smooth="yes"/>
      <point x="1266" y="1120"/>
      <point x="1043" y="1236"/>
      <point x="865" y="1236" type="curve" smooth="yes"/>
      <point x="433" y="1236"/>
      <point x="95" y="865"/>
      <point x="95" y="544" type="curve" smooth="yes"/>
      <point x="95" y="382"/>
      <point x="188" y="182"/>
      <point x="409" y="182" type="curve" smooth="yes"/>
      <point x="457" y="182"/>
      <point x="505" y="191"/>
      <point x="551" y="207" type="curve"/>
      <point x="456" y="96"/>
      <point x="326" y="-1"/>
      <point x="175" y="-40" type="curve"/>
      <point x="95" y="-3"/>
      <point x="17" y="29"/>
    </contour>
    <contour>
      <point x="1000" y="577" type="curve"/>
      <point x="1000" y="578" type="line"/>
      <point x="1064" y="561"/>
      <point x="1154" y="489"/>
      <point x="1154" y="365" type="curve" smooth="yes"/>
      <point x="1154" y="51"/>
      <point x="833" y="-153"/>
      <point x="552" y="-153" type="curve" smooth="yes"/>
      <point x="407" y="-149"/>
      <point x="295" y="-95"/>
      <point x="190" y="-47" type="curve"/>
      <point x="360" y="-8"/>
      <point x="489" y="93"/>
      <point x="586" y="220" type="curve"/>
      <point x="739" y="288"/>
      <point x="859" y="437"/>
      <point x="859" y="607" type="curve" smooth="yes"/>
      <point x="859" y="625"/>
      <point x="857" y="642"/>
      <point x="854" y="659" type="curve"/>
      <point x="906" y="740"/>
      <point x="959" y="816"/>
      <point x="1005" y="869" type="curve" smooth="yes"/>
      <point x="1048" y="919"/>
      <point x="1122" y="978"/>
      <point x="1162" y="953" type="curve"/>
      <point x="1163" y="958" type="line"/>
      <point x="1125" y="977"/>
      <point x="1058" y="935"/>
      <point x="1000" y="874" type="curve" smooth="yes"/>
      <point x="951" y="822"/>
      <point x="899" y="752"/>
      <point x="850" y="677" type="curve"/>
      <point x="820" y="783"/>
      <point x="724" y="841"/>
      <point x="623" y="841" type="curve" smooth="yes"/>
      <point x="468" y="841"/>
      <point x="324" y="715"/>
      <point x="324" y="587" type="curve" smooth="yes"/>
      <point x="324" y="558"/>
      <point x="335" y="533"/>
      <point x="354" y="508" type="curve"/>
      <point x="361" y="511" type="line"/>
      <point x="345" y="533"/>
      <point x="338" y="558"/>
      <point x="338" y="583" type="curve" smooth="yes"/>
      <point x="338" y="710"/>
      <point x="470" y="834"/>
      <point x="621" y="834" type="curve" smooth="yes"/>
      <point x="719" y="834"/>
      <point x="816" y="775"/>
      <point x="835" y="654" type="curve"/>
      <point x="767" y="548"/>
      <point x="702" y="435"/>
      <point x="651" y="351" type="curve"/>
      <point x="627" y="306"/>
      <point x="596" y="261"/>
      <point x="560" y="217" type="curve"/>
      <point x="512" y="198"/>
      <point x="462" y="188"/>
      <point x="411" y="188" type="curve" smooth="yes"/>
      <point x="193" y="188"/>
      <point x="109" y="372"/>
      <point x="109" y="525" type="curve" smooth="yes"/>
      <point x="109" y="843"/>
      <point x="435" y="1230"/>
      <point x="865" y="1230" type="curve" smooth="yes"/>
      <point x="1091" y="1230"/>
      <point x="1251" y="1078"/>
      <point x="1251" y="925" type="curve" smooth="yes"/>
      <point x="1251" y="766"/>
      <point x="1114" y="588"/>
      <point x="961" y="588" type="curve"/>
      <point x="960" y="581" type="line"/>
      <point x="962" y="581" type="line" smooth="yes"/>
      <point x="968" y="581"/>
      <point x="974" y="581"/>
      <point x="980" y="582" type="curve"/>
      <point x="983" y="582"/>
      <point x="986" y="581"/>
      <point x="989" y="581" type="curve"/>
      <point x="992" y="579"/>
      <point x="1000" y="577"/>
    </contour>
    <contour>
      <point x="677" y="363" type="curve" smooth="yes"/>
      <point x="719" y="437"/>
      <point x="777" y="536"/>
      <point x="838" y="632" type="curve"/>
      <point x="838" y="624"/>
      <point x="839" y="616"/>
      <point x="839" y="608" type="curve" smooth="yes"/>
      <point x="839" y="443"/>
      <point x="733" y="302"/>
      <point x="595" y="233" type="curve"/>
      <point x="625" y="274"/>
      <point x="653" y="318"/>
    </contour>
    <contour>
      <point x="165" y="-42" type="curve"/>
      <point x="123" y="-52"/>
      <point x="79" y="-58"/>
      <point x="35" y="-58" type="curve" smooth="yes"/>
      <point x="-59" y="-58"/>
      <point x="-110" y="-25"/>
      <point x="-110" y="-2" type="curve" smooth="yes"/>
      <point x="-110" y="12"/>
      <point x="-87" y="23"/>
      <point x="-53" y="23" type="curve" smooth="yes"/>
      <point x="19" y="23"/>
      <point x="89" y="-7"/>
    </contour>
  </outline>
</glyph>
<glyph name="D.001" format="2">
  <advance width="961"/>
  <outline>
    <contour>
      <point x="-86" y="18" type="curve" smooth="yes"/>
      <point x="-52" y="18"/>
      <point x="-21" y="20"/>
      <point x="8" y="26" type="curve"/>
      <point x="92" y="-9"/>
      <point x="173" y="-77"/>
      <point x="318" y="-77" type="curve" smooth="yes"/>
      <point x="619" y="-77"/>
      <point x="934" y="220"/>
      <point x="950" y="539" type="curve" smooth="yes"/>
      <point x="961" y="743"/>
      <point x="849" y="937"/>
      <point x="599" y="937" type="curve" smooth="yes"/>
      <point x="327" y="937"/>
      <point x="105" y="694"/>
      <point x="95" y="490" type="curve" smooth="yes"/>
      <point x="88" y="381"/>
      <point x="141" y="254"/>
      <point x="273" y="235" type="curve"/>
      <point x="204" y="143"/>
      <point x="114" y="63"/>
      <point x="2" y="35" type="curve"/>
      <point x="-28" y="47"/>
      <point x="-59" y="56"/>
      <point x="-94" y="56" type="curve" smooth="yes"/>
      <point x="-144" y="56"/>
      <point x="-138" y="18"/>
    </contour>
    <contour>
      <point x="308" y="233" type="line" smooth="yes"/>
      <point x="487" y="233"/>
      <point x="652" y="372"/>
      <point x="667" y="540" type="curve" smooth="yes"/>
      <point x="675" y="638"/>
      <point x="628" y="697"/>
      <point x="563" y="716" type="curve"/>
      <point x="586" y="755"/>
      <point x="610" y="789"/>
      <point x="632" y="817" type="curve" smooth="yes"/>
      <point x="665" y="858"/>
      <point x="723" y="908"/>
      <point x="761" y="895" type="curve"/>
      <point x="883" y="838"/>
      <point x="940" y="708"/>
      <point x="933" y="559" type="curve" smooth="yes"/>
      <point x="917" y="246"/>
      <point x="620" y="-73"/>
      <point x="316" y="-73" type="curve" smooth="yes"/>
      <point x="179" y="-73"/>
      <point x="100" y="-9"/>
      <point x="17" y="28" type="curve"/>
      <point x="141" y="56"/>
      <point x="227" y="134"/>
      <point x="296" y="233" type="curve"/>
    </contour>
    <contour>
      <point x="337" y="497" type="line"/>
      <point x="323" y="517"/>
      <point x="318" y="541"/>
      <point x="321" y="564" type="curve" smooth="yes"/>
      <point x="328" y="645"/>
      <point x="414" y="720"/>
      <point x="509" y="720" type="curve" smooth="yes"/>
      <point x="523" y="720"/>
      <point x="536" y="718"/>
      <point x="549" y="715" type="curve"/>
      <point x="474" y="600"/>
      <point x="402" y="455"/>
      <point x="349" y="356" type="curve" smooth="yes"/>
      <point x="328" y="317"/>
      <point x="304" y="277"/>
      <point x="276" y="239" type="curve"/>
      <point x="144" y="256"/>
      <point x="99" y="374"/>
      <point x="104" y="475" type="curve" smooth="yes"/>
      <point x="115" y="678"/>
      <point x="339" y="927"/>
      <point x="608" y="927" type="curve" smooth="yes"/>
      <point x="662" y="927"/>
      <point x="709" y="918"/>
      <point x="749" y="901" type="curve"/>
      <point x="714" y="901"/>
      <point x="667" y="867"/>
      <point x="627" y="821" type="curve" smooth="yes"/>
      <point x="602" y="792"/>
      <point x="577" y="758"/>
      <point x="552" y="720" type="curve"/>
      <point x="539" y="723"/>
      <point x="525" y="724"/>
      <point x="512" y="724" type="curve" smooth="yes"/>
      <point x="411" y="724"/>
      <point x="318" y="647"/>
      <point x="311" y="564" type="curve"/>
      <point x="307" y="537"/>
      <point x="316" y="515"/>
      <point x="334" y="494" type="curve"/>
    </contour>
    <contour>
      <point x="309" y="237" type="curve" smooth="yes"/>
      <point x="298" y="237" type="line"/>
      <point x="325" y="276"/>
      <point x="349" y="319"/>
      <point x="372" y="363" type="curve" smooth="yes"/>
      <point x="420" y="458"/>
      <point x="491" y="600"/>
      <point x="560" y="712" type="curve"/>
      <point x="618" y="692"/>
      <point x="660" y="637"/>
      <point x="652" y="541" type="curve" smooth="yes"/>
      <point x="637" y="373"/>
      <point x="483" y="237"/>
    </contour>
    <contour>
      <point x="-86" y="24" type="curve" smooth="yes"/>
      <point x="-124" y="24"/>
      <point x="-119" y="48"/>
      <point x="-86" y="48" type="curve" smooth="yes"/>
      <point x="-58" y="48"/>
      <point x="-32" y="42"/>
      <point x="-7" y="32" type="curve"/>
      <point x="-32" y="27"/>
      <point x="-58" y="24"/>
    </contour>
  </outline>
</glyph>
<glyph name="D.big" format="2">
  <advance width="1451"/>
  <outline>
    <contour>
      <point x="-69" y="31" type="curve" smooth="yes"/>
      <point x="-115" y="31"/>
      <point x="-134" y="14"/>
      <point x="-134" y="-2" type="curve" smooth="yes"/>
      <point x="-134" y="-28"/>
      <point x="-71" y="-64"/>
      <point x="35" y="-64" type="curve" smooth="yes"/>
      <point x="89" y="-64"/>
      <point x="139" y="-58"/>
      <point x="185" y="-48" type="curve"/>
      <point x="298" y="-100"/>
      <point x="427" y="-160"/>
      <point x="600" y="-160" type="curve" smooth="yes"/>
      <point x="1003" y="-160"/>
      <point x="1430" y="233"/>
      <point x="1430" y="669" type="curve" smooth="yes"/>
      <point x="1430" y="969"/>
      <point x="1202" y="1236"/>
      <point x="865" y="1236" type="curve" smooth="yes"/>
      <point x="433" y="1236"/>
      <point x="95" y="865"/>
      <point x="95" y="544" type="curve" smooth="yes"/>
      <point x="95" y="359"/>
      <point x="224" y="137"/>
      <point x="478" y="130" type="curve"/>
      <point x="397" y="50"/>
      <point x="302" y="-12"/>
      <point x="182" y="-40" type="curve"/>
      <point x="99" y="-3"/>
      <point x="19" y="29"/>
    </contour>
    <contour>
      <point x="865" y="1230" type="curve" smooth="yes"/>
      <point x="1197" y="1230"/>
      <point x="1413" y="974"/>
      <point x="1413" y="677" type="curve" smooth="yes"/>
      <point x="1413" y="237"/>
      <point x="993" y="-154"/>
      <point x="587" y="-154" type="curve" smooth="yes"/>
      <point x="427" y="-154"/>
      <point x="307" y="-97"/>
      <point x="195" y="-46" type="curve"/>
      <point x="319" y="-17"/>
      <point x="417" y="47"/>
      <point x="500" y="130" type="curve"/>
      <point x="724" y="135"/>
      <point x="941" y="326"/>
      <point x="941" y="555" type="curve" smooth="yes"/>
      <point x="941" y="619"/>
      <point x="920" y="671"/>
      <point x="887" y="709" type="curve"/>
      <point x="923" y="765"/>
      <point x="962" y="820"/>
      <point x="1005" y="869" type="curve" smooth="yes"/>
      <point x="1048" y="919"/>
      <point x="1122" y="978"/>
      <point x="1162" y="953" type="curve"/>
      <point x="1163" y="958" type="line"/>
      <point x="1125" y="977"/>
      <point x="1058" y="935"/>
      <point x="1000" y="874" type="curve" smooth="yes"/>
      <point x="955" y="827"/>
      <point x="915" y="774"/>
      <point x="877" y="719" type="curve"/>
      <point x="833" y="765"/>
      <point x="770" y="789"/>
      <point x="705" y="789" type="curve" smooth="yes"/>
      <point x="550" y="789"/>
      <point x="406" y="663"/>
      <point x="406" y="535" type="curve" smooth="yes"/>
      <point x="406" y="506"/>
      <point x="417" y="481"/>
      <point x="436" y="456" type="curve"/>
      <point x="443" y="459" type="line"/>
      <point x="427" y="481"/>
      <point x="420" y="506"/>
      <point x="420" y="531" type="curve" smooth="yes"/>
      <point x="420" y="658"/>
      <point x="552" y="782"/>
      <point x="703" y="782" type="curve" smooth="yes"/>
      <point x="766" y="782"/>
      <point x="828" y="758"/>
      <point x="870" y="708" type="curve"/>
      <point x="740" y="516"/>
      <point x="638" y="292"/>
      <point x="484" y="136" type="curve"/>
      <point x="231" y="141"/>
      <point x="109" y="348"/>
      <point x="109" y="525" type="curve" smooth="yes"/>
      <point x="109" y="843"/>
      <point x="435" y="1230"/>
    </contour>
    <contour>
      <point x="879" y="697" type="curve"/>
      <point x="905" y="662"/>
      <point x="921" y="614"/>
      <point x="921" y="556" type="curve" smooth="yes"/>
      <point x="921" y="327"/>
      <point x="715" y="144"/>
      <point x="506" y="136" type="curve"/>
      <point x="655" y="289"/>
      <point x="755" y="506"/>
    </contour>
    <contour>
      <point x="172" y="-42" type="curve"/>
      <point x="129" y="-52"/>
      <point x="84" y="-57"/>
      <point x="35" y="-58" type="curve" smooth="yes"/>
      <point x="-59" y="-58"/>
      <point x="-110" y="-25"/>
      <point x="-110" y="-2" type="curve" smooth="yes"/>
      <point x="-110" y="12"/>
      <point x="-87" y="23"/>
      <point x="-53" y="23" type="curve" smooth="yes"/>
      <point x="21" y="23"/>
      <point x="93" y="-7"/>
    </contour>
  </outline>
</glyph>
<glyph name="E.big" format="2">
  <advance width="850"/>
  <outline>
    <contour>
      <point x="273" y="-124" type="curve" smooth="yes"/>
      <point x="546" y="-124"/>
      <point x="763" y="109"/>
      <point x="772" y="305" type="curve" smooth="yes"/>
      <point x="777" y="418"/>
      <point x="703" y="539"/>
      <point x="549" y="539" type="curve" smooth="yes"/>
      <point x="376" y="539"/>
      <point x="232" y="418"/>
      <point x="216" y="257" type="curve" smooth="yes"/>
      <point x="207" y="141"/>
      <point x="279" y="80"/>
      <point x="365" y="80" type="curve" smooth="yes"/>
      <point x="463" y="80"/>
      <point x="552" y="154"/>
      <point x="559" y="234" type="curve"/>
      <point x="563" y="260"/>
      <point x="553" y="280"/>
      <point x="536" y="300" type="curve"/>
      <point x="534" y="299" type="line"/>
      <point x="546" y="279"/>
      <point x="552" y="257"/>
      <point x="550" y="234" type="curve" smooth="yes"/>
      <point x="543" y="157"/>
      <point x="459" y="84"/>
      <point x="369" y="84" type="curve" smooth="yes"/>
      <point x="290" y="84"/>
      <point x="219" y="137"/>
      <point x="230" y="257" type="curve" smooth="yes"/>
      <point x="243" y="417"/>
      <point x="379" y="535"/>
      <point x="546" y="535" type="curve" smooth="yes"/>
      <point x="698" y="535"/>
      <point x="763" y="423"/>
      <point x="760" y="314" type="curve" smooth="yes"/>
      <point x="750" y="120"/>
      <point x="534" y="-119"/>
      <point x="275" y="-119" type="curve" smooth="yes"/>
      <point x="85" y="-119"/>
      <point x="-11" y="15"/>
      <point x="-3" y="178" type="curve" smooth="yes"/>
      <point x="10" y="430"/>
      <point x="266" y="686"/>
      <point x="516" y="713" type="curve"/>
      <point x="561" y="650"/>
      <point x="636" y="620"/>
      <point x="679" y="620" type="curve" smooth="yes"/>
      <point x="731" y="620"/>
      <point x="741" y="642"/>
      <point x="741" y="653" type="curve" smooth="yes"/>
      <point x="741" y="670"/>
      <point x="700" y="719"/>
      <point x="559" y="719" type="curve" smooth="yes"/>
      <point x="547" y="719"/>
      <point x="535" y="718"/>
      <point x="524" y="717" type="curve"/>
      <point x="506" y="747"/>
      <point x="494" y="784"/>
      <point x="494" y="830" type="curve" smooth="yes"/>
      <point x="494" y="976"/>
      <point x="624" y="1081"/>
      <point x="768" y="1081" type="curve" smooth="yes"/>
      <point x="872" y="1081"/>
      <point x="943" y="1009"/>
      <point x="943" y="933" type="curve" smooth="yes"/>
      <point x="943" y="890"/>
      <point x="924" y="825"/>
      <point x="874" y="812" type="curve"/>
      <point x="875" y="807" type="line"/>
      <point x="927" y="821"/>
      <point x="955" y="883"/>
      <point x="955" y="927" type="curve" smooth="yes"/>
      <point x="955" y="1005"/>
      <point x="874" y="1086"/>
      <point x="768" y="1086" type="curve" smooth="yes"/>
      <point x="618" y="1086"/>
      <point x="479" y="978"/>
      <point x="479" y="833" type="curve" smooth="yes"/>
      <point x="479" y="786"/>
      <point x="493" y="747"/>
      <point x="514" y="716" type="curve"/>
      <point x="264" y="690"/>
      <point x="-3" y="450"/>
      <point x="-16" y="196" type="curve" smooth="yes"/>
      <point x="-25" y="34"/>
      <point x="71" y="-124"/>
    </contour>
    <contour>
      <point x="672" y="625" type="curve" smooth="yes"/>
      <point x="631" y="625"/>
      <point x="565" y="652"/>
      <point x="526" y="714" type="curve"/>
      <point x="537" y="715"/>
      <point x="548" y="716"/>
      <point x="560" y="716" type="curve" smooth="yes"/>
      <point x="691" y="716"/>
      <point x="728" y="670"/>
      <point x="728" y="653" type="curve" smooth="yes"/>
      <point x="728" y="638"/>
      <point x="705" y="625"/>
    </contour>
  </outline>
</glyph>
<glyph name="F.big" format="2">
  <advance width="649"/>
  <outline>
    <contour>
      <point x="50" y="633" type="line"/>
      <point x="31" y="657"/>
      <point x="27" y="685"/>
      <point x="33" y="714" type="curve"/>
      <point x="43" y="810"/>
      <point x="149" y="898"/>
      <point x="263" y="898" type="curve" smooth="yes"/>
      <point x="363" y="898"/>
      <point x="454" y="833"/>
      <point x="437" y="685" type="curve" smooth="yes"/>
      <point x="417" y="511"/>
      <point x="264" y="373"/>
      <point x="96" y="367" type="curve" smooth="yes"/>
      <point x="-93" y="367"/>
      <point x="-170" y="513"/>
      <point x="-170" y="650" type="curve" smooth="yes"/>
      <point x="-170" y="914"/>
      <point x="114" y="1197"/>
      <point x="504" y="1197" type="curve" smooth="yes"/>
      <point x="779" y="1197"/>
      <point x="1150" y="1021"/>
      <point x="1424" y="1021" type="curve" smooth="yes"/>
      <point x="1499" y="1021"/>
      <point x="1565" y="1037"/>
      <point x="1621" y="1079" type="curve"/>
      <point x="1618" y="1084" type="line"/>
      <point x="1562" y="1042"/>
      <point x="1497" y="1027"/>
      <point x="1424" y="1027" type="curve" smooth="yes"/>
      <point x="1149" y="1027"/>
      <point x="797" y="1202"/>
      <point x="502" y="1202" type="curve" smooth="yes"/>
      <point x="102" y="1202"/>
      <point x="-179" y="932"/>
      <point x="-179" y="661" type="curve" smooth="yes"/>
      <point x="-179" y="520"/>
      <point x="-97" y="367"/>
      <point x="84" y="362" type="curve" smooth="yes"/>
      <point x="260" y="362"/>
      <point x="428" y="506"/>
      <point x="449" y="684" type="curve" smooth="yes"/>
      <point x="467" y="829"/>
      <point x="372" y="904"/>
      <point x="264" y="904" type="curve" smooth="yes"/>
      <point x="146" y="904"/>
      <point x="31" y="812"/>
      <point x="21" y="714" type="curve"/>
      <point x="14" y="682"/>
      <point x="24" y="655"/>
      <point x="43" y="630" type="curve"/>
    </contour>
    <contour>
      <point x="448" y="552" type="line"/>
      <point x="564" y="552" type="line"/>
      <point x="513" y="460"/>
      <point x="469" y="370"/>
      <point x="432" y="300" type="curve" smooth="yes"/>
      <point x="348" y="140"/>
      <point x="178" y="-137"/>
      <point x="-61" y="-123" type="curve" smooth="yes"/>
      <point x="-127" y="-119"/>
      <point x="-230" y="-57"/>
      <point x="-182" y="61" type="curve"/>
      <point x="-183" y="62" type="line"/>
      <point x="-238" y="-66"/>
      <point x="-136" y="-124"/>
      <point x="-63" y="-127" type="curve" smooth="yes"/>
      <point x="197" y="-141"/>
      <point x="350" y="106"/>
      <point x="458" y="314" type="curve" smooth="yes"/>
      <point x="492" y="379"/>
      <point x="532" y="465"/>
      <point x="578" y="552" type="curve"/>
      <point x="745" y="552" type="line"/>
      <point x="745" y="558" type="line"/>
      <point x="581" y="558" type="line"/>
      <point x="671" y="729"/>
      <point x="784" y="903"/>
      <point x="920" y="937" type="curve"/>
      <point x="923" y="950" type="line"/>
      <point x="784" y="906"/>
      <point x="664" y="731"/>
      <point x="567" y="558" type="curve"/>
      <point x="448" y="558" type="line"/>
    </contour>
  </outline>
</glyph>
<glyph name="G.big" format="2">
  <advance width="1034"/>
  <outline>
    <contour>
      <point x="481" y="-74" type="curve" smooth="yes"/>
      <point x="564" y="-74"/>
      <point x="643" y="-43"/>
      <point x="712" y="3" type="curve"/>
      <point x="701" y="-116"/>
      <point x="680" y="-244"/>
      <point x="617" y="-376" type="curve" smooth="yes"/>
      <point x="538" y="-541"/>
      <point x="357" y="-666"/>
      <point x="182" y="-666" type="curve" smooth="yes"/>
      <point x="21" y="-666"/>
      <point x="-95" y="-548"/>
      <point x="-95" y="-381" type="curve" smooth="yes"/>
      <point x="-90" y="-211"/>
      <point x="51" y="-81"/>
      <point x="193" y="-81" type="curve" smooth="yes"/>
      <point x="296" y="-81"/>
      <point x="354" y="-154"/>
      <point x="354" y="-233" type="curve"/>
      <point x="352" y="-310"/>
      <point x="287" y="-409"/>
      <point x="189" y="-409" type="curve" smooth="yes"/>
      <point x="174" y="-409"/>
      <point x="124" y="-406"/>
      <point x="108" y="-358" type="curve"/>
      <point x="101" y="-360" type="line"/>
      <point x="122" y="-406"/>
      <point x="164" y="-413"/>
      <point x="193" y="-413" type="curve" smooth="yes"/>
      <point x="300" y="-413"/>
      <point x="366" y="-309"/>
      <point x="366" y="-228" type="curve" smooth="yes"/>
      <point x="366" y="-143"/>
      <point x="296" y="-76"/>
      <point x="193" y="-76" type="curve" smooth="yes"/>
      <point x="41" y="-76"/>
      <point x="-112" y="-208"/>
      <point x="-112" y="-385" type="curve" smooth="yes"/>
      <point x="-112" y="-554"/>
      <point x="22" y="-672"/>
      <point x="189" y="-672" type="curve" smooth="yes"/>
      <point x="373" y="-672"/>
      <point x="565" y="-529"/>
      <point x="633" y="-386" type="curve" smooth="yes"/>
      <point x="699" y="-245"/>
      <point x="713" y="-117"/>
      <point x="722" y="9" type="curve"/>
      <point x="826" y="82"/>
      <point x="907" y="188"/>
      <point x="946" y="274" type="curve"/>
      <point x="945" y="274" type="line"/>
      <point x="969" y="325"/>
      <point x="989" y="383"/>
      <point x="989" y="421" type="curve" smooth="yes"/>
      <point x="989" y="462"/>
      <point x="971" y="485"/>
      <point x="946" y="485" type="curve" smooth="yes"/>
      <point x="848" y="485"/>
      <point x="738" y="291"/>
      <point x="713" y="15" type="curve"/>
      <point x="644" y="-33"/>
      <point x="564" y="-66"/>
      <point x="481" y="-66" type="curve" smooth="yes"/>
      <point x="282" y="-66"/>
      <point x="164" y="96"/>
      <point x="164" y="311" type="curve" smooth="yes"/>
      <point x="165" y="362"/>
      <point x="174" y="419"/>
      <point x="192" y="478" type="curve"/>
      <point x="271" y="428"/>
      <point x="372" y="398"/>
      <point x="493" y="398" type="curve" smooth="yes"/>
      <point x="921" y="398"/>
      <point x="1265" y="758"/>
      <point x="1265" y="1003" type="curve" smooth="yes"/>
      <point x="1265" y="1154"/>
      <point x="1148" y="1214"/>
      <point x="1021" y="1214" type="curve" smooth="yes"/>
      <point x="892" y="1214"/>
      <point x="770" y="1173"/>
      <point x="659" y="1106" type="curve"/>
      <point x="618" y="1205"/>
      <point x="516" y="1272"/>
      <point x="393" y="1272" type="curve" smooth="yes"/>
      <point x="201" y="1272"/>
      <point x="65" y="1099"/>
      <point x="21" y="959" type="curve" smooth="yes"/>
      <point x="6" y="912"/>
      <point x="-2" y="864"/>
      <point x="-2" y="817" type="curve" smooth="yes"/>
      <point x="-2" y="690"/>
      <point x="61" y="567"/>
      <point x="177" y="488" type="curve"/>
      <point x="159" y="426"/>
      <point x="149" y="368"/>
      <point x="149" y="315" type="curve" smooth="yes"/>
      <point x="149" y="103"/>
      <point x="260" y="-74"/>
    </contour>
    <contour>
      <point x="493" y="403" type="curve" smooth="yes"/>
      <point x="371" y="403"/>
      <point x="271" y="435"/>
      <point x="195" y="487" type="curve"/>
      <point x="218" y="563"/>
      <point x="255" y="642"/>
      <point x="302" y="719" type="curve"/>
      <point x="328" y="707"/>
      <point x="358" y="701"/>
      <point x="392" y="701" type="curve" smooth="yes"/>
      <point x="520" y="701"/>
      <point x="680" y="811"/>
      <point x="680" y="1003" type="curve" smooth="yes"/>
      <point x="680" y="1036"/>
      <point x="674" y="1067"/>
      <point x="663" y="1096" type="curve"/>
      <point x="774" y="1165"/>
      <point x="897" y="1208"/>
      <point x="1025" y="1208" type="curve" smooth="yes"/>
      <point x="1137" y="1208"/>
      <point x="1253" y="1148"/>
      <point x="1253" y="1024" type="curve" smooth="yes"/>
      <point x="1253" y="779"/>
      <point x="918" y="403"/>
    </contour>
    <contour>
      <point x="291" y="733" type="curve"/>
      <point x="240" y="762"/>
      <point x="210" y="815"/>
      <point x="210" y="872" type="curve" smooth="yes"/>
      <point x="210" y="910"/>
      <point x="222" y="953"/>
      <point x="259" y="987" type="curve"/>
      <point x="253" y="990" type="line"/>
      <point x="159" y="903"/>
      <point x="191" y="780"/>
      <point x="287" y="727" type="curve"/>
      <point x="241" y="650"/>
      <point x="204" y="572"/>
      <point x="180" y="498" type="curve"/>
      <point x="71" y="579"/>
      <point x="14" y="703"/>
      <point x="14" y="829" type="curve" smooth="yes"/>
      <point x="14" y="878"/>
      <point x="21" y="927"/>
      <point x="37" y="975" type="curve" smooth="yes"/>
      <point x="79" y="1108"/>
      <point x="204" y="1267"/>
      <point x="393" y="1267" type="curve" smooth="yes"/>
      <point x="512" y="1267"/>
      <point x="610" y="1200"/>
      <point x="647" y="1098" type="curve"/>
      <point x="502" y="1008"/>
      <point x="378" y="874"/>
    </contour>
    <contour>
      <point x="650" y="1087" type="curve"/>
      <point x="658" y="1062"/>
      <point x="663" y="1034"/>
      <point x="663" y="1005" type="curve" smooth="yes"/>
      <point x="663" y="807"/>
      <point x="508" y="707"/>
      <point x="393" y="707" type="curve" smooth="yes"/>
      <point x="360" y="707"/>
      <point x="330" y="713"/>
      <point x="305" y="725" type="curve"/>
      <point x="391" y="865"/>
      <point x="511" y="997"/>
    </contour>
    <contour>
      <point x="946" y="481" type="curve" smooth="yes"/>
      <point x="970" y="481"/>
      <point x="975" y="465"/>
      <point x="975" y="434" type="curve" smooth="yes"/>
      <point x="975" y="375"/>
      <point x="950" y="323"/>
      <point x="933" y="278" type="curve"/>
      <point x="933" y="277" type="line"/>
      <point x="895" y="193"/>
      <point x="819" y="92"/>
      <point x="723" y="22" type="curve"/>
      <point x="743" y="269"/>
      <point x="874" y="481"/>
    </contour>
  </outline>
</glyph>
<glyph name="H.big" format="2">
  <advance width="1075"/>
  <outline>
    <contour>
      <point x="565" y="1208" type="curve" smooth="yes"/>
      <point x="753" y="1208"/>
      <point x="965" y="1150"/>
      <point x="965" y="1062" type="curve" smooth="yes"/>
      <point x="965" y="1023"/>
      <point x="907" y="1006"/>
      <point x="869" y="984" type="curve" smooth="yes"/>
      <point x="779" y="930"/>
      <point x="650" y="769"/>
      <point x="555" y="603" type="curve" smooth="yes"/>
      <point x="552" y="598" type="line" smooth="yes"/>
      <point x="532" y="562"/>
      <point x="512" y="526"/>
      <point x="494" y="490" type="curve"/>
      <point x="402" y="490" type="line"/>
      <point x="399" y="485" type="line"/>
      <point x="491" y="485" type="line"/>
      <point x="464" y="433"/>
      <point x="440" y="383"/>
      <point x="419" y="343" type="curve" smooth="yes"/>
      <point x="337" y="189"/>
      <point x="188" y="-69"/>
      <point x="-50" y="-69" type="curve" smooth="yes"/>
      <point x="-103" y="-69"/>
      <point x="-197" y="-34"/>
      <point x="-197" y="56" type="curve" smooth="yes"/>
      <point x="-197" y="74"/>
      <point x="-193" y="92"/>
      <point x="-185" y="114" type="curve"/>
      <point x="-186" y="115" type="line"/>
      <point x="-197" y="89"/>
      <point x="-202" y="65"/>
      <point x="-202" y="45" type="curve" smooth="yes"/>
      <point x="-202" y="-48"/>
      <point x="-103" y="-78"/>
      <point x="-45" y="-78" type="curve" smooth="yes"/>
      <point x="202" y="-78"/>
      <point x="344" y="162"/>
      <point x="448" y="361" type="curve" smooth="yes"/>
      <point x="465" y="397"/>
      <point x="485" y="440"/>
      <point x="508" y="485" type="curve"/>
      <point x="992" y="485" type="line"/>
      <point x="958" y="419"/>
      <point x="927" y="352"/>
      <point x="897" y="287" type="curve" smooth="yes"/>
      <point x="761" y="-12"/>
      <point x="785" y="-284"/>
      <point x="935" y="-463" type="curve"/>
      <point x="809" y="-524"/>
      <point x="681" y="-569"/>
      <point x="556" y="-569" type="curve" smooth="yes"/>
      <point x="343" y="-569"/>
      <point x="131" y="-482"/>
      <point x="131" y="-265" type="curve" smooth="yes"/>
      <point x="131" y="-154"/>
      <point x="232" y="-82"/>
      <point x="323" y="-82" type="curve" smooth="yes"/>
      <point x="340" y="-82"/>
      <point x="359" y="-85"/>
      <point x="379" y="-91" type="curve"/>
      <point x="381" y="-87" type="line"/>
      <point x="361" y="-81"/>
      <point x="342" y="-78"/>
      <point x="323" y="-78" type="curve" smooth="yes"/>
      <point x="220" y="-78"/>
      <point x="124" y="-160"/>
      <point x="124" y="-269" type="curve" smooth="yes"/>
      <point x="124" y="-488"/>
      <point x="323" y="-580"/>
      <point x="538" y="-580" type="curve" smooth="yes"/>
      <point x="671" y="-580"/>
      <point x="806" y="-532"/>
      <point x="938" y="-468" type="curve"/>
      <point x="1046" y="-594"/>
      <point x="1216" y="-672"/>
      <point x="1437" y="-680" type="curve" smooth="yes"/>
      <point x="1452" y="-680" type="line" smooth="yes"/>
      <point x="1702" y="-680"/>
      <point x="2127" y="-537"/>
      <point x="2127" y="-275" type="curve" smooth="yes"/>
      <point x="2127" y="-170"/>
      <point x="2015" y="-72"/>
      <point x="1848" y="-72" type="curve" smooth="yes"/>
      <point x="1631" y="-72"/>
      <point x="1409" y="-193"/>
      <point x="1196" y="-319" type="curve" smooth="yes"/>
      <point x="1115" y="-367"/>
      <point x="1031" y="-416"/>
      <point x="946" y="-458" type="curve"/>
      <point x="801" y="-278"/>
      <point x="778" y="-5"/>
      <point x="915" y="286" type="curve" smooth="yes"/>
      <point x="946" y="352"/>
      <point x="978" y="419"/>
      <point x="1011" y="485" type="curve"/>
      <point x="1105" y="485" type="line"/>
      <point x="1105" y="490" type="line"/>
      <point x="1014" y="490" type="line"/>
      <point x="1201" y="862"/>
      <point x="1419" y="1203"/>
      <point x="1659" y="1203" type="curve" smooth="yes"/>
      <point x="1711" y="1203"/>
      <point x="1761" y="1167"/>
      <point x="1771" y="1110" type="curve"/>
      <point x="1774" y="1117"/>
      <point x="1775" y="1124"/>
      <point x="1775" y="1130" type="curve" smooth="yes"/>
      <point x="1775" y="1177"/>
      <point x="1715" y="1208"/>
      <point x="1662" y="1208" type="curve" smooth="yes"/>
      <point x="1424" y="1208"/>
      <point x="1184" y="863"/>
      <point x="994" y="490" type="curve"/>
      <point x="510" y="490" type="line"/>
      <point x="528" y="526"/>
      <point x="547" y="563"/>
      <point x="568" y="601" type="curve" smooth="yes"/>
      <point x="571" y="606" type="line" smooth="yes"/>
      <point x="659" y="770"/>
      <point x="791" y="928"/>
      <point x="870" y="977" type="curve" smooth="yes"/>
      <point x="914" y="1006"/>
      <point x="979" y="1019"/>
      <point x="979" y="1062" type="curve" smooth="yes"/>
      <point x="979" y="1160"/>
      <point x="744" y="1215"/>
      <point x="565" y="1215" type="curve" smooth="yes"/>
      <point x="261" y="1215"/>
      <point x="-85" y="1032"/>
      <point x="-85" y="720" type="curve" smooth="yes"/>
      <point x="-85" y="593"/>
      <point x="-10" y="454"/>
      <point x="154" y="450" type="curve" smooth="yes"/>
      <point x="319" y="450"/>
      <point x="480" y="593"/>
      <point x="480" y="762" type="curve" smooth="yes"/>
      <point x="480" y="874"/>
      <point x="402" y="934"/>
      <point x="315" y="934" type="curve" smooth="yes"/>
      <point x="202" y="934"/>
      <point x="94" y="841"/>
      <point x="94" y="747" type="curve" smooth="yes"/>
      <point x="94" y="725"/>
      <point x="104" y="708"/>
      <point x="117" y="689" type="curve"/>
      <point x="123" y="692" type="line"/>
      <point x="112" y="708"/>
      <point x="107" y="725"/>
      <point x="107" y="744" type="curve" smooth="yes"/>
      <point x="107" y="837"/>
      <point x="202" y="928"/>
      <point x="313" y="928" type="curve" smooth="yes"/>
      <point x="393" y="928"/>
      <point x="464" y="879"/>
      <point x="464" y="769" type="curve" smooth="yes"/>
      <point x="464" y="599"/>
      <point x="317" y="462"/>
      <point x="165" y="455" type="curve" smooth="yes"/>
      <point x="-5" y="455"/>
      <point x="-75" y="586"/>
      <point x="-75" y="709" type="curve" smooth="yes"/>
      <point x="-75" y="954"/>
      <point x="176" y="1207"/>
    </contour>
    <contour>
      <point x="1434" y="-673" type="line" smooth="yes"/>
      <point x="1220" y="-668"/>
      <point x="1054" y="-589"/>
      <point x="950" y="-462" type="curve"/>
      <point x="1034" y="-420"/>
      <point x="1117" y="-371"/>
      <point x="1198" y="-324" type="curve" smooth="yes"/>
      <point x="1410" y="-198"/>
      <point x="1629" y="-80"/>
      <point x="1837" y="-80" type="curve" smooth="yes"/>
      <point x="2003" y="-80"/>
      <point x="2108" y="-172"/>
      <point x="2108" y="-279" type="curve" smooth="yes"/>
      <point x="2108" y="-538"/>
      <point x="1694" y="-673"/>
      <point x="1452" y="-673" type="curve" smooth="yes"/>
    </contour>
  </outline>
</glyph>
<glyph name="I.big" format="2">
  <advance width="602"/>
  <outline>
    <contour>
      <point x="1051" y="1197" type="curve" smooth="yes"/>
      <point x="997" y="1163"/>
      <point x="932" y="1091"/>
      <point x="868" y="1006" type="curve"/>
      <point x="818" y="975"/>
      <point x="767" y="946"/>
      <point x="717" y="918" type="curve" smooth="yes"/>
      <point x="394" y="738"/>
      <point x="47" y="539"/>
      <point x="47" y="200" type="curve" smooth="yes"/>
      <point x="47" y="96"/>
      <point x="81" y="4"/>
      <point x="135" y="-66" type="curve"/>
      <point x="82" y="-95"/>
      <point x="25" y="-112"/>
      <point x="-39" y="-112" type="curve" smooth="yes"/>
      <point x="-96" y="-112"/>
      <point x="-197" y="-75"/>
      <point x="-197" y="22" type="curve" smooth="yes"/>
      <point x="-197" y="41"/>
      <point x="-192" y="60"/>
      <point x="-184" y="84" type="curve"/>
      <point x="-185" y="85" type="line"/>
      <point x="-197" y="57"/>
      <point x="-202" y="31"/>
      <point x="-202" y="10" type="curve" smooth="yes"/>
      <point x="-202" y="-90"/>
      <point x="-96" y="-122"/>
      <point x="-34" y="-122" type="curve" smooth="yes"/>
      <point x="32" y="-122"/>
      <point x="91" y="-105"/>
      <point x="145" y="-78" type="curve"/>
      <point x="216" y="-164"/>
      <point x="317" y="-217"/>
      <point x="419" y="-217" type="curve" smooth="yes"/>
      <point x="465" y="-217"/>
      <point x="513" y="-204"/>
      <point x="561" y="-174" type="curve"/>
      <point x="559" y="-170" type="line"/>
      <point x="511" y="-200"/>
      <point x="462" y="-213"/>
      <point x="419" y="-213" type="curve" smooth="yes"/>
      <point x="318" y="-213"/>
      <point x="218" y="-161"/>
      <point x="149" y="-75" type="curve"/>
      <point x="306" y="8"/>
      <point x="410" y="190"/>
      <point x="493" y="348" type="curve" smooth="yes"/>
      <point x="528" y="419"/>
      <point x="572" y="512"/>
      <point x="622" y="605" type="curve" smooth="yes"/>
      <point x="625" y="610" type="line" smooth="yes"/>
      <point x="679" y="711"/>
      <point x="772" y="872"/>
      <point x="872" y="1004" type="curve"/>
      <point x="951" y="1051"/>
      <point x="1025" y="1100"/>
      <point x="1090" y="1153" type="curve" smooth="yes"/>
      <point x="1126" y="1180"/>
      <point x="1160" y="1207"/>
      <point x="1160" y="1223" type="curve" smooth="yes"/>
      <point x="1160" y="1231"/>
      <point x="1153" y="1236"/>
      <point x="1142" y="1236" type="curve" smooth="yes"/>
      <point x="1126" y="1236"/>
      <point x="1088" y="1222"/>
    </contour>
    <contour>
      <point x="608" y="607" type="curve"/>
      <point x="605" y="601" type="line"/>
      <point x="551" y="506"/>
      <point x="501" y="404"/>
      <point x="462" y="329" type="curve" smooth="yes"/>
      <point x="397" y="206"/>
      <point x="293" y="23"/>
      <point x="139" y="-63" type="curve"/>
      <point x="92" y="1"/>
      <point x="62" y="83"/>
      <point x="62" y="177" type="curve" smooth="yes"/>
      <point x="62" y="522"/>
      <point x="394" y="728"/>
      <point x="719" y="914" type="curve" smooth="yes"/>
      <point x="860" y="996" type="line"/>
      <point x="761" y="864"/>
      <point x="663" y="703"/>
    </contour>
    <contour>
      <point x="1087" y="1156" type="curve" smooth="yes"/>
      <point x="1026" y="1107"/>
      <point x="954" y="1059"/>
      <point x="879" y="1013" type="curve"/>
      <point x="937" y="1088"/>
      <point x="997" y="1152"/>
      <point x="1054" y="1191" type="curve" smooth="yes"/>
      <point x="1087" y="1212"/>
      <point x="1110" y="1222"/>
      <point x="1124" y="1222" type="curve" smooth="yes"/>
      <point x="1132" y="1222"/>
      <point x="1137" y="1219"/>
      <point x="1137" y="1213" type="curve" smooth="yes"/>
      <point x="1137" y="1202"/>
      <point x="1121" y="1182"/>
    </contour>
  </outline>
</glyph>
<glyph name="J.big" format="2">
  <advance width="602"/>
  <outline>
    <contour>
      <point x="852" y="889" type="curve" smooth="yes"/>
      <point x="896" y="915"/>
      <point x="955" y="927"/>
      <point x="955" y="968" type="curve" smooth="yes"/>
      <point x="955" y="1064"/>
      <point x="728" y="1119"/>
      <point x="550" y="1121" type="curve" smooth="yes"/>
      <point x="541" y="1121" type="line" smooth="yes"/>
      <point x="239" y="1118"/>
      <point x="-101" y="935"/>
      <point x="-101" y="626" type="curve" smooth="yes"/>
      <point x="-101" y="499"/>
      <point x="-26" y="360"/>
      <point x="138" y="356" type="curve" smooth="yes"/>
      <point x="303" y="356"/>
      <point x="464" y="499"/>
      <point x="464" y="668" type="curve" smooth="yes"/>
      <point x="464" y="780"/>
      <point x="386" y="840"/>
      <point x="299" y="840" type="curve" smooth="yes"/>
      <point x="186" y="840"/>
      <point x="78" y="747"/>
      <point x="78" y="653" type="curve" smooth="yes"/>
      <point x="78" y="631"/>
      <point x="88" y="614"/>
      <point x="101" y="595" type="curve"/>
      <point x="107" y="598" type="line"/>
      <point x="96" y="614"/>
      <point x="91" y="631"/>
      <point x="91" y="650" type="curve" smooth="yes"/>
      <point x="91" y="743"/>
      <point x="186" y="834"/>
      <point x="297" y="834" type="curve" smooth="yes"/>
      <point x="377" y="834"/>
      <point x="448" y="785"/>
      <point x="448" y="675" type="curve" smooth="yes"/>
      <point x="448" y="505"/>
      <point x="301" y="368"/>
      <point x="149" y="361" type="curve" smooth="yes"/>
      <point x="-21" y="361"/>
      <point x="-91" y="492"/>
      <point x="-91" y="615" type="curve" smooth="yes"/>
      <point x="-91" y="860"/>
      <point x="161" y="1114"/>
      <point x="550" y="1114" type="curve" smooth="yes"/>
      <point x="735" y="1112"/>
      <point x="941" y="1054"/>
      <point x="941" y="968" type="curve" smooth="yes"/>
      <point x="941" y="931"/>
      <point x="889" y="913"/>
      <point x="851" y="893" type="curve"/>
      <point x="665" y="776"/>
      <point x="492" y="423"/>
      <point x="392" y="235" type="curve" smooth="yes"/>
      <point x="305" y="69"/>
      <point x="122" y="-209"/>
      <point x="-118" y="-191" type="curve" smooth="yes"/>
      <point x="-185" y="-186"/>
      <point x="-292" y="-122"/>
      <point x="-242" y="-1" type="curve"/>
      <point x="-243" y="0" type="line"/>
      <point x="-301" y="-134"/>
      <point x="-195" y="-195"/>
      <point x="-118" y="-199" type="curve" smooth="yes"/>
      <point x="152" y="-213"/>
      <point x="311" y="42"/>
      <point x="422" y="255" type="curve" smooth="yes"/>
      <point x="516" y="435"/>
      <point x="674" y="780"/>
    </contour>
  </outline>
</glyph>
<glyph name="K.big" format="2">
  <advance width="906"/>
  <outline>
    <contour>
      <point x="876" y="974" type="curve" smooth="yes"/>
      <point x="920" y="1000"/>
      <point x="979" y="1012"/>
      <point x="979" y="1053" type="curve" smooth="yes"/>
      <point x="979" y="1149"/>
      <point x="752" y="1204"/>
      <point x="574" y="1206" type="curve" smooth="yes"/>
      <point x="565" y="1206" type="line" smooth="yes"/>
      <point x="219" y="1203"/>
      <point x="-165" y="965"/>
      <point x="-165" y="601" type="curve" smooth="yes"/>
      <point x="-165" y="461"/>
      <point x="-77" y="309"/>
      <point x="100" y="305" type="curve" smooth="yes"/>
      <point x="196" y="305"/>
      <point x="291" y="353"/>
      <point x="354" y="428" type="curve"/>
      <point x="384" y="414"/>
      <point x="414" y="396"/>
      <point x="445" y="375" type="curve"/>
      <point x="434" y="356"/>
      <point x="425" y="337"/>
      <point x="416" y="320" type="curve" smooth="yes"/>
      <point x="329" y="154"/>
      <point x="146" y="-124"/>
      <point x="-94" y="-106" type="curve" smooth="yes"/>
      <point x="-161" y="-101"/>
      <point x="-268" y="-37"/>
      <point x="-218" y="84" type="curve"/>
      <point x="-219" y="85" type="line"/>
      <point x="-277" y="-49"/>
      <point x="-171" y="-110"/>
      <point x="-94" y="-114" type="curve" smooth="yes"/>
      <point x="176" y="-128"/>
      <point x="335" y="127"/>
      <point x="446" y="340" type="curve" smooth="yes"/>
      <point x="459" y="365" type="line"/>
      <point x="566" y="288"/>
      <point x="673" y="169"/>
      <point x="770" y="23" type="curve" smooth="yes"/>
      <point x="1012" y="-326"/>
      <point x="1228" y="-688"/>
      <point x="1728" y="-705" type="curve" smooth="yes"/>
      <point x="2075" y="-716"/>
      <point x="2279" y="-513"/>
      <point x="2283" y="-377" type="curve" smooth="yes"/>
      <point x="2285" y="-326"/>
      <point x="2249" y="-265"/>
      <point x="2188" y="-263" type="curve" smooth="yes"/>
      <point x="2176" y="-263"/>
      <point x="2163" y="-264"/>
      <point x="2150" y="-270" type="curve"/>
      <point x="2152" y="-274" type="line"/>
      <point x="2165" y="-269"/>
      <point x="2178" y="-267"/>
      <point x="2188" y="-267" type="curve" smooth="yes"/>
      <point x="2243" y="-269"/>
      <point x="2279" y="-322"/>
      <point x="2277" y="-379" type="curve" smooth="yes"/>
      <point x="2273" y="-507"/>
      <point x="2077" y="-703"/>
      <point x="1736" y="-691" type="curve" smooth="yes"/>
      <point x="1257" y="-674"/>
      <point x="986" y="-290"/>
      <point x="777" y="24" type="curve" smooth="yes"/>
      <point x="716" y="116"/>
      <point x="631" y="225"/>
      <point x="532" y="314" type="curve"/>
      <point x="661" y="337"/>
      <point x="841" y="512"/>
      <point x="988" y="668" type="curve" smooth="yes"/>
      <point x="1161" y="858"/>
      <point x="1345" y="1061"/>
      <point x="1526" y="1061" type="curve" smooth="yes"/>
      <point x="1600" y="1061"/>
      <point x="1667" y="1016"/>
      <point x="1650" y="953" type="curve"/>
      <point x="1656" y="951" type="line"/>
      <point x="1675" y="1008"/>
      <point x="1602" y="1074"/>
      <point x="1514" y="1074" type="curve" smooth="yes"/>
      <point x="1336" y="1074"/>
      <point x="1156" y="856"/>
      <point x="986" y="674" type="curve" smooth="yes"/>
      <point x="838" y="519"/>
      <point x="653" y="337"/>
      <point x="525" y="320" type="curve"/>
      <point x="505" y="338"/>
      <point x="483" y="355"/>
      <point x="462" y="371" type="curve"/>
      <point x="557" y="557"/>
      <point x="708" y="871"/>
    </contour>
    <contour>
      <point x="207" y="464" type="line"/>
      <point x="250" y="463"/>
      <point x="296" y="452"/>
      <point x="341" y="433" type="curve"/>
      <point x="284" y="361"/>
      <point x="198" y="314"/>
      <point x="111" y="310" type="curve" smooth="yes"/>
      <point x="-72" y="310"/>
      <point x="-155" y="454"/>
      <point x="-155" y="590" type="curve" smooth="yes"/>
      <point x="-155" y="890"/>
      <point x="141" y="1199"/>
      <point x="574" y="1199" type="curve" smooth="yes"/>
      <point x="759" y="1197"/>
      <point x="965" y="1139"/>
      <point x="965" y="1053" type="curve" smooth="yes"/>
      <point x="965" y="1016"/>
      <point x="913" y="998"/>
      <point x="875" y="978" type="curve"/>
      <point x="707" y="872"/>
      <point x="550" y="576"/>
      <point x="448" y="381" type="curve"/>
      <point x="419" y="401"/>
      <point x="389" y="418"/>
      <point x="358" y="433" type="curve"/>
      <point x="400" y="485"/>
      <point x="426" y="549"/>
      <point x="426" y="617" type="curve" smooth="yes"/>
      <point x="426" y="729"/>
      <point x="348" y="789"/>
      <point x="261" y="789" type="curve" smooth="yes"/>
      <point x="148" y="789"/>
      <point x="40" y="696"/>
      <point x="40" y="602" type="curve" smooth="yes"/>
      <point x="40" y="580"/>
      <point x="50" y="563"/>
      <point x="63" y="544" type="curve"/>
      <point x="69" y="547" type="line"/>
      <point x="58" y="563"/>
      <point x="53" y="580"/>
      <point x="53" y="599" type="curve" smooth="yes"/>
      <point x="53" y="692"/>
      <point x="148" y="783"/>
      <point x="259" y="783" type="curve" smooth="yes"/>
      <point x="339" y="783"/>
      <point x="410" y="734"/>
      <point x="410" y="624" type="curve" smooth="yes"/>
      <point x="410" y="554"/>
      <point x="385" y="490"/>
      <point x="345" y="438" type="curve"/>
      <point x="298" y="459"/>
      <point x="249" y="471"/>
      <point x="200" y="473" type="curve"/>
    </contour>
  </outline>
</glyph>
<glyph name="P.001" format="2">
  <advance width="809"/>
  <outline>
    <contour>
      <point x="125" y="532" type="line"/>
      <point x="111" y="551"/>
      <point x="107" y="574"/>
      <point x="112" y="596" type="curve"/>
      <point x="120" y="672"/>
      <point x="204" y="742"/>
      <point x="294" y="742" type="curve" smooth="yes"/>
      <point x="371" y="742"/>
      <point x="441" y="690"/>
      <point x="428" y="574" type="curve" smooth="yes"/>
      <point x="411" y="436"/>
      <point x="293" y="322"/>
      <point x="162" y="322" type="curve" smooth="yes"/>
      <point x="17" y="322"/>
      <point x="-39" y="441"/>
      <point x="-39" y="541" type="curve" smooth="yes"/>
      <point x="-39" y="744"/>
      <point x="191" y="990"/>
      <point x="483" y="990" type="curve" smooth="yes"/>
      <point x="618" y="990"/>
      <point x="719" y="937"/>
      <point x="778" y="861" type="curve"/>
      <point x="748" y="874"/>
      <point x="698" y="836"/>
      <point x="655" y="787" type="curve" smooth="yes"/>
      <point x="554" y="671"/>
      <point x="448" y="456"/>
      <point x="377" y="322" type="curve" smooth="yes"/>
      <point x="293" y="162"/>
      <point x="166" y="-12"/>
      <point x="1" y="-13" type="curve" smooth="yes"/>
      <point x="-58" y="-13"/>
      <point x="-147" y="40"/>
      <point x="-109" y="133" type="curve"/>
      <point x="-110" y="134" type="line"/>
      <point x="-154" y="31"/>
      <point x="-65" y="-19"/>
      <point x="1" y="-19" type="curve" smooth="yes"/>
      <point x="185" y="-19"/>
      <point x="304" y="140"/>
      <point x="400" y="329" type="curve" smooth="yes"/>
      <point x="466" y="458"/>
      <point x="574" y="674"/>
      <point x="660" y="783" type="curve" smooth="yes"/>
      <point x="694" y="825"/>
      <point x="756" y="879"/>
      <point x="784" y="853" type="curve"/>
      <point x="819" y="804"/>
      <point x="838" y="746"/>
      <point x="838" y="688" type="curve" smooth="yes"/>
      <point x="838" y="532"/>
      <point x="705" y="371"/>
      <point x="544" y="371" type="curve" smooth="yes"/>
      <point x="514" y="371"/>
      <point x="469" y="385"/>
      <point x="472" y="404" type="curve"/>
      <point x="468" y="404" type="line"/>
      <point x="465" y="383"/>
      <point x="511" y="367"/>
      <point x="544" y="367" type="curve" smooth="yes"/>
      <point x="714" y="367"/>
      <point x="857" y="523"/>
      <point x="857" y="684" type="curve" smooth="yes"/>
      <point x="857" y="851"/>
      <point x="705" y="995"/>
      <point x="477" y="995" type="curve" smooth="yes"/>
      <point x="184" y="995"/>
      <point x="-48" y="758"/>
      <point x="-48" y="553" type="curve" smooth="yes"/>
      <point x="-48" y="448"/>
      <point x="13" y="318"/>
      <point x="152" y="318" type="curve" smooth="yes"/>
      <point x="291" y="318"/>
      <point x="424" y="432"/>
      <point x="441" y="573" type="curve" smooth="yes"/>
      <point x="455" y="688"/>
      <point x="380" y="746"/>
      <point x="295" y="746" type="curve" smooth="yes"/>
      <point x="201" y="746"/>
      <point x="111" y="674"/>
      <point x="102" y="596" type="curve"/>
      <point x="97" y="571"/>
      <point x="105" y="550"/>
      <point x="120" y="530" type="curve"/>
    </contour>
  </outline>
</glyph>
<glyph name="P.7" format="2">
  <advance width="809"/>
  <outline>
    <contour>
      <point x="125" y="532" type="line"/>
      <point x="111" y="551"/>
      <point x="107" y="574"/>
      <point x="112" y="596" type="curve"/>
      <point x="120" y="672"/>
      <point x="204" y="742"/>
      <point x="294" y="742" type="curve" smooth="yes"/>
      <point x="371" y="742"/>
      <point x="441" y="690"/>
      <point x="428" y="574" type="curve" smooth="yes"/>
      <point x="411" y="436"/>
      <point x="293" y="322"/>
      <point x="162" y="322" type="curve" smooth="yes"/>
      <point x="17" y="322"/>
      <point x="-39" y="441"/>
      <point x="-39" y="541" type="curve" smooth="yes"/>
      <point x="-39" y="744"/>
      <point x="191" y="990"/>
      <point x="483" y="990" type="curve" smooth="yes"/>
      <point x="572" y="990"/>
      <point x="646" y="967"/>
      <point x="703" y="929" type="curve"/>
      <point x="624" y="839"/>
      <point x="558" y="728"/>
      <point x="494" y="623" type="curve" smooth="yes"/>
      <point x="492" y="620" type="line"/>
      <point x="496" y="634"/>
      <point x="498" y="648"/>
      <point x="499" y="662" type="curve" smooth="yes"/>
      <point x="500" y="691"/>
      <point x="485" y="727"/>
      <point x="450" y="734" type="curve"/>
      <point x="450" y="730" type="line"/>
      <point x="478" y="723"/>
      <point x="489" y="690"/>
      <point x="488" y="661" type="curve" smooth="yes"/>
      <point x="487" y="641"/>
      <point x="484" y="617"/>
      <point x="477" y="594" type="curve"/>
      <point x="474" y="590" type="line"/>
      <point x="473" y="585" type="line"/>
      <point x="471" y="578"/>
      <point x="468" y="572"/>
      <point x="465" y="566" type="curve"/>
      <point x="469" y="564" type="line"/>
      <point x="475" y="575"/>
      <point x="481" y="586"/>
      <point x="485" y="598" type="curve"/>
      <point x="499" y="621" type="line" smooth="yes"/>
      <point x="561" y="724"/>
      <point x="629" y="834"/>
      <point x="710" y="924" type="curve"/>
      <point x="737" y="906"/>
      <point x="759" y="885"/>
      <point x="778" y="861" type="curve"/>
      <point x="748" y="874"/>
      <point x="698" y="836"/>
      <point x="655" y="787" type="curve" smooth="yes"/>
      <point x="554" y="671"/>
      <point x="448" y="456"/>
      <point x="377" y="322" type="curve" smooth="yes"/>
      <point x="324" y="222"/>
      <point x="255" y="116"/>
      <point x="170" y="51" type="curve"/>
      <point x="158" y="60"/>
      <point x="146" y="70"/>
      <point x="134" y="80" type="curve" smooth="yes"/>
      <point x="33" y="160"/>
      <point x="-65" y="242"/>
      <point x="-150" y="242" type="curve" smooth="yes"/>
      <point x="-219" y="242"/>
      <point x="-273" y="198"/>
      <point x="-273" y="150" type="curve" smooth="yes"/>
      <point x="-273" y="145"/>
      <point x="-272" y="142"/>
      <point x="-268" y="140" type="curve"/>
      <point x="-266" y="144" type="line"/>
      <point x="-268" y="145"/>
      <point x="-269" y="147"/>
      <point x="-269" y="150" type="curve" smooth="yes"/>
      <point x="-269" y="196"/>
      <point x="-217" y="233"/>
      <point x="-150" y="233" type="curve" smooth="yes"/>
      <point x="-69" y="233"/>
      <point x="34" y="154"/>
      <point x="132" y="76" type="curve" smooth="yes"/>
      <point x="167" y="48" type="line"/>
      <point x="117" y="11"/>
      <point x="61" y="-12"/>
      <point x="1" y="-13" type="curve" smooth="yes"/>
      <point x="-58" y="-13"/>
      <point x="-147" y="40"/>
      <point x="-109" y="133" type="curve"/>
      <point x="-110" y="134" type="line"/>
      <point x="-154" y="31"/>
      <point x="-65" y="-19"/>
      <point x="1" y="-19" type="curve" smooth="yes"/>
      <point x="68" y="-19"/>
      <point x="127" y="2"/>
      <point x="179" y="39" type="curve"/>
      <point x="277" y="-36"/>
      <point x="382" y="-106"/>
      <point x="478" y="-106" type="curve" smooth="yes"/>
      <point x="574" y="-106"/>
      <point x="647" y="-39"/>
      <point x="633" y="33" type="curve"/>
      <point x="629" y="33" type="line"/>
      <point x="643" y="-37"/>
      <point x="565" y="-100"/>
      <point x="472" y="-100" type="curve" smooth="yes"/>
      <point x="378" y="-100"/>
      <point x="279" y="-33"/>
      <point x="183" y="41" type="curve"/>
      <point x="271" y="104"/>
      <point x="340" y="211"/>
      <point x="400" y="329" type="curve" smooth="yes"/>
      <point x="466" y="458"/>
      <point x="574" y="674"/>
      <point x="660" y="783" type="curve" smooth="yes"/>
      <point x="694" y="825"/>
      <point x="756" y="879"/>
      <point x="784" y="853" type="curve"/>
      <point x="819" y="804"/>
      <point x="838" y="746"/>
      <point x="838" y="688" type="curve" smooth="yes"/>
      <point x="838" y="532"/>
      <point x="705" y="371"/>
      <point x="544" y="371" type="curve" smooth="yes"/>
      <point x="514" y="371"/>
      <point x="469" y="385"/>
      <point x="472" y="404" type="curve"/>
      <point x="468" y="404" type="line"/>
      <point x="465" y="383"/>
      <point x="511" y="367"/>
      <point x="544" y="367" type="curve" smooth="yes"/>
      <point x="714" y="367"/>
      <point x="857" y="523"/>
      <point x="857" y="684" type="curve" smooth="yes"/>
      <point x="857" y="782"/>
      <point x="805" y="872"/>
      <point x="715" y="930" type="curve"/>
      <point x="813" y="1038"/>
      <point x="930" y="1116"/>
      <point x="1078" y="1116" type="curve" smooth="yes"/>
      <point x="1168" y="1116"/>
      <point x="1310" y="1069"/>
      <point x="1310" y="935" type="curve" smooth="yes"/>
      <point x="1310" y="875"/>
      <point x="1266" y="824"/>
      <point x="1213" y="838" type="curve"/>
      <point x="1211" y="834" type="line"/>
      <point x="1268" y="819"/>
      <point x="1321" y="878"/>
      <point x="1321" y="940" type="curve" smooth="yes"/>
      <point x="1321" y="1076"/>
      <point x="1170" y="1120"/>
      <point x="1078" y="1120" type="curve" smooth="yes"/>
      <point x="962" y="1120"/>
      <point x="865" y="1077"/>
      <point x="783" y="1008" type="curve" smooth="yes"/>
      <point x="756" y="986"/>
      <point x="731" y="961"/>
      <point x="707" y="934" type="curve"/>
      <point x="646" y="972"/>
      <point x="567" y="995"/>
      <point x="477" y="995" type="curve" smooth="yes"/>
      <point x="184" y="995"/>
      <point x="-48" y="758"/>
      <point x="-48" y="553" type="curve" smooth="yes"/>
      <point x="-48" y="448"/>
      <point x="13" y="318"/>
      <point x="152" y="318" type="curve" smooth="yes"/>
      <point x="291" y="318"/>
      <point x="424" y="432"/>
      <point x="441" y="573" type="curve" smooth="yes"/>
      <point x="455" y="688"/>
      <point x="380" y="746"/>
      <point x="295" y="746" type="curve" smooth="yes"/>
      <point x="201" y="746"/>
      <point x="111" y="674"/>
      <point x="102" y="596" type="curve"/>
      <point x="97" y="571"/>
      <point x="105" y="550"/>
      <point x="120" y="530" type="curve"/>
    </contour>
  </outline>
</glyph>
<glyph name="P.big" format="2">
  <advance width="940"/>
  <outline>
    <contour>
      <point x="966" y="950" type="line"/>
      <point x="788" y="893"/>
      <point x="641" y="624"/>
      <point x="535" y="417" type="curve"/>
      <point x="519" y="429"/>
      <point x="504" y="446"/>
      <point x="492" y="467" type="curve"/>
      <point x="489" y="463" type="line"/>
      <point x="499" y="440"/>
      <point x="514" y="423"/>
      <point x="531" y="410" type="curve"/>
      <point x="475" y="300" type="line" smooth="yes"/>
      <point x="391" y="140"/>
      <point x="221" y="-137"/>
      <point x="-18" y="-123" type="curve" smooth="yes"/>
      <point x="-84" y="-119"/>
      <point x="-187" y="-57"/>
      <point x="-139" y="61" type="curve"/>
      <point x="-140" y="62" type="line"/>
      <point x="-195" y="-66"/>
      <point x="-93" y="-124"/>
      <point x="-20" y="-127" type="curve" smooth="yes"/>
      <point x="240" y="-141"/>
      <point x="393" y="106"/>
      <point x="501" y="314" type="curve" smooth="yes"/>
      <point x="545" y="401" type="line"/>
      <point x="586" y="377"/>
      <point x="635" y="373"/>
      <point x="669" y="373" type="curve" smooth="yes"/>
      <point x="919" y="373"/>
      <point x="1129" y="626"/>
      <point x="1129" y="861" type="curve" smooth="yes"/>
      <point x="1129" y="1118"/>
      <point x="896" y="1340"/>
      <point x="545" y="1340" type="curve" smooth="yes"/>
      <point x="94" y="1340"/>
      <point x="-263" y="975"/>
      <point x="-263" y="660" type="curve" smooth="yes"/>
      <point x="-263" y="498"/>
      <point x="-169" y="305"/>
      <point x="45" y="298" type="curve" smooth="yes"/>
      <point x="57" y="298" type="line" smooth="yes"/>
      <point x="266" y="305"/>
      <point x="463" y="477"/>
      <point x="489" y="690" type="curve" smooth="yes"/>
      <point x="511" y="867"/>
      <point x="396" y="957"/>
      <point x="265" y="957" type="curve" smooth="yes"/>
      <point x="120" y="957"/>
      <point x="-18" y="846"/>
      <point x="-32" y="726" type="curve"/>
      <point x="-40" y="687"/>
      <point x="-27" y="655"/>
      <point x="-4" y="624" type="curve"/>
      <point x="3" y="627" type="line"/>
      <point x="-18" y="657"/>
      <point x="-24" y="692"/>
      <point x="-17" y="726" type="curve"/>
      <point x="-4" y="843"/>
      <point x="125" y="950"/>
      <point x="263" y="950" type="curve" smooth="yes"/>
      <point x="382" y="950"/>
      <point x="489" y="870"/>
      <point x="469" y="692" type="curve" smooth="yes"/>
      <point x="443" y="477"/>
      <point x="258" y="308"/>
      <point x="53" y="304" type="curve" smooth="yes"/>
      <point x="-165" y="308"/>
      <point x="-249" y="488"/>
      <point x="-249" y="641" type="curve" smooth="yes"/>
      <point x="-249" y="953"/>
      <point x="105" y="1332"/>
      <point x="554" y="1332" type="curve" smooth="yes"/>
      <point x="905" y="1332"/>
      <point x="1110" y="1105"/>
      <point x="1110" y="865" type="curve" smooth="yes"/>
      <point x="1110" y="614"/>
      <point x="891" y="381"/>
      <point x="651" y="381" type="curve" smooth="yes"/>
      <point x="620" y="381"/>
      <point x="582" y="387"/>
      <point x="548" y="408" type="curve"/>
      <point x="648" y="610"/>
      <point x="785" y="893"/>
      <point x="963" y="937" type="curve"/>
    </contour>
  </outline>
</glyph>
<glyph name="Q.big" format="2">
  <advance width="1129"/>
  <outline>
    <contour>
      <point x="303" y="-45" type="curve" smooth="yes"/>
      <point x="377" y="-45"/>
      <point x="455" y="-31"/>
      <point x="532" y="-6" type="curve"/>
      <point x="858" y="-288"/>
      <point x="1183" y="-745"/>
      <point x="1711" y="-745" type="curve" smooth="yes"/>
      <point x="2058" y="-745"/>
      <point x="2255" y="-535"/>
      <point x="2255" y="-399" type="curve" smooth="yes"/>
      <point x="2255" y="-348"/>
      <point x="2217" y="-288"/>
      <point x="2156" y="-288" type="curve" smooth="yes"/>
      <point x="2144" y="-288"/>
      <point x="2131" y="-290"/>
      <point x="2118" y="-296" type="curve"/>
      <point x="2120" y="-300" type="line"/>
      <point x="2133" y="-295"/>
      <point x="2146" y="-292"/>
      <point x="2156" y="-292" type="curve" smooth="yes"/>
      <point x="2211" y="-292"/>
      <point x="2249" y="-344"/>
      <point x="2249" y="-401" type="curve" smooth="yes"/>
      <point x="2249" y="-529"/>
      <point x="2060" y="-731"/>
      <point x="1719" y="-731" type="curve" smooth="yes"/>
      <point x="1377" y="-731"/>
      <point x="1139" y="-565"/>
      <point x="932" y="-375" type="curve" smooth="yes"/>
      <point x="799" y="-253"/>
      <point x="674" y="-115"/>
      <point x="546" y="-2" type="curve"/>
      <point x="879" y="110"/>
      <point x="1201" y="425"/>
      <point x="1201" y="752" type="curve" smooth="yes"/>
      <point x="1201" y="991"/>
      <point x="1047" y="1183"/>
      <point x="752" y="1183" type="curve" smooth="yes"/>
      <point x="446" y="1183"/>
      <point x="130" y="898"/>
      <point x="130" y="611" type="curve" smooth="yes"/>
      <point x="130" y="471"/>
      <point x="208" y="316"/>
      <point x="394" y="316" type="curve" smooth="yes"/>
      <point x="621" y="316"/>
      <point x="837" y="501"/>
      <point x="837" y="720" type="curve" smooth="yes"/>
      <point x="837" y="853"/>
      <point x="749" y="921"/>
      <point x="645" y="921" type="curve" smooth="yes"/>
      <point x="515" y="921"/>
      <point x="396" y="817"/>
      <point x="396" y="710" type="curve" smooth="yes"/>
      <point x="396" y="683"/>
      <point x="407" y="659"/>
      <point x="426" y="637" type="curve"/>
      <point x="429" y="641" type="line"/>
      <point x="415" y="661"/>
      <point x="409" y="683"/>
      <point x="409" y="707" type="curve" smooth="yes"/>
      <point x="409" y="812"/>
      <point x="515" y="916"/>
      <point x="641" y="916" type="curve" smooth="yes"/>
      <point x="736" y="916"/>
      <point x="821" y="855"/>
      <point x="821" y="723" type="curve" smooth="yes"/>
      <point x="821" y="503"/>
      <point x="617" y="321"/>
      <point x="395" y="321" type="curve" smooth="yes"/>
      <point x="209" y="321"/>
      <point x="140" y="469"/>
      <point x="140" y="601" type="curve" smooth="yes"/>
      <point x="140" y="856"/>
      <point x="428" y="1171"/>
      <point x="763" y="1171" type="curve" smooth="yes"/>
      <point x="1036" y="1171"/>
      <point x="1188" y="1007"/>
      <point x="1188" y="770" type="curve" smooth="yes"/>
      <point x="1188" y="453"/>
      <point x="874" y="119"/>
      <point x="541" y="2" type="curve"/>
      <point x="395" y="129"/>
      <point x="245" y="224"/>
      <point x="72" y="224" type="curve" smooth="yes"/>
      <point x="4" y="224"/>
      <point x="-73" y="203"/>
      <point x="-73" y="122" type="curve" smooth="yes"/>
      <point x="-73" y="50"/>
      <point x="65" y="-42"/>
    </contour>
    <contour>
      <point x="79" y="209" type="curve" smooth="yes"/>
      <point x="240" y="209"/>
      <point x="384" y="121"/>
      <point x="527" y="-2" type="curve"/>
      <point x="452" y="-27"/>
      <point x="376" y="-41"/>
      <point x="303" y="-41" type="curve" smooth="yes"/>
      <point x="74" y="-39"/>
      <point x="-57" y="52"/>
      <point x="-57" y="120" type="curve" smooth="yes"/>
      <point x="-57" y="192"/>
      <point x="30" y="209"/>
    </contour>
  </outline>
</glyph>
<glyph name="R.001" format="2">
  <advance width="822"/>
  <outline>
    <contour>
      <point x="545" y="367" type="line"/>
      <point x="662" y="323"/>
      <point x="565" y="-107"/>
      <point x="687" y="-231" type="curve" smooth="yes"/>
      <point x="713" y="-257"/>
      <point x="764" y="-284"/>
      <point x="818" y="-235" type="curve"/>
      <point x="816" y="-233" type="line"/>
      <point x="783" y="-267"/>
      <point x="722" y="-266"/>
      <point x="689" y="-227" type="curve" smooth="yes"/>
      <point x="636" y="-164"/>
      <point x="637" y="-38"/>
      <point x="633" y="88" type="curve" smooth="yes"/>
      <point x="629" y="201"/>
      <point x="626" y="312"/>
      <point x="564" y="360" type="curve"/>
      <point x="568" y="368" type="line"/>
      <point x="727" y="381"/>
      <point x="857" y="530"/>
      <point x="857" y="684" type="curve" smooth="yes"/>
      <point x="857" y="851"/>
      <point x="705" y="995"/>
      <point x="477" y="995" type="curve" smooth="yes"/>
      <point x="184" y="995"/>
      <point x="-48" y="758"/>
      <point x="-48" y="553" type="curve" smooth="yes"/>
      <point x="-48" y="448"/>
      <point x="13" y="322"/>
      <point x="152" y="318" type="curve" smooth="yes"/>
      <point x="291" y="318"/>
      <point x="424" y="432"/>
      <point x="441" y="573" type="curve" smooth="yes"/>
      <point x="455" y="688"/>
      <point x="380" y="746"/>
      <point x="295" y="746" type="curve" smooth="yes"/>
      <point x="201" y="746"/>
      <point x="111" y="674"/>
      <point x="102" y="596" type="curve"/>
      <point x="97" y="571"/>
      <point x="105" y="550"/>
      <point x="120" y="530" type="curve"/>
      <point x="125" y="532" type="line"/>
      <point x="111" y="551"/>
      <point x="107" y="574"/>
      <point x="112" y="596" type="curve"/>
      <point x="120" y="672"/>
      <point x="204" y="742"/>
      <point x="294" y="742" type="curve" smooth="yes"/>
      <point x="371" y="742"/>
      <point x="441" y="690"/>
      <point x="428" y="574" type="curve" smooth="yes"/>
      <point x="411" y="433"/>
      <point x="288" y="322"/>
      <point x="153" y="322" type="curve" smooth="yes"/>
      <point x="15" y="327"/>
      <point x="-39" y="443"/>
      <point x="-39" y="541" type="curve" smooth="yes"/>
      <point x="-39" y="744"/>
      <point x="191" y="990"/>
      <point x="483" y="990" type="curve" smooth="yes"/>
      <point x="618" y="990"/>
      <point x="719" y="937"/>
      <point x="778" y="861" type="curve"/>
      <point x="748" y="874"/>
      <point x="698" y="836"/>
      <point x="655" y="787" type="curve" smooth="yes"/>
      <point x="554" y="671"/>
      <point x="448" y="456"/>
      <point x="377" y="322" type="curve" smooth="yes"/>
      <point x="293" y="162"/>
      <point x="166" y="-12"/>
      <point x="1" y="-13" type="curve" smooth="yes"/>
      <point x="-58" y="-13"/>
      <point x="-147" y="40"/>
      <point x="-109" y="133" type="curve"/>
      <point x="-110" y="134" type="line"/>
      <point x="-154" y="31"/>
      <point x="-65" y="-19"/>
      <point x="1" y="-19" type="curve" smooth="yes"/>
      <point x="185" y="-19"/>
      <point x="304" y="140"/>
      <point x="400" y="329" type="curve" smooth="yes"/>
      <point x="466" y="458"/>
      <point x="574" y="674"/>
      <point x="660" y="783" type="curve" smooth="yes"/>
      <point x="694" y="825"/>
      <point x="756" y="879"/>
      <point x="784" y="853" type="curve"/>
      <point x="819" y="804"/>
      <point x="838" y="746"/>
      <point x="838" y="688" type="curve" smooth="yes"/>
      <point x="838" y="532"/>
      <point x="706" y="372"/>
      <point x="545" y="372" type="curve"/>
      <point x="544" y="367" type="line"/>
    </contour>
  </outline>
</glyph>
<glyph name="R.big" format="2">
  <advance width="1019"/>
  <outline>
    <contour>
      <point x="-37" y="-104" type="curve" smooth="yes"/>
      <point x="-115" y="-104"/>
      <point x="-227" y="-36"/>
      <point x="-170" y="85" type="curve"/>
      <point x="-171" y="87" type="line"/>
      <point x="-237" y="-47"/>
      <point x="-124" y="-112"/>
      <point x="-37" y="-112" type="curve" smooth="yes"/>
      <point x="202" y="-112"/>
      <point x="363" y="96"/>
      <point x="501" y="342" type="curve" smooth="yes"/>
      <point x="564" y="451" type="line"/>
      <point x="668" y="367"/>
      <point x="761" y="233"/>
      <point x="860" y="87" type="curve" smooth="yes"/>
      <point x="1098" y="-264"/>
      <point x="1342" y="-608"/>
      <point x="1842" y="-608" type="curve" smooth="yes"/>
      <point x="2189" y="-608"/>
      <point x="2386" y="-398"/>
      <point x="2386" y="-262" type="curve" smooth="yes"/>
      <point x="2386" y="-211"/>
      <point x="2348" y="-151"/>
      <point x="2287" y="-151" type="curve" smooth="yes"/>
      <point x="2275" y="-151"/>
      <point x="2262" y="-153"/>
      <point x="2249" y="-159" type="curve"/>
      <point x="2251" y="-163" type="line"/>
      <point x="2264" y="-158"/>
      <point x="2277" y="-155"/>
      <point x="2287" y="-155" type="curve" smooth="yes"/>
      <point x="2342" y="-155"/>
      <point x="2380" y="-207"/>
      <point x="2380" y="-264" type="curve" smooth="yes"/>
      <point x="2380" y="-392"/>
      <point x="2191" y="-594"/>
      <point x="1850" y="-594" type="curve" smooth="yes"/>
      <point x="1385" y="-594"/>
      <point x="1084" y="-220"/>
      <point x="867" y="89" type="curve" smooth="yes"/>
      <point x="795" y="193"/>
      <point x="728" y="293"/>
      <point x="657" y="373" type="curve"/>
      <point x="914" y="378"/>
      <point x="1129" y="616"/>
      <point x="1129" y="861" type="curve" smooth="yes"/>
      <point x="1129" y="1118"/>
      <point x="896" y="1340"/>
      <point x="545" y="1340" type="curve" smooth="yes"/>
      <point x="94" y="1340"/>
      <point x="-263" y="975"/>
      <point x="-263" y="660" type="curve" smooth="yes"/>
      <point x="-263" y="498"/>
      <point x="-169" y="305"/>
      <point x="45" y="298" type="curve" smooth="yes"/>
      <point x="57" y="298" type="line" smooth="yes"/>
      <point x="208" y="303"/>
      <point x="352" y="394"/>
      <point x="431" y="524" type="curve"/>
      <point x="472" y="511"/>
      <point x="511" y="490"/>
      <point x="548" y="463" type="curve"/>
      <point x="520" y="416"/>
      <point x="495" y="371"/>
      <point x="472" y="332" type="curve" smooth="yes"/>
      <point x="350" y="124"/>
      <point x="186" y="-104"/>
    </contour>
    <contour>
      <point x="3" y="627" type="line"/>
      <point x="-18" y="657"/>
      <point x="-24" y="692"/>
      <point x="-17" y="726" type="curve"/>
      <point x="-4" y="843"/>
      <point x="125" y="950"/>
      <point x="263" y="950" type="curve" smooth="yes"/>
      <point x="382" y="950"/>
      <point x="489" y="870"/>
      <point x="469" y="692" type="curve" smooth="yes"/>
      <point x="462" y="635"/>
      <point x="444" y="581"/>
      <point x="417" y="533" type="curve"/>
      <point x="391" y="539"/>
      <point x="364" y="542"/>
      <point x="339" y="542" type="curve" smooth="yes"/>
      <point x="326" y="542"/>
      <point x="314" y="541"/>
      <point x="301" y="540" type="curve"/>
      <point x="301" y="536" type="line"/>
      <point x="314" y="537"/>
      <point x="326" y="538"/>
      <point x="339" y="538" type="curve" smooth="yes"/>
      <point x="365" y="538"/>
      <point x="390" y="534"/>
      <point x="415" y="528" type="curve"/>
      <point x="340" y="397"/>
      <point x="202" y="307"/>
      <point x="53" y="304" type="curve" smooth="yes"/>
      <point x="-165" y="308"/>
      <point x="-249" y="488"/>
      <point x="-249" y="641" type="curve" smooth="yes"/>
      <point x="-249" y="953"/>
      <point x="105" y="1332"/>
      <point x="554" y="1332" type="curve" smooth="yes"/>
      <point x="904" y="1332"/>
      <point x="1108" y="1106"/>
      <point x="1108" y="867" type="curve" smooth="yes"/>
      <point x="1108" y="627"/>
      <point x="901" y="381"/>
      <point x="650" y="381" type="curve"/>
      <point x="623" y="410"/>
      <point x="596" y="435"/>
      <point x="568" y="458" type="curve"/>
      <point x="662" y="620"/>
      <point x="784" y="821"/>
      <point x="880" y="933" type="curve" smooth="yes"/>
      <point x="928" y="990"/>
      <point x="1017" y="1063"/>
      <point x="1049" y="1022" type="curve"/>
      <point x="1050" y="1029" type="line"/>
      <point x="1016" y="1063"/>
      <point x="941" y="1010"/>
      <point x="875" y="939" type="curve" smooth="yes"/>
      <point x="766" y="823"/>
      <point x="648" y="632"/>
      <point x="552" y="470" type="curve"/>
      <point x="537" y="481"/>
      <point x="521" y="491"/>
      <point x="505" y="500" type="curve" smooth="yes"/>
      <point x="483" y="512"/>
      <point x="459" y="521"/>
      <point x="434" y="528" type="curve"/>
      <point x="463" y="577"/>
      <point x="482" y="632"/>
      <point x="489" y="690" type="curve" smooth="yes"/>
      <point x="511" y="867"/>
      <point x="396" y="957"/>
      <point x="265" y="957" type="curve" smooth="yes"/>
      <point x="120" y="957"/>
      <point x="-18" y="846"/>
      <point x="-32" y="726" type="curve"/>
      <point x="-40" y="687"/>
      <point x="-27" y="655"/>
      <point x="-4" y="624" type="curve"/>
    </contour>
  </outline>
</glyph>
<glyph name="S.big" format="2">
  <advance width="909"/>
  <outline>
    <contour>
      <point x="895" y="1165" type="curve" smooth="yes"/>
      <point x="764" y="1165"/>
      <point x="631" y="1067"/>
      <point x="631" y="888" type="curve" smooth="yes"/>
      <point x="631" y="692"/>
      <point x="792" y="516"/>
      <point x="792" y="298" type="curve" smooth="yes"/>
      <point x="792" y="8"/>
      <point x="514" y="-187"/>
      <point x="261" y="-187" type="curve" smooth="yes"/>
      <point x="24" y="-187"/>
      <point x="-130" y="-11"/>
      <point x="-130" y="199" type="curve" smooth="yes"/>
      <point x="-130" y="439"/>
      <point x="64" y="612"/>
      <point x="248" y="612" type="curve" smooth="yes"/>
      <point x="386" y="612"/>
      <point x="465" y="515"/>
      <point x="465" y="413" type="curve" smooth="yes"/>
      <point x="465" y="302"/>
      <point x="373" y="171"/>
      <point x="245" y="171" type="curve" smooth="yes"/>
      <point x="228" y="171"/>
      <point x="157" y="172"/>
      <point x="135" y="243" type="curve"/>
      <point x="129" y="238" type="line"/>
      <point x="154" y="176"/>
      <point x="212" y="167"/>
      <point x="250" y="167" type="curve" smooth="yes"/>
      <point x="392" y="167"/>
      <point x="477" y="304"/>
      <point x="477" y="414" type="curve" smooth="yes"/>
      <point x="477" y="527"/>
      <point x="386" y="616"/>
      <point x="246" y="616" type="curve" smooth="yes"/>
      <point x="55" y="616"/>
      <point x="-145" y="441"/>
      <point x="-145" y="200" type="curve" smooth="yes"/>
      <point x="-145" y="-22"/>
      <point x="26" y="-192"/>
      <point x="267" y="-192" type="curve" smooth="yes"/>
      <point x="539" y="-192"/>
      <point x="808" y="21"/>
      <point x="808" y="309" type="curve" smooth="yes"/>
      <point x="808" y="530"/>
      <point x="645" y="706"/>
      <point x="645" y="901" type="curve" smooth="yes"/>
      <point x="645" y="1081"/>
      <point x="784" y="1160"/>
      <point x="893" y="1160" type="curve" smooth="yes"/>
      <point x="1002" y="1160"/>
      <point x="1071" y="1081"/>
      <point x="1071" y="1001" type="curve" smooth="yes"/>
      <point x="1071" y="932"/>
      <point x="1019" y="843"/>
      <point x="932" y="843" type="curve" smooth="yes"/>
      <point x="914" y="843"/>
      <point x="902" y="847"/>
      <point x="890" y="854" type="curve"/>
      <point x="887" y="847" type="line"/>
      <point x="904" y="840"/>
      <point x="923" y="837"/>
      <point x="939" y="837" type="curve" smooth="yes"/>
      <point x="1021" y="837"/>
      <point x="1084" y="921"/>
      <point x="1084" y="998" type="curve" smooth="yes"/>
      <point x="1084" y="1074"/>
      <point x="1021" y="1165"/>
    </contour>
  </outline>
</glyph>
<glyph name="a.55" format="2">
  <advance width="403"/>
  <outline>
    <contour>
      <point x="261" y="558" type="curve" smooth="yes"/>
      <point x="303" y="558"/>
      <point x="319" y="533"/>
      <point x="319" y="501" type="curve" smooth="yes"/>
      <point x="319" y="462"/>
      <point x="297" y="412"/>
      <point x="266" y="382" type="curve"/>
      <point x="267" y="379" type="line"/>
      <point x="301" y="411"/>
      <point x="327" y="460"/>
      <point x="327" y="499" type="curve" smooth="yes"/>
      <point x="327" y="535"/>
      <point x="306" y="563"/>
      <point x="261" y="563" type="curve" smooth="yes"/>
      <point x="160" y="563"/>
      <point x="-13" y="349"/>
      <point x="-43" y="131" type="curve" smooth="yes"/>
      <point x="-45" y="118"/>
      <point x="-46" y="105"/>
      <point x="-46" y="94" type="curve" smooth="yes"/>
      <point x="-46" y="29"/>
      <point x="-21" y="-12"/>
      <point x="18" y="-12" type="curve" smooth="yes"/>
      <point x="66" y="-12"/>
      <point x="150" y="57"/>
      <point x="200" y="147" type="curve"/>
      <point x="194" y="125"/>
      <point x="190" y="101"/>
      <point x="190" y="75" type="curve" smooth="yes"/>
      <point x="190" y="8"/>
      <point x="224" y="-74"/>
      <point x="314" y="-74" type="curve" smooth="yes"/>
      <point x="409" y="-74"/>
      <point x="463" y="11"/>
      <point x="463" y="77" type="curve" smooth="yes"/>
      <point x="463" y="130"/>
      <point x="428" y="170"/>
      <point x="384" y="170" type="curve" smooth="yes"/>
      <point x="327" y="170"/>
      <point x="289" y="121"/>
      <point x="289" y="79" type="curve" smooth="yes"/>
      <point x="289" y="67"/>
      <point x="292" y="58"/>
      <point x="297" y="49" type="curve"/>
      <point x="301" y="51" type="line"/>
      <point x="296" y="60"/>
      <point x="293" y="69"/>
      <point x="293" y="79" type="curve" smooth="yes"/>
      <point x="293" y="119"/>
      <point x="329" y="166"/>
      <point x="384" y="166" type="curve" smooth="yes"/>
      <point x="421" y="166"/>
      <point x="457" y="135"/>
      <point x="457" y="83" type="curve" smooth="yes"/>
      <point x="457" y="18"/>
      <point x="409" y="-70"/>
      <point x="314" y="-70" type="curve" smooth="yes"/>
      <point x="229" y="-70"/>
      <point x="200" y="-1"/>
      <point x="200" y="64" type="curve" smooth="yes"/>
      <point x="200" y="105"/>
      <point x="210" y="148"/>
      <point x="224" y="177" type="curve" smooth="yes"/>
      <point x="403" y="550" type="line"/>
      <point x="382" y="550" type="line"/>
      <point x="213" y="183" type="line" smooth="yes"/>
      <point x="212" y="181"/>
      <point x="211" y="180"/>
      <point x="211" y="179" type="curve"/>
      <point x="153" y="67"/>
      <point x="70" y="-6"/>
      <point x="20" y="-6" type="curve" smooth="yes"/>
      <point x="-14" y="-6"/>
      <point x="-30" y="26"/>
      <point x="-30" y="79" type="curve" smooth="yes"/>
      <point x="-30" y="298"/>
      <point x="170" y="558"/>
    </contour>
  </outline>
</glyph>
<glyph name="a.555" format="2">
  <advance width="408"/>
  <outline>
    <contour>
      <point x="261" y="558" type="curve" smooth="yes"/>
      <point x="310" y="558"/>
      <point x="324" y="524"/>
      <point x="318" y="485" type="curve" smooth="yes"/>
      <point x="313" y="449"/>
      <point x="293" y="408"/>
      <point x="266" y="382" type="curve"/>
      <point x="267" y="379" type="line"/>
      <point x="297" y="407"/>
      <point x="321" y="449"/>
      <point x="326" y="485" type="curve" smooth="yes"/>
      <point x="332" y="527"/>
      <point x="312" y="563"/>
      <point x="261" y="563" type="curve" smooth="yes"/>
      <point x="183" y="563"/>
      <point x="65" y="438"/>
      <point x="-1" y="280" type="curve" smooth="yes"/>
      <point x="-21" y="227"/>
      <point x="-36" y="181"/>
      <point x="-43" y="131" type="curve" smooth="yes"/>
      <point x="-54" y="46"/>
      <point x="-28" y="-12"/>
      <point x="18" y="-12" type="curve" smooth="yes"/>
      <point x="67" y="-12"/>
      <point x="150" y="57"/>
      <point x="200" y="150" type="curve"/>
      <point x="174" y="80"/>
      <point x="170" y="32"/>
      <point x="170" y="-6" type="curve" smooth="yes"/>
      <point x="170" y="-115"/>
      <point x="230" y="-181"/>
      <point x="297" y="-181" type="curve" smooth="yes"/>
      <point x="327" y="-181"/>
      <point x="370" y="-168"/>
      <point x="384" y="-130" type="curve"/>
      <point x="380" y="-129" type="line"/>
      <point x="368" y="-164"/>
      <point x="320" y="-174"/>
      <point x="291" y="-174" type="curve" smooth="yes"/>
      <point x="230" y="-174"/>
      <point x="175" y="-113"/>
      <point x="175" y="-6" type="curve" smooth="yes"/>
      <point x="175" y="41"/>
      <point x="190" y="104"/>
      <point x="221" y="169" type="curve" smooth="yes"/>
      <point x="403" y="550" type="line"/>
      <point x="382" y="550" type="line"/>
      <point x="219" y="194" type="line"/>
      <point x="215" y="186" type="line" smooth="yes"/>
      <point x="157" y="70"/>
      <point x="71" y="-6"/>
      <point x="20" y="-6" type="curve" smooth="yes"/>
      <point x="-23" y="-6"/>
      <point x="-37" y="45"/>
      <point x="-27" y="123" type="curve" smooth="yes"/>
      <point x="-20" y="174"/>
      <point x="-8" y="220"/>
      <point x="14" y="275" type="curve" smooth="yes"/>
      <point x="82" y="430"/>
      <point x="192" y="558"/>
    </contour>
  </outline>
</glyph>
<glyph name="c.9" format="2">
  <advance width="572"/>
  <outline>
    <contour>
      <point x="-20" y="219" type="curve" smooth="yes"/>
      <point x="-30" y="178"/>
      <point x="-38" y="136"/>
      <point x="-38" y="94" type="curve" smooth="yes"/>
      <point x="-38" y="-21"/>
      <point x="36" y="-142"/>
      <point x="156" y="-142" type="curve" smooth="yes"/>
      <point x="284" y="-142"/>
      <point x="409" y="-30"/>
      <point x="409" y="103" type="curve" smooth="yes"/>
      <point x="409" y="178"/>
      <point x="348" y="231"/>
      <point x="280" y="231" type="curve" smooth="yes"/>
      <point x="193" y="231"/>
      <point x="126" y="159"/>
      <point x="126" y="87" type="curve" smooth="yes"/>
      <point x="126" y="70"/>
      <point x="134" y="57"/>
      <point x="144" y="42" type="curve"/>
      <point x="148" y="44" type="line"/>
      <point x="140" y="57"/>
      <point x="136" y="70"/>
      <point x="136" y="84" type="curve" smooth="yes"/>
      <point x="136" y="156"/>
      <point x="193" y="226"/>
      <point x="279" y="226" type="curve" smooth="yes"/>
      <point x="340" y="226"/>
      <point x="395" y="188"/>
      <point x="395" y="104" type="curve" smooth="yes"/>
      <point x="395" y="-26"/>
      <point x="280" y="-138"/>
      <point x="162" y="-138" type="curve" smooth="yes"/>
      <point x="36" y="-138"/>
      <point x="-29" y="-22"/>
      <point x="-29" y="81" type="curve" smooth="yes"/>
      <point x="-29" y="132"/>
      <point x="-18" y="172"/>
      <point x="-7" y="208" type="curve" smooth="yes"/>
      <point x="45" y="383"/>
      <point x="187" y="558"/>
      <point x="267" y="558" type="curve" smooth="yes"/>
      <point x="304" y="558"/>
      <point x="318" y="527"/>
      <point x="314" y="493" type="curve"/>
      <point x="302" y="437"/>
      <point x="262" y="339"/>
      <point x="194" y="339" type="curve" smooth="yes"/>
      <point x="169" y="339"/>
      <point x="155" y="390"/>
      <point x="185" y="435" type="curve"/>
      <point x="181" y="437" type="line"/>
      <point x="140" y="386"/>
      <point x="159" y="335"/>
      <point x="194" y="335" type="curve" smooth="yes"/>
      <point x="265" y="335"/>
      <point x="318" y="434"/>
      <point x="326" y="485" type="curve" smooth="yes"/>
      <point x="331" y="522"/>
      <point x="310" y="563"/>
      <point x="268" y="563" type="curve" smooth="yes"/>
      <point x="183" y="563"/>
      <point x="28" y="408"/>
    </contour>
  </outline>
</glyph>
<glyph name="d.5" format="2">
  <advance width="410"/>
  <outline>
    <contour>
      <point x="261" y="558" type="curve" smooth="yes"/>
      <point x="310" y="558"/>
      <point x="324" y="524"/>
      <point x="318" y="485" type="curve" smooth="yes"/>
      <point x="313" y="449"/>
      <point x="293" y="408"/>
      <point x="266" y="382" type="curve"/>
      <point x="267" y="379" type="line"/>
      <point x="297" y="407"/>
      <point x="321" y="449"/>
      <point x="326" y="485" type="curve" smooth="yes"/>
      <point x="332" y="527"/>
      <point x="312" y="563"/>
      <point x="261" y="563" type="curve" smooth="yes"/>
      <point x="183" y="563"/>
      <point x="65" y="438"/>
      <point x="-1" y="280" type="curve" smooth="yes"/>
      <point x="-21" y="227"/>
      <point x="-36" y="181"/>
      <point x="-43" y="131" type="curve" smooth="yes"/>
      <point x="-54" y="46"/>
      <point x="-28" y="-12"/>
      <point x="18" y="-12" type="curve" smooth="yes"/>
      <point x="67" y="-12"/>
      <point x="152" y="59"/>
      <point x="202" y="152" type="curve"/>
      <point x="193" y="120"/>
      <point x="187" y="85"/>
      <point x="187" y="48" type="curve" smooth="yes"/>
      <point x="187" y="-31"/>
      <point x="230" y="-128"/>
      <point x="347" y="-128" type="curve" smooth="yes"/>
      <point x="477" y="-128"/>
      <point x="556" y="-17"/>
      <point x="556" y="72" type="curve" smooth="yes"/>
      <point x="556" y="140"/>
      <point x="506" y="189"/>
      <point x="456" y="189" type="curve" smooth="yes"/>
      <point x="440" y="189"/>
      <point x="425" y="184"/>
      <point x="413" y="175" type="curve"/>
      <point x="415" y="171" type="line"/>
      <point x="427" y="180"/>
      <point x="442" y="185"/>
      <point x="456" y="185" type="curve" smooth="yes"/>
      <point x="504" y="185"/>
      <point x="550" y="144"/>
      <point x="550" y="78" type="curve" smooth="yes"/>
      <point x="550" y="-9"/>
      <point x="475" y="-124"/>
      <point x="347" y="-124" type="curve" smooth="yes"/>
      <point x="237" y="-124"/>
      <point x="197" y="-36"/>
      <point x="197" y="41" type="curve" smooth="yes"/>
      <point x="197" y="93"/>
      <point x="211" y="148"/>
      <point x="228" y="187" type="curve" smooth="yes"/>
      <point x="595" y="971" type="line"/>
      <point x="575" y="971" type="line"/>
      <point x="217" y="192" type="line" smooth="yes"/>
      <point x="215" y="188"/>
      <point x="213" y="184"/>
      <point x="212" y="180" type="curve"/>
      <point x="154" y="68"/>
      <point x="70" y="-6"/>
      <point x="20" y="-6" type="curve" smooth="yes"/>
      <point x="-23" y="-6"/>
      <point x="-37" y="45"/>
      <point x="-27" y="123" type="curve" smooth="yes"/>
      <point x="-20" y="174"/>
      <point x="-8" y="220"/>
      <point x="14" y="275" type="curve" smooth="yes"/>
      <point x="82" y="430"/>
      <point x="192" y="558"/>
    </contour>
  </outline>
</glyph>
<glyph name="d.55" format="2">
  <advance width="417"/>
  <outline>
    <contour>
      <point x="261" y="558" type="curve" smooth="yes"/>
      <point x="310" y="558"/>
      <point x="324" y="524"/>
      <point x="318" y="485" type="curve" smooth="yes"/>
      <point x="313" y="449"/>
      <point x="293" y="408"/>
      <point x="266" y="382" type="curve"/>
      <point x="267" y="379" type="line"/>
      <point x="297" y="407"/>
      <point x="321" y="449"/>
      <point x="326" y="485" type="curve" smooth="yes"/>
      <point x="332" y="527"/>
      <point x="312" y="563"/>
      <point x="261" y="563" type="curve" smooth="yes"/>
      <point x="183" y="563"/>
      <point x="65" y="438"/>
      <point x="-1" y="280" type="curve" smooth="yes"/>
      <point x="-21" y="227"/>
      <point x="-36" y="181"/>
      <point x="-43" y="131" type="curve" smooth="yes"/>
      <point x="-54" y="46"/>
      <point x="-28" y="-12"/>
      <point x="18" y="-12" type="curve" smooth="yes"/>
      <point x="65" y="-12"/>
      <point x="146" y="54"/>
      <point x="197" y="143" type="curve"/>
      <point x="173" y="77"/>
      <point x="169" y="31"/>
      <point x="169" y="-6" type="curve" smooth="yes"/>
      <point x="169" y="-115"/>
      <point x="229" y="-181"/>
      <point x="296" y="-181" type="curve" smooth="yes"/>
      <point x="326" y="-181"/>
      <point x="369" y="-168"/>
      <point x="383" y="-130" type="curve"/>
      <point x="379" y="-129" type="line"/>
      <point x="367" y="-164"/>
      <point x="319" y="-174"/>
      <point x="290" y="-174" type="curve" smooth="yes"/>
      <point x="229" y="-174"/>
      <point x="174" y="-113"/>
      <point x="174" y="-6" type="curve" smooth="yes"/>
      <point x="174" y="41"/>
      <point x="189" y="104"/>
      <point x="220" y="169" type="curve" smooth="yes"/>
      <point x="595" y="971" type="line"/>
      <point x="575" y="971" type="line"/>
      <point x="218" y="194" type="line"/>
      <point x="212" y="180" type="line"/>
      <point x="154" y="67"/>
      <point x="71" y="-6"/>
      <point x="20" y="-6" type="curve" smooth="yes"/>
      <point x="-23" y="-6"/>
      <point x="-37" y="45"/>
      <point x="-27" y="123" type="curve" smooth="yes"/>
      <point x="-20" y="174"/>
      <point x="-8" y="220"/>
      <point x="14" y="275" type="curve" smooth="yes"/>
      <point x="82" y="430"/>
      <point x="192" y="558"/>
    </contour>
  </outline>
</glyph>
